<?xml version="1.0" encoding="UTF-8" standalone="no"?>
<!-- Created with Inkscape (http://www.inkscape.org/) -->

<svg
   xmlns:ns0="http://www.iki.fi/pav/software/textext/"
   xmlns:osb="http://www.openswatchbook.org/uri/2009/osb"
   xmlns:dc="http://purl.org/dc/elements/1.1/"
   xmlns:cc="http://creativecommons.org/ns#"
   xmlns:rdf="http://www.w3.org/1999/02/22-rdf-syntax-ns#"
   xmlns:svg="http://www.w3.org/2000/svg"
   xmlns="http://www.w3.org/2000/svg"
   xmlns:xlink="http://www.w3.org/1999/xlink"
   xmlns:sodipodi="http://sodipodi.sourceforge.net/DTD/sodipodi-0.dtd"
   xmlns:inkscape="http://www.inkscape.org/namespaces/inkscape"
   width="6.5869942in"
   height="6.6058083in"
   viewBox="0 0 50.194568 50.337934"
   version="1.1"
   id="svg8"
   inkscape:version="0.92.3 (2405546, 2018-03-11)"
   sodipodi:docname="d1.svg">
  <sodipodi:namedview
     id="base"
     pagecolor="#ffffff"
     bordercolor="#666666"
     borderopacity="1.0"
     inkscape:pageopacity="0.0"
     inkscape:pageshadow="2"
     inkscape:zoom="0.98994949"
     inkscape:cx="242.03236"
     inkscape:cy="246.15645"
     inkscape:document-units="mm"
     inkscape:current-layer="layer1"
     showgrid="false"
     inkscape:snap-global="false"
     inkscape:window-width="1920"
     inkscape:window-height="1013"
     inkscape:window-x="-9"
     inkscape:window-y="1341"
     inkscape:window-maximized="1"
     fit-margin-top="0"
     fit-margin-left="0"
     fit-margin-right="0"
     fit-margin-bottom="0"
     units="in"
     scale-x="0.30001" />
  <defs
     id="defs2">
    <linearGradient
       osb:paint="solid"
       id="linearGradient2377">
      <stop
         id="stop2375"
         offset="0"
         style="stop-color:#00ff00;stop-opacity:1;" />
    </linearGradient>
    <linearGradient
       osb:paint="solid"
       id="linearGradient923">
      <stop
         id="stop921"
         offset="0"
         style="stop-color:#00ff00;stop-opacity:1;" />
    </linearGradient>
    <linearGradient
       id="linearGradient847"
       inkscape:collect="always">
      <stop
         id="stop843"
         offset="0"
         style="stop-color:#00e800;stop-opacity:1;" />
      <stop
         id="stop845"
         offset="1"
         style="stop-color:#00e800;stop-opacity:0;" />
    </linearGradient>
    <linearGradient
       id="linearGradient839"
       inkscape:collect="always">
      <stop
         id="stop835"
         offset="0"
         style="stop-color:#00ff00;stop-opacity:1;" />
      <stop
         id="stop837"
         offset="1"
         style="stop-color:#00ff00;stop-opacity:0;" />
    </linearGradient>
    <linearGradient
       gradientTransform="translate(-0.85044643,0.66145833)"
       gradientUnits="userSpaceOnUse"
       y2="72.67112"
       x2="116.83244"
       y1="72.67112"
       x1="91.432442"
       id="linearGradient841"
       xlink:href="#linearGradient839"
       inkscape:collect="always" />
    <linearGradient
       gradientTransform="translate(-0.85044643,0.66145833)"
       gradientUnits="userSpaceOnUse"
       y2="72.67112"
       x2="116.83244"
       y1="72.67112"
       x1="91.432442"
       id="linearGradient849"
       xlink:href="#linearGradient847"
       inkscape:collect="always" />
  </defs>
  <metadata
     id="metadata5">
    <rdf:RDF>
      <cc:Work
         rdf:about="">
        <dc:format>image/svg+xml</dc:format>
        <dc:type
           rdf:resource="http://purl.org/dc/dcmitype/StillImage" />
        <dc:title></dc:title>
      </cc:Work>
    </rdf:RDF>
  </metadata>
  <g
     transform="translate(-83.544434,-42.999484)"
     id="layer1"
     inkscape:groupmode="layer"
     inkscape:label="Layer 1">
    <ellipse
       transform="rotate(90)"
       ry="20.079985"
       rx="19.985491"
       cy="-103.72442"
       cx="73.25193"
       id="path919"
       style="opacity:0.97899996;fill:#ffffff;fill-opacity:1;stroke:#000200;stroke-width:0.2;stroke-miterlimit:4;stroke-dasharray:none;stroke-dashoffset:0;stroke-opacity:1" />
    <circle
       r="15.969354"
       cy="73.39563"
       cx="103.63376"
       id="path2397"
       style="opacity:1;fill:#ffffff;fill-opacity:1;stroke:#000000;stroke-width:0.16500001;stroke-miterlimit:4;stroke-dasharray:none;stroke-dashoffset:0;stroke-opacity:1" />
    <ellipse
       ry="12.595"
       rx="12.567708"
       cy="73.332581"
       cx="103.28199"
       id="path823"
       style="opacity:0.71399997;fill:url(#linearGradient841);fill-opacity:1;stroke:url(#linearGradient849);stroke-width:0.26458332;stroke-miterlimit:4;stroke-dasharray:0.26458331, 0.26458331;stroke-dashoffset:0;stroke-opacity:1" />
    <path
       inkscape:connector-curvature="0"
       id="path2383"
       d="m 133.55142,58.484262 h 0.18714 l -23.32924,0.09517 C 99.992239,58.76978 97.310005,62.10078 97.310005,62.10078"
       style="fill:none;stroke:#f5ff11;stroke-width:0.21607736;stroke-linecap:butt;stroke-linejoin:miter;stroke-miterlimit:4;stroke-dasharray:none;stroke-opacity:1" />
    <path
       inkscape:connector-curvature="0"
       id="path2385"
       d="m 97.61235,61.993303 6.14211,11.433778"
       style="fill:none;stroke:#000000;stroke-width:0.16500001;stroke-linecap:butt;stroke-linejoin:miter;stroke-miterlimit:4;stroke-dasharray:none;stroke-opacity:1" />
    <path
       inkscape:connector-curvature="0"
       id="path2391"
       d="m 103.65997,73.332588 0.18899,-30.33259 v 0"
       style="fill:none;stroke:#000000;stroke-width:0.16500001;stroke-linecap:butt;stroke-linejoin:miter;stroke-miterlimit:4;stroke-dasharray:0.165, 0.165;stroke-dashoffset:0;stroke-opacity:1" />
    <path
       inkscape:connector-curvature="0"
       id="path2393"
       d="m 103.56547,73.332588 6.61459,-14.363094 v 0 0.09449"
       style="fill:none;stroke:#000000;stroke-width:0.16500001;stroke-linecap:butt;stroke-linejoin:miter;stroke-miterlimit:4;stroke-dasharray:none;stroke-opacity:1" />
    <path
       inkscape:connector-curvature="0"
       id="path2399"
       d="m 104.36875,71.357701 c -1.00226,-0.400905 -1.67043,0.200451 -1.67043,0.200451"
       style="fill:none;stroke:#000000;stroke-width:0.16500001;stroke-linecap:butt;stroke-linejoin:miter;stroke-miterlimit:4;stroke-dasharray:none;stroke-opacity:1" />
    <path
       inkscape:connector-curvature="0"
       id="path2401"
       d="m 103.60035,69.386587 c -1.03567,-0.133633 -1.73725,0.501131 -1.73725,0.501131"
       style="fill:none;stroke:#000000;stroke-width:0.16500001;stroke-linecap:butt;stroke-linejoin:miter;stroke-miterlimit:4;stroke-dasharray:none;stroke-opacity:1" />
    <path
       inkscape:connector-curvature="0"
       id="path2403"
       d="m 110.24868,58.829442 3.24064,1.369756"
       style="fill:none;stroke:#000000;stroke-width:0.16500001;stroke-linecap:butt;stroke-linejoin:miter;stroke-miterlimit:4;stroke-dasharray:0.165, 0.165;stroke-dashoffset:0;stroke-opacity:1" />
    <path
       style="fill:none;stroke:#000000;stroke-width:0.16500001;stroke-linecap:butt;stroke-linejoin:miter;stroke-miterlimit:4;stroke-dasharray:0.165, 0.165;stroke-dashoffset:0;stroke-opacity:1"
       d="m 106.94122,57.459686 3.24064,1.369756"
       id="path2405"
       inkscape:connector-curvature="0" />
    <path
       inkscape:connector-curvature="0"
       id="path2407"
       d="m 112.2532,58.796033 c 0.16705,0.534538 -0.13364,0.835216 -0.13364,0.835216"
       style="fill:none;stroke:#000000;stroke-width:0.16500001;stroke-linecap:butt;stroke-linejoin:miter;stroke-miterlimit:4;stroke-dasharray:none;stroke-opacity:1" />
    <text
       id="text2411"
       y="68.384323"
       x="98.522232"
       style="font-style:normal;font-variant:normal;font-weight:normal;font-stretch:normal;font-size:1.41111112px;line-height:1.25;font-family:Arial;-inkscape-font-specification:'Arial, Normal';font-variant-ligatures:normal;font-variant-caps:normal;font-variant-numeric:normal;text-align:start;letter-spacing:0px;word-spacing:0px;writing-mode:lr-tb;text-anchor:start;fill:#000000;fill-opacity:1;stroke:none;stroke-width:0.26458332"
       xml:space="preserve"><tspan
         style="stroke-width:0.26458332"
         y="69.655388"
         x="98.522232"
         id="tspan2409"
         sodipodi:role="line" /></text>
    <text
       id="text2415"
       y="67.749565"
       x="99.156998"
       style="font-style:normal;font-variant:normal;font-weight:normal;font-stretch:normal;font-size:1.41111112px;line-height:1.25;font-family:'Franklin Gothic Medium';-inkscape-font-specification:'Franklin Gothic Medium, Normal';font-variant-ligatures:normal;font-variant-caps:normal;font-variant-numeric:normal;font-feature-settings:normal;text-align:start;letter-spacing:0px;word-spacing:0px;writing-mode:lr-tb;text-anchor:start;fill:#000000;fill-opacity:1;stroke:none;stroke-width:0.26458332"
       xml:space="preserve"><tspan
         style="stroke-width:0.26458332"
         y="69.035957"
         x="99.156998"
         id="tspan2413"
         sodipodi:role="line" /></text>
    <g
       ns0:preamble=""
       ns0:text="$\\phi$\n"
       word-spacing="normal"
       letter-spacing="normal"
       font-size-adjust="none"
       font-stretch="normal"
       font-weight="normal"
       font-variant="normal"
       font-style="normal"
       stroke-miterlimit="10.433"
       xml:space="preserve"
       transform="matrix(0.22330633,0,0,-0.22330633,63.682707,206.95212)"
       id="content"
       style="font-style:normal;font-variant:normal;font-weight:normal;font-stretch:normal;letter-spacing:normal;word-spacing:normal;text-anchor:start;fill:none;fill-opacity:1;fill-rule:evenodd;stroke:#000000;stroke-linecap:butt;stroke-linejoin:miter;stroke-miterlimit:10.43299961;stroke-dasharray:none;stroke-dashoffset:0;stroke-opacity:1">
<path
   id="path2071"
   d="m 227.79,663.89 v 0 0 0 0.01 0 0 0 0 0.01 0 0 0.01 h 0.01 v 0.01 0.01 0 0.01 0 l 0.01,0.01 v 0.02 0 0.01 0 0.01 0 l 0.01,0.01 v 0 0.01 0 0 0 0 0 0.01 0 0 0 0 0 c 0,0.01 0,0.1 -0.12,0.1 -0.1,0 -0.11,-0.03 -0.15,-0.2 l -0.58,-2.29 c -1.58,-0.05 -3.05,-1.37 -3.05,-2.73 0,-0.94 0.7,-1.73 1.92,-1.79 l 0.04,0.21 c -0.59,0.03 -1.31,0.38 -1.31,1.38 0,1.19 0.86,2.58 2.34,2.71 l -1.03,-4.09 -0.04,-0.21 c -0.08,-0.31 -0.15,-0.63 -0.23,-0.94 -0.12,-0.46 -0.22,-0.84 -0.22,-0.87 0,-0.1 0.07,-0.11 0.12,-0.11 0.05,0 0.07,0.01 0.1,0.04 0.02,0.02 0.08,0.26 0.11,0.4 l 0.38,1.48 0.04,0.21 1.03,4.09 c 0.76,-0.04 1.33,-0.5 1.33,-1.37 0,-1.18 -0.86,-2.6 -2.36,-2.72 l -0.04,-0.21 c 1.6,0.04 3.05,1.39 3.05,2.72 0,0.78 -0.53,1.7 -1.92,1.8 z"
   inkscape:connector-curvature="0"
   style="fill:#000000;stroke-width:0" />
</g>    <g
       style="font-style:normal;font-variant:normal;font-weight:normal;font-stretch:normal;letter-spacing:normal;word-spacing:normal;text-anchor:start;fill:none;fill-opacity:1;fill-rule:evenodd;stroke:#000000;stroke-linecap:butt;stroke-linejoin:miter;stroke-miterlimit:10.43299961;stroke-dasharray:none;stroke-dashoffset:0;stroke-opacity:1"
       ns0:preamble=""
       ns0:text="$R_E$\n"
       word-spacing="normal"
       letter-spacing="normal"
       font-size-adjust="none"
       font-stretch="normal"
       font-weight="normal"
       font-variant="normal"
       font-style="normal"
       stroke-miterlimit="10.433"
       xml:space="preserve"
       transform="matrix(0.17686001,0,0,-0.17686001,58.421422,185.09665)"
       id="g2249">
<path
   style="fill:#000000;stroke-width:0"
   inkscape:connector-curvature="0"
   id="path2245"
   d="m 228.61,660.61 0.09,0.02 0.1,0.03 0.09,0.03 0.1,0.03 0.1,0.03 0.09,0.03 0.1,0.04 0.1,0.04 0.09,0.05 0.09,0.04 0.09,0.05 0.09,0.05 0.09,0.05 0.09,0.06 0.08,0.06 0.08,0.06 0.08,0.06 0.07,0.06 0.08,0.07 0.06,0.07 0.07,0.07 0.06,0.07 0.05,0.08 0.05,0.08 0.05,0.08 0.03,0.08 0.04,0.08 0.03,0.09 0.02,0.09 0.02,0.09 0.01,0.09 v 0.09 c 0,0.85 -0.9,1.49 -2.2,1.49 h -2.84 c -0.2,0 -0.29,0 -0.29,-0.2 0,-0.11 0.09,-0.11 0.28,-0.11 0.01,0 0.21,0 0.38,-0.02 0.17,-0.02 0.26,-0.03 0.26,-0.16 0,-0.04 -0.01,-0.07 -0.04,-0.19 l -1.33,-5.33 c -0.1,-0.39 -0.12,-0.47 -0.91,-0.47 -0.18,0 -0.27,0 -0.27,-0.2 0,-0.11 0.12,-0.11 0.14,-0.11 0.28,0 0.98,0.04 1.26,0.04 0.28,0 0.98,-0.04 1.26,-0.04 0.08,0 0.2,0 0.2,0.2 0,0.11 -0.09,0.11 -0.28,0.11 -0.37,0 -0.65,0 -0.65,0.18 0,0.06 0.02,0.11 0.03,0.17 l 0.66,2.63 h 1.19 l -0.01,0.22 h -1.12 l 0.65,2.59 c 0.06,0.24 0.09,0.34 0.28,0.37 0.09,0.01 0.41,0.01 0.61,0.01 0.71,0 1.81,0 1.81,-0.98 0,-0.34 -0.16,-1.02 -0.55,-1.41 -0.25,-0.26 -0.78,-0.58 -1.68,-0.58 l 0.01,-0.22 c 0.91,0 1.09,-0.55 1.09,-0.9 0,-0.15 -0.08,-0.46 -0.14,-0.69 -0.07,-0.27 -0.16,-0.64 -0.16,-0.84 0,-1.07 1.19,-1.07 1.32,-1.07 0.85,0 1.2,1 1.2,1.14 0,0.12 -0.11,0.12 -0.12,0.12 -0.09,0 -0.11,-0.07 -0.13,-0.14 -0.25,-0.74 -0.68,-0.91 -0.91,-0.91 -0.32,0 -0.4,0.22 -0.4,0.61 0,0.31 0.06,0.82 0.11,1.13 0.01,0.14 0.03,0.33 0.03,0.47 0,0.77 -0.66,1.07 -0.93,1.17 z" />
<path
   style="fill:#000000;stroke-width:0"
   inkscape:connector-curvature="0"
   id="path2247"
   d="m 236.54,657.35 v 0 0.01 0 0 0.01 h 0.01 v 0 0.01 0 0.01 0 l 0.01,0.01 v 0 0.01 0.01 h 0.01 v 0 0.01 0 0.01 0 0 0.01 0 0 l 0.01,0.01 v 0 0 0 0 0.01 0 0 0 0 0 0 c 0,0.04 -0.03,0.1 -0.12,0.1 -0.02,0 -0.05,0 -0.08,-0.03 -0.01,-0.01 -0.02,-0.02 -0.1,-0.2 -0.46,-1 -0.82,-1.35 -1.96,-1.35 h -1.18 c -0.22,0 -0.23,0.01 -0.23,0.07 0,0.01 0,0.04 0.03,0.15 l 0.47,1.86 h 0.78 c 0.55,0 0.64,-0.09 0.64,-0.32 0,-0.08 -0.02,-0.19 -0.05,-0.31 -0.02,-0.06 -0.02,-0.07 -0.02,-0.09 0,-0.01 0.01,-0.09 0.12,-0.09 0.1,0 0.1,0.03 0.13,0.15 l 0.39,1.52 c 0.02,0.09 0.02,0.1 0.02,0.11 0,0.07 -0.06,0.09 -0.12,0.09 -0.09,0 -0.1,-0.03 -0.14,-0.18 -0.15,-0.54 -0.36,-0.63 -0.95,-0.63 h -0.74 l 0.42,1.66 c 0.06,0.21 0.07,0.23 0.36,0.23 h 1.14 c 0.91,0 1.15,-0.19 1.15,-0.8 0,-0.19 -0.03,-0.39 -0.03,-0.43 0,-0.05 0.02,-0.12 0.12,-0.12 0.1,0 0.11,0.07 0.12,0.18 l 0.13,1.21 c 0.02,0.21 -0.03,0.21 -0.21,0.21 h -3.84 c -0.14,0 -0.23,0 -0.23,-0.15 0,-0.1 0.08,-0.1 0.24,-0.1 0.11,0 0.14,0 0.26,-0.01 0.14,-0.02 0.16,-0.03 0.16,-0.1 0,-0.05 -0.03,-0.12 -0.03,-0.15 l -0.92,-3.64 c -0.07,-0.27 -0.07,-0.32 -0.62,-0.32 -0.13,0 -0.21,0 -0.21,-0.15 0,-0.1 0.08,-0.1 0.21,-0.1 h 3.95 c 0.17,0 0.18,0 0.24,0.13 z" />
</g>    <g
       style="font-style:normal;font-variant:normal;font-weight:normal;font-stretch:normal;letter-spacing:normal;word-spacing:normal;text-anchor:start;fill:none;fill-opacity:1;fill-rule:evenodd;stroke:#000000;stroke-linecap:butt;stroke-linejoin:miter;stroke-miterlimit:10.43299961;stroke-dasharray:none;stroke-dashoffset:0;stroke-opacity:1"
       ns0:preamble=""
       ns0:text="$\\alpha$\n"
       word-spacing="normal"
       letter-spacing="normal"
       font-size-adjust="none"
       font-stretch="normal"
       font-weight="normal"
       font-variant="normal"
       font-style="normal"
       stroke-miterlimit="10.433"
       xml:space="preserve"
       transform="matrix(0.24271128,0,0,-0.24271128,47.409808,228.26772)"
       id="g2417">
<path
   style="fill:#000000;stroke-width:0"
   inkscape:connector-curvature="0"
   id="path2415"
   d="m 228.19,659.58 v 0.07 0.07 l -0.01,0.07 v 0.07 l -0.01,0.13 -0.02,0.12 -0.02,0.12 -0.03,0.12 -0.03,0.1 -0.04,0.11 -0.04,0.09 -0.04,0.1 -0.04,0.08 -0.05,0.08 -0.06,0.08 -0.05,0.07 -0.06,0.07 -0.06,0.06 -0.06,0.05 -0.06,0.06 -0.07,0.05 -0.07,0.04 -0.06,0.04 -0.07,0.04 -0.07,0.03 -0.08,0.03 -0.07,0.02 -0.07,0.02 -0.07,0.02 -0.07,0.01 -0.08,0.01 -0.07,0.01 h -0.07 l -0.07,0.01 c -1.36,0 -2.68,-1.42 -2.68,-2.83 0,-0.92 0.6,-1.67 1.62,-1.67 l 0.02,0.21 c -0.6,0 -0.9,0.45 -0.9,1.09 0,0.48 0.26,1.56 0.58,2.06 0.47,0.73 1,0.92 1.35,0.92 0.99,0 0.99,-1.3 0.99,-2.08 0,-0.37 0,-0.94 0.02,-1.11 v 0 c -0.88,-0.77 -1.64,-0.88 -2.04,-0.88 l -0.02,-0.21 c 0.63,0 1.34,0.22 2.1,0.83 0.13,-0.53 0.46,-0.83 0.91,-0.83 0.53,0 0.84,0.54 0.84,0.7 0,0.07 -0.06,0.1 -0.12,0.1 -0.07,0 -0.1,-0.03 -0.13,-0.1 -0.18,-0.49 -0.54,-0.49 -0.56,-0.49 -0.31,0 -0.31,0.78 -0.31,1.02 0,0.21 0,0.23 0.1,0.35 0.94,1.17 1.14,2.32 1.14,2.33 0,0.02 0,0.1 -0.11,0.1 -0.1,0 -0.1,-0.03 -0.15,-0.21 -0.18,-0.63 -0.51,-1.38 -0.98,-1.97 z" />
</g>    <g
       style="font-style:normal;font-variant:normal;font-weight:normal;font-stretch:normal;letter-spacing:normal;word-spacing:normal;text-anchor:start;fill:none;fill-opacity:1;fill-rule:evenodd;stroke:#000000;stroke-linecap:butt;stroke-linejoin:miter;stroke-miterlimit:10.43299961;stroke-dasharray:none;stroke-dashoffset:0;stroke-opacity:1"
       ns0:preamble=""
       ns0:text="$r$\n"
       word-spacing="normal"
       letter-spacing="normal"
       font-size-adjust="none"
       font-stretch="normal"
       font-weight="normal"
       font-variant="normal"
       font-style="normal"
       stroke-miterlimit="10.433"
       xml:space="preserve"
       transform="matrix(0.2020573,0,0,-0.2020573,62.010342,199.78874)"
       id="g2597">
<path
   id="path2595"
   d="m 224.31,657.82 v -0.01 l -0.01,-0.02 v -0.01 -0.02 l -0.01,-0.03 -0.01,-0.03 v -0.03 l -0.01,-0.04 -0.01,-0.03 -0.01,-0.03 v -0.01 -0.02 l -0.01,-0.01 v -0.02 -0.01 l -0.01,-0.01 v -0.02 -0.01 -0.01 -0.01 l -0.01,-0.01 v -0.01 -0.01 0 -0.01 -0.01 c 0,-0.17 0.14,-0.26 0.29,-0.26 0.12,0 0.3,0.08 0.37,0.27 0.02,0.04 0.36,1.39 0.4,1.57 0.08,0.33 0.26,1.03 0.32,1.3 0.04,0.12 0.31,0.59 0.55,0.81 0.08,0.07 0.37,0.33 0.8,0.33 0.26,0 0.41,-0.12 0.42,-0.12 -0.3,-0.05 -0.52,-0.29 -0.52,-0.55 0,-0.16 0.11,-0.35 0.38,-0.35 0.27,0 0.55,0.23 0.55,0.59 0,0.35 -0.32,0.65 -0.83,0.65 -0.65,0 -1.08,-0.49 -1.27,-0.77 -0.08,0.45 -0.44,0.77 -0.91,0.77 -0.46,0 -0.65,-0.39 -0.74,-0.57 -0.18,-0.34 -0.31,-0.93 -0.31,-0.96 0,-0.1 0.1,-0.1 0.12,-0.1 0.1,0 0.11,0.01 0.17,0.22 0.17,0.71 0.37,1.19 0.73,1.19 0.17,0 0.31,-0.08 0.31,-0.46 0,-0.21 -0.03,-0.32 -0.16,-0.83 z"
   inkscape:connector-curvature="0"
   style="fill:#000000;stroke-width:0" />
</g>    <g
       style="font-style:normal;font-variant:normal;font-weight:normal;font-stretch:normal;letter-spacing:normal;word-spacing:normal;text-anchor:start;fill:none;fill-opacity:1;fill-rule:evenodd;stroke:#000000;stroke-linecap:butt;stroke-linejoin:miter;stroke-miterlimit:10.43299961;stroke-dasharray:none;stroke-dashoffset:0;stroke-opacity:1"
       id="g2687"
       transform="matrix(0.23844043,0,0,-0.23844043,50.674882,227.27392)"
       xml:space="preserve"
       stroke-miterlimit="10.433"
       font-style="normal"
       font-variant="normal"
       font-weight="normal"
       font-stretch="normal"
       font-size-adjust="none"
       letter-spacing="normal"
       word-spacing="normal"
       ns0:text="$\\theta$\n"
       ns0:preamble="">
<path
   style="fill:#000000;stroke-width:0"
   inkscape:connector-curvature="0"
   d="m 227.97,662.2 v 0.07 0.06 l -0.01,0.07 v 0.08 l -0.01,0.07 v 0.08 l -0.01,0.08 -0.01,0.09 -0.02,0.08 -0.01,0.08 -0.02,0.09 -0.02,0.08 -0.02,0.09 -0.03,0.08 -0.03,0.09 -0.03,0.08 -0.03,0.08 -0.04,0.07 -0.04,0.08 -0.04,0.07 -0.05,0.06 -0.05,0.07 -0.05,0.06 -0.06,0.05 -0.06,0.05 -0.04,0.02 -0.03,0.03 -0.03,0.02 -0.04,0.01 -0.04,0.02 -0.03,0.02 -0.04,0.01 -0.04,0.01 -0.04,0.01 -0.05,0.01 -0.04,0.01 h -0.04 l -0.05,0.01 h -0.05 l -0.01,-0.22 c 0.49,0 0.55,-0.64 0.55,-1.2 0,-0.49 -0.08,-1 -0.32,-1.98 h -2.08 c 0.17,0.64 0.37,1.43 0.77,2.14 0.27,0.48 0.63,1.04 1.08,1.04 l 0.01,0.22 c -1.38,0 -2.92,-2.8 -2.92,-5.08 0,-0.93 0.29,-2.03 1.2,-2.03 v 0.21 c -0.33,0 -0.54,0.29 -0.54,1.22 0,0.41 0.06,0.99 0.32,1.96 h 2.07 c -0.11,-0.45 -0.32,-1.3 -0.7,-2.01 -0.35,-0.68 -0.72,-1.17 -1.15,-1.17 v -0.21 c 1.4,0 2.92,2.85 2.92,5.07 z"
   id="path2685" />
</g>    <g
       ns0:preamble=""
       ns0:text="shell\n\n\nboundary\n"
       word-spacing="normal"
       letter-spacing="normal"
       font-size-adjust="none"
       font-stretch="normal"
       font-weight="normal"
       font-variant="normal"
       font-style="normal"
       stroke-miterlimit="10.433"
       xml:space="preserve"
       transform="matrix(0.18993799,0,0,-0.18993799,72.380772,210.55673)"
       id="g2803"
       style="font-style:normal;font-variant:normal;font-weight:normal;font-stretch:normal;letter-spacing:normal;word-spacing:normal;text-anchor:start;fill:none;fill-opacity:1;fill-rule:evenodd;stroke:#000000;stroke-linecap:butt;stroke-linejoin:miter;stroke-miterlimit:10.43299961;stroke-dasharray:none;stroke-dashoffset:0;stroke-opacity:1">
<path
   id="path2777"
   d="m 225.51,659.16 h 0.02 l 0.02,-0.01 h 0.03 l 0.03,-0.01 0.04,-0.01 0.03,-0.01 0.04,-0.01 0.04,-0.01 0.04,-0.01 0.04,-0.01 0.05,-0.02 0.04,-0.02 0.04,-0.01 0.05,-0.03 0.04,-0.02 0.05,-0.02 0.04,-0.03 0.04,-0.03 0.04,-0.03 0.04,-0.03 0.04,-0.03 0.04,-0.04 0.03,-0.04 0.03,-0.04 0.03,-0.05 0.01,-0.02 0.02,-0.03 0.01,-0.02 0.01,-0.03 0.01,-0.02 0.01,-0.03 0.01,-0.03 v -0.02 l 0.01,-0.03 v -0.03 l 0.01,-0.03 v -0.04 -0.03 -0.03 c 0,-0.51 -0.35,-0.91 -1.12,-0.91 -0.84,0 -1.2,0.57 -1.39,1.42 -0.03,0.12 -0.04,0.16 -0.14,0.16 -0.13,0 -0.13,-0.07 -0.13,-0.25 v -1.31 c 0,-0.16 0,-0.23 0.11,-0.23 0.05,0 0.06,0.01 0.25,0.19 0.02,0.02 0.02,0.04 0.2,0.23 0.44,-0.41 0.89,-0.42 1.1,-0.42 1.14,0 1.6,0.66 1.6,1.38 0,0.52 -0.3,0.82 -0.42,0.94 -0.33,0.32 -0.72,0.4 -1.13,0.48 -0.56,0.11 -1.23,0.23 -1.23,0.81 0,0.35 0.26,0.76 1.12,0.76 1.09,0 1.14,-0.9 1.16,-1.21 0.01,-0.08 0.1,-0.08 0.12,-0.08 0.13,0 0.13,0.05 0.13,0.23 v 1.01 c 0,0.17 0,0.23 -0.11,0.23 -0.05,0 -0.07,0 -0.2,-0.11 -0.03,-0.04 -0.13,-0.13 -0.17,-0.16 -0.38,0.27 -0.78,0.27 -0.93,0.27 -1.22,0 -1.6,-0.66 -1.6,-1.22 0,-0.34 0.16,-0.62 0.43,-0.84 0.32,-0.26 0.6,-0.32 1.32,-0.46 z"
   inkscape:connector-curvature="0"
   style="fill:#000000;stroke-width:0" />
<path
   id="path2779"
   d="m 228.46,657.99 v -0.02 -0.02 -0.04 l -0.01,-0.03 v -0.04 -0.03 l -0.01,-0.03 v -0.02 l -0.01,-0.03 -0.01,-0.02 -0.01,-0.02 -0.01,-0.02 -0.01,-0.02 -0.02,-0.01 -0.01,-0.02 -0.02,-0.01 -0.02,-0.01 -0.02,-0.01 -0.03,-0.01 -0.02,-0.01 h -0.03 l -0.03,-0.01 h -0.03 l -0.04,-0.01 h -0.02 -0.02 -0.02 -0.02 -0.02 -0.02 -0.02 l -0.03,-0.01 h -0.02 -0.02 -0.03 -0.03 -0.02 -0.03 -0.03 -0.03 -0.03 -0.03 v -0.31 c 0.35,0.01 0.86,0.04 1.13,0.04 0.26,0 0.78,-0.03 1.11,-0.04 v 0.31 c -0.66,0 -0.77,0 -0.77,0.45 v 1.83 c 0,1.03 0.7,1.59 1.34,1.59 0.63,0 0.74,-0.54 0.74,-1.11 v -2.31 c 0,-0.45 -0.11,-0.45 -0.78,-0.45 v -0.31 c 0.35,0.01 0.86,0.04 1.13,0.04 0.26,0 0.78,-0.03 1.12,-0.04 v 0.31 c -0.52,0 -0.77,0 -0.78,0.3 v 1.9 c 0,0.85 0,1.16 -0.31,1.52 -0.14,0.17 -0.47,0.37 -1.05,0.37 -0.83,0 -1.27,-0.6 -1.44,-0.98 v 3.48 l -1.44,-0.11 v -0.31 c 0.7,0 0.78,-0.07 0.78,-0.55 z"
   inkscape:connector-curvature="0"
   style="fill:#000000;stroke-width:0" />
<path
   id="path2781"
   d="m 234,659.53 0.01,0.21 c 0.06,1.48 0.9,1.73 1.24,1.73 1.03,0 1.13,-1.34 1.13,-1.73 h -2.37 L 234,659.53 h 2.79 c 0.22,0 0.25,0 0.25,0.21 0,0.98 -0.54,1.94 -1.79,1.94 -1.16,0 -2.07,-1.02 -2.07,-2.26 0,-1.33 1.04,-2.29 2.19,-2.29 1.22,0 1.67,1.1 1.67,1.29 0,0.1 -0.08,0.12 -0.14,0.12 -0.08,0 -0.1,-0.06 -0.12,-0.14 -0.35,-1.03 -1.25,-1.03 -1.35,-1.03 -0.5,0 -0.9,0.3 -1.13,0.67 -0.3,0.48 -0.3,1.13 -0.3,1.49 z"
   inkscape:connector-curvature="0"
   style="fill:#000000;stroke-width:0" />
<path
   id="path2783"
   d="m 239.09,664.13 -1.44,-0.11 v -0.31 c 0.7,0 0.78,-0.07 0.78,-0.55 v -5.17 c 0,-0.45 -0.11,-0.45 -0.78,-0.45 v -0.31 c 0.33,0.01 0.86,0.04 1.11,0.04 0.25,0 0.74,-0.03 1.11,-0.04 v 0.31 c -0.67,0 -0.78,0 -0.78,0.45 z"
   inkscape:connector-curvature="0"
   style="fill:#000000;stroke-width:0" />
<path
   id="path2785"
   d="m 241.86,664.13 -1.44,-0.11 v -0.31 c 0.7,0 0.78,-0.07 0.78,-0.55 v -5.17 c 0,-0.45 -0.11,-0.45 -0.78,-0.45 v -0.31 c 0.33,0.01 0.86,0.04 1.11,0.04 0.25,0 0.73,-0.03 1.1,-0.04 v 0.31 c -0.66,0 -0.77,0 -0.77,0.45 z"
   inkscape:connector-curvature="0"
   style="fill:#000000;stroke-width:0" />
<path
   id="path2787"
   d="m 240.09,649.03 v 3.14 l -1.44,-0.1 v -0.31 c 0.7,0 0.78,-0.07 0.78,-0.56 v -5.92 h 0.25 c 0.01,0.01 0.09,0.15 0.36,0.62 0.15,-0.23 0.57,-0.73 1.31,-0.73 l -0.04,0.22 c -0.45,0 -0.81,0.24 -1.05,0.6 -0.14,0.21 -0.14,0.24 -0.14,0.42 v 0 2.05 c 0,0.19 0,0.2 0.11,0.36 0.39,0.55 0.94,0.63 1.18,0.63 0.45,0 0.8,-0.26 1.05,-0.63 0.25,-0.41 0.28,-0.98 0.28,-1.38 0,-0.37 -0.02,-0.97 -0.31,-1.41 -0.2,-0.31 -0.58,-0.64 -1.12,-0.64 l 0.04,-0.22 c 1.18,0 2.22,0.97 2.22,2.26 0,1.26 -0.98,2.24 -2.11,2.24 -0.78,0 -1.21,-0.47 -1.37,-0.64 z"
   inkscape:connector-curvature="0"
   style="fill:#000000;stroke-width:0" />
<path
   id="path2789"
   d="m 248.89,647.41 -0.01,0.11 v 0.12 l -0.02,0.12 -0.02,0.11 -0.02,0.11 -0.03,0.11 -0.04,0.11 -0.04,0.11 -0.04,0.1 -0.05,0.1 -0.05,0.1 -0.06,0.09 -0.06,0.09 -0.07,0.09 -0.07,0.08 -0.07,0.08 -0.08,0.08 -0.08,0.08 -0.08,0.06 -0.09,0.07 -0.09,0.06 -0.09,0.06 -0.1,0.05 -0.09,0.05 -0.1,0.04 -0.11,0.03 -0.1,0.04 -0.11,0.02 -0.1,0.02 -0.11,0.02 -0.11,0.01 h -0.12 l -0.01,-0.22 c 0.44,0 0.87,-0.22 1.13,-0.64 0.26,-0.43 0.26,-1.01 0.26,-1.39 0,-0.35 0,-0.89 -0.22,-1.33 -0.22,-0.44 -0.66,-0.73 -1.16,-0.73 v 0 c -0.43,0 -0.86,0.21 -1.13,0.67 -0.25,0.43 -0.25,1.04 -0.25,1.39 0,0.39 0,0.93 0.24,1.37 0.27,0.45 0.73,0.66 1.13,0.66 l 0.01,0.22 c -1.24,0 -2.21,-1.08 -2.21,-2.32 0,-1.29 1.04,-2.24 2.2,-2.24 1.21,0 2.22,0.97 2.22,2.24 z"
   inkscape:connector-curvature="0"
   style="fill:#000000;stroke-width:0" />
<path
   id="path2791"
   d="m 253.07,646.07 v -0.9 l 1.44,0.11 v 0.31 c -0.7,0 -0.78,0.07 -0.78,0.55 v 3.53 l -1.47,-0.11 v -0.31 c 0.7,0 0.78,-0.07 0.78,-0.55 v -1.77 c 0,-0.86 -0.48,-1.54 -1.21,-1.54 -0.83,0 -0.87,0.47 -0.87,0.98 v 3.3 l -1.47,-0.11 v -0.31 c 0.78,0 0.78,-0.03 0.78,-0.91 v -1.49 c 0,-0.77 0,-1.68 1.51,-1.68 0.56,0 1,0.28 1.29,0.9 z"
   inkscape:connector-curvature="0"
   style="fill:#000000;stroke-width:0" />
<path
   id="path2793"
   d="m 255.8,648.7 v -2.67 c 0,-0.44 -0.11,-0.44 -0.77,-0.44 v -0.31 c 0.35,0.01 0.85,0.03 1.12,0.03 0.26,0 0.78,-0.02 1.12,-0.03 v 0.31 c -0.67,0 -0.78,0 -0.78,0.44 v 1.83 c 0,1.04 0.71,1.59 1.35,1.59 0.63,0 0.74,-0.53 0.74,-1.1 v -2.32 c 0,-0.44 -0.11,-0.44 -0.78,-0.44 v -0.31 c 0.35,0.01 0.86,0.03 1.12,0.03 0.26,0 0.78,-0.02 1.12,-0.03 v 0.31 c -0.52,0 -0.77,0 -0.78,0.3 v 1.89 c 0,0.86 0,1.17 -0.31,1.52 -0.13,0.17 -0.46,0.37 -1.04,0.37 -0.73,0 -1.2,-0.43 -1.48,-1.04 v 1.04 l -1.4,-0.11 v -0.31 c 0.69,0 0.77,-0.07 0.77,-0.55 z"
   inkscape:connector-curvature="0"
   style="fill:#000000;stroke-width:0" />
<path
   id="path2795"
   d="m 264.03,645.83 v -0.66 l 1.47,0.11 v 0.31 c -0.7,0 -0.78,0.07 -0.78,0.55 v 6.03 l -1.44,-0.1 v -0.31 c 0.7,0 0.78,-0.07 0.78,-0.56 v -2.15 c -0.29,0.36 -0.72,0.62 -1.26,0.62 l 0.05,-0.22 c 0.34,0 0.76,-0.15 1.07,-0.59 0.11,-0.17 0.11,-0.19 0.11,-0.37 v 0 -2.04 c 0,-0.18 0,-0.2 -0.11,-0.36 -0.3,-0.48 -0.75,-0.7 -1.18,-0.7 -0.44,0 -0.8,0.26 -1.04,0.64 -0.26,0.4 -0.29,0.97 -0.29,1.38 0,0.36 0.02,0.96 0.31,1.41 0.21,0.3 0.59,0.63 1.13,0.63 l -0.05,0.22 c -1.17,0 -2.22,-0.97 -2.22,-2.25 0,-1.27 0.98,-2.25 2.12,-2.25 0.63,0 1.08,0.34 1.33,0.66 z"
   inkscape:connector-curvature="0"
   style="fill:#000000;stroke-width:0" />
<path
   id="path2797"
   d="M 269.1,646.03 V 646 l 0.01,-0.04 0.01,-0.04 v -0.03 l 0.01,-0.04 0.01,-0.04 0.02,-0.03 0.01,-0.04 0.02,-0.04 0.01,-0.03 0.02,-0.03 0.02,-0.04 0.02,-0.03 0.02,-0.03 0.02,-0.03 0.03,-0.03 0.02,-0.03 0.03,-0.03 0.03,-0.02 0.02,-0.03 0.03,-0.02 0.04,-0.02 0.03,-0.02 0.03,-0.02 0.04,-0.01 0.03,-0.02 0.04,-0.01 0.04,-0.01 0.04,-0.01 0.04,-0.01 h 0.04 0.05 c 0.2,0 0.81,0.14 0.81,0.94 v 0.56 h -0.25 v -0.56 c 0,-0.57 -0.24,-0.63 -0.36,-0.63 -0.32,0 -0.36,0.44 -0.36,0.5 v 1.98 c 0,0.42 0,0.81 -0.36,1.17 -0.39,0.39 -0.89,0.55 -1.37,0.55 -0.82,0 -1.51,-0.47 -1.51,-1.12 0,-0.3 0.2,-0.47 0.46,-0.47 0.28,0 0.46,0.2 0.46,0.46 0,0.12 -0.05,0.44 -0.51,0.45 0.27,0.35 0.76,0.46 1.08,0.46 0.49,0 1.06,-0.39 1.06,-1.27 v -0.37 -0.21 -0.99 c 0,-0.94 -0.72,-1.28 -1.17,-1.28 -0.49,0 -0.9,0.35 -0.9,0.84 0,0.55 0.42,1.37 2.07,1.43 v 0 0.21 c -0.51,-0.03 -1.21,-0.06 -1.84,-0.35 -0.74,-0.34 -0.99,-0.86 -0.99,-1.3 0,-0.8 0.96,-1.05 1.59,-1.05 0.66,0 1.12,0.4 1.31,0.86 z"
   inkscape:connector-curvature="0"
   style="fill:#000000;stroke-width:0" />
<path
   id="path2799"
   d="m 272.42,648.58 v 1.09 l -1.38,-0.11 v -0.31 c 0.7,0 0.78,-0.07 0.78,-0.55 v -2.67 c 0,-0.44 -0.11,-0.44 -0.78,-0.44 v -0.31 c 0.39,0.01 0.85,0.03 1.13,0.03 0.4,0 0.87,0 1.27,-0.03 v 0.31 h -0.21 c -0.74,0 -0.76,0.11 -0.76,0.46 v 1.54 c 0,0.98 0.42,1.86 1.18,1.86 0.07,0 0.09,0 0.11,-0.01 -0.03,-0.01 -0.23,-0.13 -0.23,-0.39 0,-0.27 0.21,-0.42 0.43,-0.42 0.18,0 0.43,0.12 0.43,0.44 0,0.31 -0.31,0.6 -0.74,0.6 -0.73,0 -1.09,-0.66 -1.23,-1.09 z"
   inkscape:connector-curvature="0"
   style="fill:#000000;stroke-width:0" />
<path
   id="path2801"
   d="m 278.8,648.62 0.01,0.03 0.01,0.02 0.02,0.03 0.01,0.03 0.01,0.02 0.02,0.03 0.01,0.02 0.02,0.03 0.03,0.04 0.03,0.04 0.03,0.04 0.03,0.03 0.03,0.03 0.04,0.03 0.03,0.03 0.03,0.02 0.04,0.03 0.03,0.02 0.04,0.01 0.03,0.02 0.03,0.02 0.04,0.01 0.03,0.01 0.03,0.01 0.03,0.01 h 0.03 l 0.03,0.01 h 0.03 l 0.03,0.01 h 0.02 0.03 0.02 0.02 0.02 0.02 0.02 v 0.31 c -0.23,-0.02 -0.52,-0.03 -0.75,-0.03 -0.18,0 -0.65,0.02 -0.87,0.03 v -0.31 c 0.31,-0.01 0.47,-0.17 0.47,-0.42 0,-0.1 -0.01,-0.12 -0.06,-0.24 l -1.01,-2.45 -1.1,2.68 c -0.04,0.1 -0.06,0.14 -0.06,0.17 0,0.26 0.36,0.26 0.55,0.26 v 0.31 c -0.26,-0.01 -0.91,-0.03 -1.08,-0.03 -0.27,0 -0.67,0.01 -0.97,0.03 v -0.31 c 0.48,0 0.67,0 0.81,-0.34 l 1.49,-3.63 c -0.05,-0.13 -0.19,-0.46 -0.25,-0.59 -0.22,-0.54 -0.49,-1.23 -1.13,-1.23 -0.05,0 -0.28,0 -0.47,0.18 0.31,0.04 0.39,0.26 0.39,0.42 0,0.26 -0.19,0.41 -0.42,0.41 -0.2,0 -0.42,-0.12 -0.42,-0.42 0,-0.45 0.42,-0.81 0.92,-0.81 0.63,0 1.03,0.57 1.27,1.14 z"
   inkscape:connector-curvature="0"
   style="fill:#000000;stroke-width:0" />
</g>  </g>
</svg>
