<?xml version="1.0" encoding="UTF-8" standalone="no"?>
<!-- Created with Inkscape (http://www.inkscape.org/) -->

<svg
   xmlns:ns0="http://www.iki.fi/pav/software/textext/"
   xmlns:dc="http://purl.org/dc/elements/1.1/"
   xmlns:cc="http://creativecommons.org/ns#"
   xmlns:rdf="http://www.w3.org/1999/02/22-rdf-syntax-ns#"
   xmlns:svg="http://www.w3.org/2000/svg"
   xmlns="http://www.w3.org/2000/svg"
   xmlns:sodipodi="http://sodipodi.sourceforge.net/DTD/sodipodi-0.dtd"
   xmlns:inkscape="http://www.inkscape.org/namespaces/inkscape"
   width="121.99536mm"
   height="121.99536mm"
   viewBox="0 0 121.99536 121.99536"
   version="1.1"
   id="svg8"
   inkscape:version="0.92.3 (2405546, 2018-03-11)"
   sodipodi:docname="d3.svg">
  <sodipodi:namedview
     id="base"
     pagecolor="#ffffff"
     bordercolor="#666666"
     borderopacity="1.0"
     inkscape:pageopacity="0.0"
     inkscape:pageshadow="2"
     inkscape:zoom="1.4"
     inkscape:cx="437.03661"
     inkscape:cy="264.60769"
     inkscape:document-units="mm"
     inkscape:current-layer="layer1"
     showgrid="false"
     inkscape:snap-global="false"
     fit-margin-top="0"
     fit-margin-left="0"
     fit-margin-right="0"
     fit-margin-bottom="0"
     inkscape:window-width="1920"
     inkscape:window-height="1013"
     inkscape:window-x="-9"
     inkscape:window-y="1341"
     inkscape:window-maximized="1" />
  <defs
     id="defs2" />
  <metadata
     id="metadata5">
    <rdf:RDF>
      <cc:Work
         rdf:about="">
        <dc:format>image/svg+xml</dc:format>
        <dc:type
           rdf:resource="http://purl.org/dc/dcmitype/StillImage" />
        <dc:title />
      </cc:Work>
    </rdf:RDF>
  </metadata>
  <g
     inkscape:label="Layer 1"
     inkscape:groupmode="layer"
     id="layer1"
     transform="translate(-43.701729,-27.170472)">
    <circle
       style="opacity:1;fill:#ffffff;fill-opacity:1;stroke:#000000;stroke-width:0.66499996;stroke-miterlimit:4;stroke-dasharray:none;stroke-dashoffset:0;stroke-opacity:1"
       id="path819"
       cx="104.69941"
       cy="88.168152"
       r="60.66518" />
    <circle
       style="opacity:1;fill:#ffffff;fill-opacity:1;stroke:#000000;stroke-width:0.66499996;stroke-miterlimit:4;stroke-dasharray:none;stroke-dashoffset:0;stroke-opacity:1"
       id="path815"
       cx="104.32142"
       cy="89.302078"
       r="34.017857" />
    <path
       style="fill:none;stroke:#000000;stroke-width:0.44600001;stroke-linecap:butt;stroke-linejoin:miter;stroke-miterlimit:4;stroke-dasharray:none;stroke-opacity:1"
       d="m 105.81259,54.997893 8.99813,-17.097305"
       id="path821"
       inkscape:connector-curvature="0" />
    <path
       style="fill:none;stroke:#000000;stroke-width:0.26499999;stroke-linecap:butt;stroke-linejoin:miter;stroke-miterlimit:4;stroke-dasharray:1.59, 0.265;stroke-dashoffset:0;stroke-opacity:1"
       d="M 105.64434,55.095237 C 116.41667,36.196428 131.91369,33.550595 131.91369,33.550595"
       id="path825"
       inkscape:connector-curvature="0" />
    <path
       style="fill:none;stroke:#000000;stroke-width:0.46200001;stroke-linecap:butt;stroke-linejoin:miter;stroke-miterlimit:4;stroke-dasharray:none;stroke-opacity:1"
       d="M 105.56399,40.310249 152.40475,28.357778"
       id="path827"
       inkscape:connector-curvature="0" />
    <path
       style="fill:none;stroke:#000000;stroke-width:0.465;stroke-linecap:butt;stroke-linejoin:miter;stroke-miterlimit:4;stroke-dasharray:none;stroke-opacity:1"
       d="m 105.56399,40.310249 c 0,0 0,0 -0.58111,48.802845 l 26.93081,-55.562499"
       id="path831"
       inkscape:connector-curvature="0" />
    <path
       style="fill:none;stroke:#000000;stroke-width:0.26458332px;stroke-linecap:butt;stroke-linejoin:miter;stroke-opacity:1"
       d="m 108.10119,82.97098 c -1.6064,-1.039434 -2.83482,-0.755951 -2.83482,-0.755951"
       id="path833"
       inkscape:connector-curvature="0" />
    <path
       style="fill:none;stroke:#000000;stroke-width:0.26458332px;stroke-linecap:butt;stroke-linejoin:miter;stroke-opacity:1"
       d="m 112.16443,38.936755 c 0.37798,1.228423 1.32292,1.41741 1.32292,1.41741"
       id="path835"
       inkscape:connector-curvature="0" />
    <path
       style="fill:none;stroke:#000000;stroke-width:0.26458332px;stroke-linecap:butt;stroke-linejoin:miter;stroke-opacity:1"
       d="m 105.54985,51.787946 c 0.85045,-0.09449 1.6064,0.472469 1.6064,0.472469 v 0.377977"
       id="path837"
       inkscape:connector-curvature="0" />
    <path
       style="fill:none;stroke:#000000;stroke-width:0.26458332px;stroke-linecap:butt;stroke-linejoin:miter;stroke-opacity:1"
       d="m 129.17336,34.590029 c 0.0945,1.511903 1.32292,1.322917 1.32292,1.322917"
       id="path839"
       inkscape:connector-curvature="0" />
    <path
       style="fill:none;stroke:#000000;stroke-width:0.065;stroke-linecap:butt;stroke-linejoin:miter;stroke-miterlimit:4;stroke-dasharray:none;stroke-opacity:1"
       d="m 128.70089,36.574404 c 1.98438,3.590774 2.83482,3.590774 2.83482,3.590774"
       id="path843"
       inkscape:connector-curvature="0" />
    <path
       style="fill:none;stroke:#000000;stroke-width:0.065;stroke-linecap:butt;stroke-linejoin:miter;stroke-miterlimit:4;stroke-dasharray:none;stroke-opacity:1"
       d="m 111.78646,40.543154 c -2.45685,-2.645833 -2.45685,-4.724702 -2.45685,-4.724702 v 0"
       id="path847"
       inkscape:connector-curvature="0" />
    <path
       style="fill:none;stroke:#000000;stroke-width:0.065;stroke-linecap:butt;stroke-linejoin:miter;stroke-miterlimit:4;stroke-dasharray:none;stroke-opacity:1"
       d="M 106.68378,50.559522 C 104.6994,48.575147 103.1875,48.480654 103.1875,48.480654"
       id="path849"
       inkscape:connector-curvature="0" />
    <g
       id="content"
       transform="matrix(0.54812979,0,0,-0.54812979,-16.639031,441.53425)"
       xml:space="preserve"
       stroke-miterlimit="10.433"
       font-style="normal"
       font-variant="normal"
       font-weight="normal"
       font-stretch="normal"
       font-size-adjust="none"
       letter-spacing="normal"
       word-spacing="normal"
       ns0:text="$\\theta$\n"
       ns0:preamble=""
       style="font-style:normal;font-variant:normal;font-weight:normal;font-stretch:normal;letter-spacing:normal;word-spacing:normal;text-anchor:start;fill:none;fill-opacity:1;fill-rule:evenodd;stroke:#000000;stroke-linecap:butt;stroke-linejoin:miter;stroke-miterlimit:10.43299961;stroke-dasharray:none;stroke-dashoffset:0;stroke-opacity:1">
<path
   d="m 227.97,662.2 v 0.07 0.06 l -0.01,0.07 v 0.08 l -0.01,0.07 v 0.08 l -0.01,0.08 -0.01,0.09 -0.02,0.08 -0.01,0.08 -0.02,0.09 -0.02,0.08 -0.02,0.09 -0.03,0.08 -0.03,0.09 -0.03,0.08 -0.03,0.08 -0.04,0.07 -0.04,0.08 -0.04,0.07 -0.05,0.06 -0.05,0.07 -0.05,0.06 -0.06,0.05 -0.06,0.05 -0.04,0.02 -0.03,0.03 -0.03,0.02 -0.04,0.01 -0.04,0.02 -0.03,0.02 -0.04,0.01 -0.04,0.01 -0.04,0.01 -0.05,0.01 -0.04,0.01 h -0.04 l -0.05,0.01 h -0.05 l -0.01,-0.22 c 0.49,0 0.55,-0.64 0.55,-1.2 0,-0.49 -0.08,-1 -0.32,-1.98 h -2.08 c 0.17,0.64 0.37,1.43 0.77,2.14 0.27,0.48 0.63,1.04 1.08,1.04 l 0.01,0.22 c -1.38,0 -2.92,-2.8 -2.92,-5.08 0,-0.93 0.29,-2.03 1.2,-2.03 v 0.21 c -0.33,0 -0.54,0.29 -0.54,1.22 0,0.41 0.06,0.99 0.32,1.96 h 2.07 c -0.11,-0.45 -0.32,-1.3 -0.7,-2.01 -0.35,-0.68 -0.72,-1.17 -1.15,-1.17 v -0.21 c 1.4,0 2.92,2.85 2.92,5.07 z"
   id="path4357"
   inkscape:connector-curvature="0"
   style="fill:#000000;stroke-width:0" />
</g>    <g
       ns0:preamble=""
       ns0:text="$\\frac{\\pi}{2}-\\phi_0$\n"
       word-spacing="normal"
       letter-spacing="normal"
       font-size-adjust="none"
       font-stretch="normal"
       font-weight="normal"
       font-variant="normal"
       font-style="normal"
       stroke-miterlimit="10.433"
       xml:space="preserve"
       transform="matrix(0.39801095,0,0,-0.39801095,1.1816497,310.68444)"
       id="g4422"
       style="font-style:normal;font-variant:normal;font-weight:normal;font-stretch:normal;letter-spacing:normal;word-spacing:normal;text-anchor:start;fill:none;fill-opacity:1;fill-rule:evenodd;stroke:#000000;stroke-linecap:butt;stroke-linejoin:miter;stroke-miterlimit:10.43299961;stroke-dasharray:none;stroke-dashoffset:0;stroke-opacity:1">
<path
   id="path4410"
   d="m 226.8,663.68 h 0.83 c -0.1,-0.41 -0.25,-1.05 -0.25,-1.6 0,-0.28 0.03,-0.46 0.07,-0.62 0.12,-0.34 0.21,-0.37 0.32,-0.37 0.16,0 0.33,0.14 0.33,0.31 0,0.06 -0.02,0.08 -0.06,0.15 -0.13,0.26 -0.26,0.66 -0.26,1.23 0,0.13 0,0.41 0.1,0.9 h 0.87 c 0.13,0 0.18,0 0.26,0.06 0.1,0.07 0.12,0.18 0.12,0.21 0,0.21 -0.18,0.21 -0.3,0.21 h -2.64 c -0.28,0 -0.48,-0.07 -0.79,-0.36 -0.19,-0.16 -0.46,-0.53 -0.46,-0.6 0,-0.08 0.09,-0.08 0.12,-0.08 0.08,0 0.09,0.01 0.13,0.08 0.35,0.48 0.79,0.48 0.94,0.48 h 0.43 c -0.22,-0.76 -0.6,-1.58 -0.81,-2 -0.04,-0.09 -0.11,-0.24 -0.13,-0.27 -0.01,-0.02 -0.02,-0.05 -0.02,-0.1 0,-0.11 0.08,-0.22 0.25,-0.22 0.27,0 0.35,0.31 0.52,0.94 z"
   inkscape:connector-curvature="0"
   style="fill:#000000;stroke-width:0" />
<line
   id="line4412"
   y2="659.72998"
   x2="229.53999"
   y1="659.72998"
   x1="224.63"
   style="stroke-width:0.398" />
<path
   id="path4414"
   d="m 228.63,655.07 h -0.24 c -0.02,-0.16 -0.09,-0.57 -0.18,-0.64 -0.06,-0.04 -0.6,-0.04 -0.69,-0.04 h -1.29 c 0.73,0.65 0.98,0.84 1.4,1.17 0.52,0.41 1,0.84 1,1.5 0,0.84 -0.74,1.36 -1.64,1.36 -0.86,0 -1.45,-0.61 -1.45,-1.25 0,-0.35 0.3,-0.39 0.37,-0.39 0.17,0 0.37,0.12 0.37,0.37 0,0.13 -0.05,0.37 -0.41,0.37 0.21,0.49 0.69,0.65 1.02,0.65 0.7,0 1.06,-0.54 1.06,-1.11 0,-0.6 -0.43,-1.08 -0.66,-1.33 l -1.68,-1.66 c -0.07,-0.06 -0.07,-0.08 -0.07,-0.27 h 2.88 z"
   inkscape:connector-curvature="0"
   style="fill:#000000;stroke-width:0" />
<path
   id="path4416"
   d="m 239.52,659.52 h 0.03 0.03 0.03 0.02 0.01 0.02 l 0.01,0.01 h 0.02 0.01 0.02 l 0.01,0.01 h 0.01 0.02 l 0.01,0.01 0.01,0.01 h 0.01 l 0.01,0.01 0.01,0.01 h 0.01 l 0.01,0.01 0.01,0.01 v 0.01 0 l 0.01,0.01 v 0.01 0 0.01 l 0.01,0.01 v 0 0.01 0.01 0.01 0 l 0.01,0.01 v 0.01 0.01 0.01 c 0,0.2 -0.18,0.2 -0.35,0.2 h -5.4 c -0.17,0 -0.35,0 -0.35,-0.2 0,-0.2 0.18,-0.2 0.35,-0.2 z"
   inkscape:connector-curvature="0"
   style="fill:#000000;stroke-width:0" />
<path
   id="path4418"
   d="m 247.27,663.89 v 0 0 0 0.01 0 0 0 0 0.01 0 0 0.01 0 0.01 l 0.01,0.01 v 0 0.01 0 0.01 0.02 h 0.01 v 0.01 0 0.01 0 0.01 0 0.01 h 0.01 v 0 0 0 0 0.01 0 0 0 0 0 c 0,0.01 0,0.1 -0.12,0.1 -0.1,0 -0.11,-0.03 -0.15,-0.2 l -0.58,-2.29 c -1.59,-0.05 -3.05,-1.37 -3.05,-2.73 0,-0.94 0.7,-1.73 1.91,-1.79 l 0.05,0.21 c -0.6,0.03 -1.31,0.38 -1.31,1.38 0,1.19 0.85,2.58 2.34,2.71 l -1.03,-4.09 -0.05,-0.21 c -0.08,-0.31 -0.15,-0.63 -0.23,-0.94 -0.12,-0.46 -0.22,-0.84 -0.22,-0.87 0,-0.1 0.07,-0.11 0.12,-0.11 0.05,0 0.07,0.01 0.1,0.04 0.02,0.02 0.08,0.26 0.11,0.4 l 0.38,1.48 0.05,0.21 1.03,4.09 c 0.76,-0.04 1.33,-0.5 1.33,-1.37 0,-1.18 -0.86,-2.6 -2.36,-2.72 l -0.05,-0.21 c 1.61,0.04 3.05,1.39 3.05,2.72 0,0.78 -0.53,1.7 -1.91,1.8 z"
   inkscape:connector-curvature="0"
   style="fill:#000000;stroke-width:0" />
<path
   id="path4420"
   d="m 252.45,657.96 v 0.14 0.14 l -0.01,0.13 -0.01,0.12 -0.01,0.13 -0.01,0.12 -0.02,0.11 -0.02,0.11 -0.03,0.11 -0.03,0.11 -0.03,0.1 -0.04,0.1 -0.04,0.1 -0.05,0.09 -0.05,0.1 -0.03,0.04 -0.03,0.05 c -0.22,0.32 -0.65,0.6 -1.21,0.6 v -0.2 c 0.38,0 0.74,-0.23 0.87,-0.63 0.11,-0.37 0.12,-0.87 0.12,-1.48 0,-0.52 0,-1.03 -0.09,-1.47 -0.14,-0.63 -0.62,-0.78 -0.9,-0.78 v 0 c -0.32,0 -0.75,0.18 -0.89,0.75 -0.09,0.42 -0.09,0.98 -0.09,1.5 0,0.51 0,1.04 0.1,1.42 0.15,0.55 0.59,0.69 0.88,0.69 v 0.2 c -1.62,0 -1.62,-1.9 -1.62,-2.4 0,-0.5 0,-2.36 1.62,-2.36 1.62,0 1.62,1.86 1.62,2.36 z"
   inkscape:connector-curvature="0"
   style="fill:#000000;stroke-width:0" />
</g>    <g
       id="g4490"
       transform="matrix(0.54102898,0,0,-0.54102898,-14.487142,390.23853)"
       xml:space="preserve"
       stroke-miterlimit="10.433"
       font-style="normal"
       font-variant="normal"
       font-weight="normal"
       font-stretch="normal"
       font-size-adjust="none"
       letter-spacing="normal"
       word-spacing="normal"
       ns0:text="$R$\n"
       ns0:preamble=""
       style="font-style:normal;font-variant:normal;font-weight:normal;font-stretch:normal;letter-spacing:normal;word-spacing:normal;text-anchor:start;fill:none;fill-opacity:1;fill-rule:evenodd;stroke:#000000;stroke-linecap:butt;stroke-linejoin:miter;stroke-miterlimit:10.43299961;stroke-dasharray:none;stroke-dashoffset:0;stroke-opacity:1">
<path
   d="m 228.61,660.61 0.09,0.02 0.1,0.03 0.09,0.03 0.1,0.03 0.1,0.03 0.09,0.03 0.1,0.04 0.1,0.04 0.09,0.05 0.09,0.04 0.09,0.05 0.09,0.05 0.09,0.05 0.09,0.06 0.08,0.06 0.08,0.06 0.08,0.06 0.07,0.06 0.08,0.07 0.06,0.07 0.07,0.07 0.06,0.07 0.05,0.08 0.05,0.08 0.05,0.08 0.03,0.08 0.04,0.08 0.03,0.09 0.02,0.09 0.02,0.09 0.01,0.09 v 0.09 c 0,0.85 -0.9,1.49 -2.2,1.49 h -2.84 c -0.2,0 -0.29,0 -0.29,-0.2 0,-0.11 0.09,-0.11 0.28,-0.11 0.01,0 0.21,0 0.38,-0.02 0.17,-0.02 0.26,-0.03 0.26,-0.16 0,-0.04 -0.01,-0.07 -0.04,-0.19 l -1.33,-5.33 c -0.1,-0.39 -0.12,-0.47 -0.91,-0.47 -0.18,0 -0.27,0 -0.27,-0.2 0,-0.11 0.12,-0.11 0.14,-0.11 0.28,0 0.98,0.04 1.26,0.04 0.28,0 0.98,-0.04 1.26,-0.04 0.08,0 0.2,0 0.2,0.2 0,0.11 -0.09,0.11 -0.28,0.11 -0.37,0 -0.65,0 -0.65,0.18 0,0.06 0.02,0.11 0.03,0.17 l 0.66,2.63 h 1.19 l -0.01,0.22 h -1.12 l 0.65,2.59 c 0.06,0.24 0.09,0.34 0.28,0.37 0.09,0.01 0.41,0.01 0.61,0.01 0.71,0 1.81,0 1.81,-0.98 0,-0.34 -0.16,-1.02 -0.55,-1.41 -0.25,-0.26 -0.78,-0.58 -1.68,-0.58 l 0.01,-0.22 c 0.91,0 1.09,-0.55 1.09,-0.9 0,-0.15 -0.08,-0.46 -0.14,-0.69 -0.07,-0.27 -0.16,-0.64 -0.16,-0.84 0,-1.07 1.19,-1.07 1.32,-1.07 0.85,0 1.2,1 1.2,1.14 0,0.12 -0.11,0.12 -0.12,0.12 -0.09,0 -0.11,-0.07 -0.13,-0.14 -0.25,-0.74 -0.68,-0.91 -0.91,-0.91 -0.32,0 -0.4,0.22 -0.4,0.61 0,0.31 0.06,0.82 0.11,1.13 0.01,0.14 0.03,0.33 0.03,0.47 0,0.77 -0.66,1.07 -0.93,1.17 z"
   id="path4488"
   inkscape:connector-curvature="0"
   style="fill:#000000;stroke-width:0" />
</g>    <g
       ns0:preamble=""
       ns0:text="$\\frac{\\pi}{2}-\\phi$\n"
       word-spacing="normal"
       letter-spacing="normal"
       font-size-adjust="none"
       font-stretch="normal"
       font-weight="normal"
       font-variant="normal"
       font-style="normal"
       stroke-miterlimit="10.433"
       xml:space="preserve"
       transform="matrix(0.39801095,0,0,-0.39801095,39.924211,304.82581)"
       id="g4570"
       style="font-style:normal;font-variant:normal;font-weight:normal;font-stretch:normal;letter-spacing:normal;word-spacing:normal;text-anchor:start;fill:none;fill-opacity:1;fill-rule:evenodd;stroke:#000000;stroke-linecap:butt;stroke-linejoin:miter;stroke-miterlimit:10.43299961;stroke-dasharray:none;stroke-dashoffset:0;stroke-opacity:1">
<path
   id="path4560"
   d="m 226.8,663.68 h 0.83 c -0.1,-0.41 -0.25,-1.05 -0.25,-1.6 0,-0.28 0.03,-0.46 0.07,-0.62 0.12,-0.34 0.21,-0.37 0.32,-0.37 0.16,0 0.33,0.14 0.33,0.31 0,0.06 -0.02,0.08 -0.06,0.15 -0.13,0.26 -0.26,0.66 -0.26,1.23 0,0.13 0,0.41 0.1,0.9 h 0.87 c 0.13,0 0.18,0 0.26,0.06 0.1,0.07 0.12,0.18 0.12,0.21 0,0.21 -0.18,0.21 -0.3,0.21 h -2.64 c -0.28,0 -0.48,-0.07 -0.79,-0.36 -0.19,-0.16 -0.46,-0.53 -0.46,-0.6 0,-0.08 0.09,-0.08 0.12,-0.08 0.08,0 0.09,0.01 0.13,0.08 0.35,0.48 0.79,0.48 0.94,0.48 h 0.43 c -0.22,-0.76 -0.6,-1.58 -0.81,-2 -0.04,-0.09 -0.11,-0.24 -0.13,-0.27 -0.01,-0.02 -0.02,-0.05 -0.02,-0.1 0,-0.11 0.08,-0.22 0.25,-0.22 0.27,0 0.35,0.31 0.52,0.94 z"
   inkscape:connector-curvature="0"
   style="fill:#000000;stroke-width:0" />
<line
   id="line4562"
   y2="659.72998"
   x2="229.53999"
   y1="659.72998"
   x1="224.63"
   style="stroke-width:0.398" />
<path
   id="path4564"
   d="m 228.63,655.07 h -0.24 c -0.02,-0.16 -0.09,-0.57 -0.18,-0.64 -0.06,-0.04 -0.6,-0.04 -0.69,-0.04 h -1.29 c 0.73,0.65 0.98,0.84 1.4,1.17 0.52,0.41 1,0.84 1,1.5 0,0.84 -0.74,1.36 -1.64,1.36 -0.86,0 -1.45,-0.61 -1.45,-1.25 0,-0.35 0.3,-0.39 0.37,-0.39 0.17,0 0.37,0.12 0.37,0.37 0,0.13 -0.05,0.37 -0.41,0.37 0.21,0.49 0.69,0.65 1.02,0.65 0.7,0 1.06,-0.54 1.06,-1.11 0,-0.6 -0.43,-1.08 -0.66,-1.33 l -1.68,-1.66 c -0.07,-0.06 -0.07,-0.08 -0.07,-0.27 h 2.88 z"
   inkscape:connector-curvature="0"
   style="fill:#000000;stroke-width:0" />
<path
   id="path4566"
   d="m 239.52,659.52 h 0.03 0.03 0.03 0.02 0.01 0.02 l 0.01,0.01 h 0.02 0.01 0.02 l 0.01,0.01 h 0.01 0.02 l 0.01,0.01 0.01,0.01 h 0.01 l 0.01,0.01 0.01,0.01 h 0.01 l 0.01,0.01 0.01,0.01 v 0.01 0 l 0.01,0.01 v 0.01 0 0.01 l 0.01,0.01 v 0 0.01 0.01 0.01 0 l 0.01,0.01 v 0.01 0.01 0.01 c 0,0.2 -0.18,0.2 -0.35,0.2 h -5.4 c -0.17,0 -0.35,0 -0.35,-0.2 0,-0.2 0.18,-0.2 0.35,-0.2 z"
   inkscape:connector-curvature="0"
   style="fill:#000000;stroke-width:0" />
<path
   id="path4568"
   d="m 247.27,663.89 v 0 0 0 0.01 0 0 0 0 0.01 0 0 0.01 0 0.01 l 0.01,0.01 v 0 0.01 0 0.01 0.02 h 0.01 v 0.01 0 0.01 0 0.01 0 0.01 h 0.01 v 0 0 0 0 0.01 0 0 0 0 0 c 0,0.01 0,0.1 -0.12,0.1 -0.1,0 -0.11,-0.03 -0.15,-0.2 l -0.58,-2.29 c -1.59,-0.05 -3.05,-1.37 -3.05,-2.73 0,-0.94 0.7,-1.73 1.91,-1.79 l 0.05,0.21 c -0.6,0.03 -1.31,0.38 -1.31,1.38 0,1.19 0.85,2.58 2.34,2.71 l -1.03,-4.09 -0.05,-0.21 c -0.08,-0.31 -0.15,-0.63 -0.23,-0.94 -0.12,-0.46 -0.22,-0.84 -0.22,-0.87 0,-0.1 0.07,-0.11 0.12,-0.11 0.05,0 0.07,0.01 0.1,0.04 0.02,0.02 0.08,0.26 0.11,0.4 l 0.38,1.48 0.05,0.21 1.03,4.09 c 0.76,-0.04 1.33,-0.5 1.33,-1.37 0,-1.18 -0.86,-2.6 -2.36,-2.72 l -0.05,-0.21 c 1.61,0.04 3.05,1.39 3.05,2.72 0,0.78 -0.53,1.7 -1.91,1.8 z"
   inkscape:connector-curvature="0"
   style="fill:#000000;stroke-width:0" />
</g>  </g>
</svg>
