<?xml version="1.0" encoding="UTF-8" standalone="no"?>
<!-- Created with Inkscape (http://www.inkscape.org/) -->

<svg
   xmlns:dc="http://purl.org/dc/elements/1.1/"
   xmlns:cc="http://creativecommons.org/ns#"
   xmlns:rdf="http://www.w3.org/1999/02/22-rdf-syntax-ns#"
   xmlns:svg="http://www.w3.org/2000/svg"
   xmlns="http://www.w3.org/2000/svg"
   xmlns:sodipodi="http://sodipodi.sourceforge.net/DTD/sodipodi-0.dtd"
   xmlns:inkscape="http://www.inkscape.org/namespaces/inkscape"
   width="136.46515mm"
   height="130.27483mm"
   viewBox="0 0 136.46515 130.27483"
   version="1.1"
   id="svg8"
   inkscape:version="0.92.3 (2405546, 2018-03-11)"
   sodipodi:docname="diagram.svg">
  <sodipodi:namedview
     id="base"
     pagecolor="#ffffff"
     bordercolor="#666666"
     borderopacity="1.0"
     inkscape:pageopacity="0.0"
     inkscape:pageshadow="2"
     inkscape:zoom="1.4"
     inkscape:cx="227.76095"
     inkscape:cy="249.22924"
     inkscape:document-units="mm"
     inkscape:current-layer="layer1"
     showgrid="false"
     inkscape:snap-global="false"
     inkscape:window-width="2400"
     inkscape:window-height="1284"
     inkscape:window-x="-8"
     inkscape:window-y="-9"
     inkscape:window-maximized="1"
     fit-margin-top="0"
     fit-margin-left="0"
     fit-margin-right="0"
     fit-margin-bottom="0" />
  <defs
     id="defs2"><marker
   inkscape:isstock="true"
   style="overflow:visible"
   id="marker1329"
   refX="0"
   refY="0"
   orient="auto"
   inkscape:stockid="Arrow1Mend">
  <path
     transform="matrix(-0.4,0,0,-0.4,-4,0)"
     style="fill:#000000;fill-opacity:1;fill-rule:evenodd;stroke:#000000;stroke-width:1.00000003pt;stroke-opacity:1"
     d="M 0,0 5,-5 -12.5,0 5,5 Z"
     id="path1327"
     inkscape:connector-curvature="0" />
</marker>
<marker
   inkscape:stockid="Arrow1Mend"
   orient="auto"
   refY="0"
   refX="0"
   id="marker1283"
   style="overflow:visible"
   inkscape:isstock="true"
   inkscape:collect="always">
  <path
     id="path1281"
     d="M 0,0 5,-5 -12.5,0 5,5 Z"
     style="fill:#000000;fill-opacity:1;fill-rule:evenodd;stroke:#000000;stroke-width:1.00000003pt;stroke-opacity:1"
     transform="matrix(-0.4,0,0,-0.4,-4,0)"
     inkscape:connector-curvature="0" />
</marker>
<marker
   inkscape:isstock="true"
   style="overflow:visible"
   id="marker1165"
   refX="0"
   refY="0"
   orient="auto"
   inkscape:stockid="Arrow1Mend"
   inkscape:collect="always">
  <path
     transform="matrix(-0.4,0,0,-0.4,-4,0)"
     style="fill:#000000;fill-opacity:1;fill-rule:evenodd;stroke:#000000;stroke-width:1.00000003pt;stroke-opacity:1"
     d="M 0,0 5,-5 -12.5,0 5,5 Z"
     id="path1163"
     inkscape:connector-curvature="0" />
</marker>
<marker
   inkscape:stockid="Arrow1Mend"
   orient="auto"
   refY="0"
   refX="0"
   id="Arrow1Mend"
   style="overflow:visible"
   inkscape:isstock="true"
   inkscape:collect="always">
  <path
     id="path830"
     d="M 0,0 5,-5 -12.5,0 5,5 Z"
     style="fill:#000000;fill-opacity:1;fill-rule:evenodd;stroke:#000000;stroke-width:1.00000003pt;stroke-opacity:1"
     transform="matrix(-0.4,0,0,-0.4,-4,0)"
     inkscape:connector-curvature="0" />
</marker>
<marker
   inkscape:isstock="true"
   style="overflow:visible"
   id="marker1105"
   refX="0"
   refY="0"
   orient="auto"
   inkscape:stockid="Arrow1Lend">
  <path
     transform="matrix(-0.8,0,0,-0.8,-10,0)"
     style="fill:#000000;fill-opacity:1;fill-rule:evenodd;stroke:#000000;stroke-width:1.00000003pt;stroke-opacity:1"
     d="M 0,0 5,-5 -12.5,0 5,5 Z"
     id="path1103"
     inkscape:connector-curvature="0" />
</marker>




</defs>
  <metadata
     id="metadata5">
    <rdf:RDF>
      <cc:Work
         rdf:about="">
        <dc:format>image/svg+xml</dc:format>
        <dc:type
           rdf:resource="http://purl.org/dc/dcmitype/StillImage" />
        <dc:title></dc:title>
      </cc:Work>
    </rdf:RDF>
  </metadata>
  <g
     inkscape:label="Layer 1"
     inkscape:groupmode="layer"
     id="layer1"
     transform="translate(-40.881493,-26.141409)">
    <circle
       style="opacity:1;fill:none;fill-opacity:1;stroke:#000000;stroke-width:0.40000001;stroke-miterlimit:4.64330006;stroke-dasharray:none;stroke-dashoffset:0;stroke-opacity:1"
       id="path815"
       cx="106.5069"
       cy="93.474251"
       r="56.260235" />
    <path
       style="fill:none;stroke:#000000;stroke-width:0.465;stroke-linecap:butt;stroke-linejoin:miter;stroke-miterlimit:4;stroke-dasharray:none;stroke-opacity:1;marker-end:url(#marker1165)"
       d="M 40.881493,94.115568 H 172.64537"
       id="path817"
       inkscape:connector-curvature="0" />
    <path
       style="fill:none;stroke:#000000;stroke-width:0.465;stroke-linecap:butt;stroke-linejoin:miter;stroke-miterlimit:4;stroke-dasharray:none;stroke-opacity:1;marker-end:url(#Arrow1Mend)"
       d="M 107.15897,156.41623 V 27.057776"
       id="path819"
       inkscape:connector-curvature="0" />
    <path
       style="fill:none;stroke:#000000;stroke-width:0.40000001;stroke-linecap:butt;stroke-linejoin:miter;stroke-miterlimit:4;stroke-dasharray:none;stroke-opacity:1"
       d="M 107.44235,132.36197 159.55991,73.829944"
       id="path1263"
       inkscape:connector-curvature="0" />
    <path
       style="fill:none;stroke:#000000;stroke-width:0.40000001;stroke-linecap:butt;stroke-linejoin:miter;stroke-miterlimit:4;stroke-dasharray:0.4, 0.8;stroke-dashoffset:0;stroke-opacity:1;marker-end:url(#marker1329)"
       d="M 45.46888,118.60414 169.56456,70.000832"
       id="path1265"
       inkscape:connector-curvature="0" />
    <path
       style="fill:none;stroke:#000000;stroke-width:0.40000001;stroke-linecap:butt;stroke-linejoin:miter;stroke-miterlimit:4;stroke-dasharray:none;stroke-opacity:1"
       d="M 159.55991,73.829944 60.870634,61.201458"
       id="path1267"
       inkscape:connector-curvature="0" />
    <path
       style="fill:none;stroke:#000000;stroke-width:0.26458332px;stroke-linecap:butt;stroke-linejoin:miter;stroke-opacity:1"
       d="m 153.58271,73.039599 c -0.13364,1.603616 0.4009,2.80633 0.4009,2.80633"
       id="path1269"
       inkscape:connector-curvature="0" />
    <path
       style="fill:none;stroke:#000000;stroke-width:0.26458332px;stroke-linecap:butt;stroke-linejoin:miter;stroke-opacity:1"
       d="m 153.14544,76.569455 c 0.80181,1.670437 1.80407,2.071338 1.80407,2.071338"
       id="path1271"
       inkscape:connector-curvature="0" />
    <path
       inkscape:connector-curvature="0"
       id="path1273"
       d="M 131.84046,155.69448 82.060061,32.066285"
       style="fill:none;stroke:#000000;stroke-width:0.40000001;stroke-linecap:butt;stroke-linejoin:miter;stroke-miterlimit:4;stroke-dasharray:0.4, 0.8;stroke-dashoffset:0;stroke-opacity:1;marker-end:url(#marker1283)" />
    <path
       style="fill:none;stroke:#000000;stroke-width:0.23723502px;stroke-linecap:butt;stroke-linejoin:miter;stroke-opacity:1"
       d="m 119.22024,89.367659 c 1.10245,2.661414 1.05722,4.870354 1.05722,4.870354"
       id="path1373"
       inkscape:connector-curvature="0" />
    <path
       id="path1398"
       d="m 173.72974,88.920697 0.01,-0.03 0.01,-0.03 v -0.03 l 0.01,-0.04 0.01,-0.04 0.02,-0.04 0.01,-0.04 0.01,-0.05 0.02,-0.04 0.02,-0.05 0.02,-0.05 0.02,-0.05 0.02,-0.05 0.02,-0.05 0.03,-0.05 0.03,-0.05 0.03,-0.05 0.03,-0.04 0.03,-0.05 0.04,-0.04 0.03,-0.05 0.04,-0.04 0.05,-0.04 0.04,-0.03 0.05,-0.03 0.04,-0.03 0.03,-0.01 0.03,-0.02 0.02,-0.01 0.03,-0.01 0.03,-0.01 h 0.03 l 0.02,-0.01 0.03,-0.01 h 0.03 0.04 l 0.03,-0.01 h 0.03 c 0.05,0 0.29,0 0.5,0.13 -0.28,0.05 -0.48,0.3 -0.48,0.54 0,0.16 0.11,0.35 0.38,0.35 0.22,0 0.54,-0.18 0.54,-0.58 0,-0.52 -0.59,-0.66 -0.93,-0.66 -0.58,0 -0.93,0.53 -1.05,0.76 -0.25,-0.66 -0.78,-0.76 -1.07,-0.76 -1.04,0 -1.61,1.29 -1.61,1.53 0,0.1 0.1,0.1 0.12,0.1 0.08,0 0.11,-0.02 0.13,-0.11 0.34,-1.05 1,-1.3 1.34,-1.3 0.18,0 0.53,0.09 0.53,0.67 0,0.31 -0.16,0.97 -0.53,2.36 -0.16,0.62 -0.51,1.04 -0.95,1.04 -0.06,0 -0.29,0 -0.5,-0.13 0.25,-0.05 0.47,-0.26 0.47,-0.54 0,-0.27 -0.22,-0.35 -0.37,-0.35 -0.3,0 -0.55,0.26 -0.55,0.58 0,0.46 0.5,0.65 0.94,0.65 0.66,0 1.02,-0.69 1.05,-0.75 0.11,0.37 0.47,0.75 1.07,0.75 1.03,0 1.6,-1.28 1.6,-1.53 0,-0.1 -0.09,-0.1 -0.12,-0.1 -0.09,0 -0.11,0.04 -0.13,0.11 -0.33,1.07 -1.01,1.31 -1.33,1.31 -0.39,0 -0.55,-0.32 -0.55,-0.66 0,-0.22 0.06,-0.44 0.17,-0.87 z"
       inkscape:connector-curvature="0"
       style="font-style:normal;font-variant:normal;font-weight:normal;font-stretch:normal;letter-spacing:normal;word-spacing:normal;text-anchor:start;fill:#000000;fill-opacity:1;fill-rule:evenodd;stroke:#000000;stroke-width:0;stroke-linecap:butt;stroke-linejoin:miter;stroke-miterlimit:10.43299961;stroke-dasharray:none;stroke-dashoffset:0;stroke-opacity:1" />
    <path
       id="path1400"
       d="m 115.7336,26.780539 v -0.01 0 l 0.01,-0.01 v 0 -0.02 -0.01 l 0.01,-0.01 v -0.01 -0.01 0 l 0.01,-0.01 v -0.01 -0.01 -0.01 0 -0.01 0 l 0.01,-0.01 v -0.01 0 -0.01 0 -0.01 -0.01 -0.01 -0.01 -0.01 -0.01 0 -0.01 c 0,-0.18 -0.14,-0.27 -0.29,-0.27 -0.1,0 -0.26,0.06 -0.35,0.21 -0.02,0.05 -0.1,0.36 -0.14,0.54 -0.07,0.26 -0.14,0.53 -0.2,0.79 l -0.45,1.79 c -0.04,0.15 -0.47,0.85 -1.12,0.85 -0.51,0 -0.62,-0.44 -0.62,-0.81 0,-0.46 0.17,-1.07 0.51,-1.95 0.16,-0.4 0.2,-0.51 0.2,-0.71 0,-0.45 -0.32,-0.82 -0.82,-0.82 -0.95,0 -1.32,1.45 -1.32,1.53 0,0.1 0.1,0.1 0.12,0.1 0.1,0 0.11,-0.02 0.16,-0.17 0.27,-0.94 0.67,-1.24 1.01,-1.24 0.08,0 0.25,0 0.25,0.32 0,0.25 -0.1,0.51 -0.17,0.7 -0.4,1.05 -0.58,1.61 -0.58,2.08 0,0.89 0.63,1.18 1.22,1.18 0.39,0 0.72,-0.16 1,-0.44 -0.13,0.51 -0.25,1 -0.64,1.53 -0.26,0.33 -0.64,0.62 -1.1,0.62 -0.14,0 -0.59,-0.03 -0.76,-0.41 0.16,0 0.29,0 0.43,-0.12 0.1,-0.09 0.2,-0.22 0.2,-0.41 0,-0.31 -0.27,-0.35 -0.37,-0.35 -0.23,0 -0.56,0.16 -0.56,0.65 0,0.49 0.44,0.86 1.06,0.86 1.03,0 2.05,-0.9 2.33,-2.02 z"
       inkscape:connector-curvature="0"
       style="font-style:normal;font-variant:normal;font-weight:normal;font-stretch:normal;letter-spacing:normal;word-spacing:normal;text-anchor:start;fill:#000000;fill-opacity:1;fill-rule:evenodd;stroke:#000000;stroke-width:0;stroke-linecap:butt;stroke-linejoin:miter;stroke-miterlimit:10.43299961;stroke-dasharray:none;stroke-dashoffset:0;stroke-opacity:1" />
    <path
       id="path1402"
       d="m 173.22926,70.614363 v -0.03 l 0.01,-0.03 0.01,-0.03 0.01,-0.04 0.01,-0.04 0.01,-0.04 0.01,-0.04 0.02,-0.05 0.01,-0.04 0.02,-0.05 0.02,-0.05 0.02,-0.05 0.02,-0.05 0.03,-0.05 0.02,-0.05 0.03,-0.05 0.03,-0.05 0.03,-0.04 0.03,-0.05 0.04,-0.04 0.04,-0.05 0.04,-0.04 0.04,-0.04 0.04,-0.03 0.05,-0.03 0.05,-0.03 0.02,-0.01 0.03,-0.02 0.02,-0.01 0.03,-0.01 0.03,-0.01 h 0.03 l 0.03,-0.01 0.03,-0.01 h 0.03 0.03 l 0.03,-0.01 h 0.03 c 0.05,0 0.29,0 0.5,0.13 -0.28,0.05 -0.48,0.3 -0.48,0.54 0,0.16 0.11,0.35 0.38,0.35 0.22,0 0.54,-0.18 0.54,-0.58 0,-0.52 -0.59,-0.66 -0.93,-0.66 -0.58,0 -0.93,0.53 -1.05,0.76 -0.24,-0.66 -0.78,-0.76 -1.07,-0.76 -1.04,0 -1.61,1.29 -1.61,1.53 0,0.1 0.1,0.1 0.12,0.1 0.08,0 0.11,-0.02 0.13,-0.11 0.34,-1.05 1,-1.3 1.34,-1.3 0.19,0 0.54,0.09 0.54,0.67 0,0.31 -0.17,0.97 -0.54,2.36 -0.16,0.62 -0.51,1.04 -0.95,1.04 -0.06,0 -0.29,0 -0.5,-0.13 0.25,-0.05 0.47,-0.26 0.47,-0.54 0,-0.27 -0.22,-0.35 -0.37,-0.35 -0.3,0 -0.55,0.26 -0.55,0.58 0,0.46 0.5,0.65 0.94,0.65 0.66,0 1.02,-0.69 1.05,-0.75 0.12,0.37 0.48,0.75 1.08,0.75 1.02,0 1.59,-1.28 1.59,-1.53 0,-0.1 -0.09,-0.1 -0.12,-0.1 -0.09,0 -0.11,0.04 -0.13,0.11 -0.33,1.07 -1.01,1.31 -1.33,1.31 -0.38,0 -0.54,-0.32 -0.54,-0.66 0,-0.22 0.06,-0.44 0.17,-0.87 z"
       inkscape:connector-curvature="0"
       style="font-style:normal;font-variant:normal;font-weight:normal;font-stretch:normal;letter-spacing:normal;word-spacing:normal;text-anchor:start;fill:#000000;fill-opacity:1;fill-rule:evenodd;stroke:#000000;stroke-width:0;stroke-linecap:butt;stroke-linejoin:miter;stroke-miterlimit:10.43299961;stroke-dasharray:none;stroke-dashoffset:0;stroke-opacity:1" />
    <path
       id="path1404"
       d="m 177.28664,67.02749 0.01,-0.01 v -0.01 l 0.01,-0.01 v -0.01 -0.01 l 0.01,-0.01 v -0.01 l 0.01,-0.01 v -0.01 -0.01 0 l 0.01,-0.01 v -0.01 -0.01 0 -0.01 l 0.01,-0.01 v 0 -0.01 -0.01 0 -0.01 0 -0.01 -0.01 -0.01 -0.01 -0.01 c 0,-0.21 -0.19,-0.38 -0.41,-0.38 -0.26,0 -0.35,0.22 -0.38,0.33 l -0.93,3.01 c 0,0.01 -0.03,0.1 -0.03,0.11 0,0.08 0.22,0.15 0.27,0.15 0.05,0 0.06,-0.01 0.11,-0.11 z"
       inkscape:connector-curvature="0"
       style="font-style:normal;font-variant:normal;font-weight:normal;font-stretch:normal;letter-spacing:normal;word-spacing:normal;text-anchor:start;fill:#000000;fill-opacity:1;fill-rule:evenodd;stroke:#000000;stroke-width:0;stroke-linecap:butt;stroke-linejoin:miter;stroke-miterlimit:10.43299961;stroke-dasharray:none;stroke-dashoffset:0;stroke-opacity:1" />
    <path
       id="path1406"
       d="m 78.116113,30.04706 v -0.01 0 -0.01 0 l 0.01,-0.02 v -0.01 -0.01 -0.01 l 0.01,-0.01 v 0 -0.01 -0.01 -0.01 l 0.01,-0.01 v 0 -0.01 0 -0.01 -0.01 0 -0.01 0 -0.01 l 0.01,-0.01 v -0.01 -0.01 -0.01 -0.01 0 -0.01 c 0,-0.18 -0.14,-0.27 -0.29,-0.27 -0.1,0 -0.26,0.06 -0.35,0.21 -0.02,0.05 -0.1,0.36 -0.14,0.54 -0.07,0.26 -0.14,0.53 -0.2,0.79 l -0.45,1.79 c -0.04,0.15 -0.47,0.85 -1.13,0.85 -0.5,0 -0.61,-0.44 -0.61,-0.81 0,-0.46 0.17,-1.07 0.5,-1.95 0.16,-0.4 0.2,-0.51 0.2,-0.71 0,-0.45 -0.32,-0.82 -0.81,-0.82 -0.95,0 -1.32,1.45 -1.32,1.53 0,0.1 0.1,0.1 0.12,0.1 0.1,0 0.11,-0.02 0.16,-0.17 0.27,-0.94 0.67,-1.24 1.01,-1.24 0.08,0 0.25,0 0.25,0.32 0,0.25 -0.11,0.51 -0.17,0.7 -0.4,1.05 -0.58,1.61 -0.58,2.08 0,0.89 0.62,1.18 1.21,1.18 0.39,0 0.73,-0.16 1.01,-0.44 -0.13,0.51 -0.25,1 -0.65,1.53 -0.26,0.33 -0.64,0.62 -1.09,0.62 -0.14,0 -0.59,-0.03 -0.76,-0.41 0.16,0 0.29,0 0.43,-0.12 0.1,-0.09 0.2,-0.22 0.2,-0.41 0,-0.31 -0.27,-0.35 -0.37,-0.35 -0.23,0 -0.56,0.16 -0.56,0.65 0,0.49 0.44,0.86 1.06,0.86 1.02,0 2.05,-0.9 2.33,-2.02 z"
       inkscape:connector-curvature="0"
       style="font-style:normal;font-variant:normal;font-weight:normal;font-stretch:normal;letter-spacing:normal;word-spacing:normal;text-anchor:start;fill:#000000;fill-opacity:1;fill-rule:evenodd;stroke:#000000;stroke-width:0;stroke-linecap:butt;stroke-linejoin:miter;stroke-miterlimit:10.43299961;stroke-dasharray:none;stroke-dashoffset:0;stroke-opacity:1" />
    <path
       id="path1408"
       d="m 80.803383,28.273408 0.01,-0.01 v -0.01 -0.01 l 0.01,-0.01 v -0.01 l 0.01,-0.01 v -0.01 -0.01 l 0.01,-0.01 v -0.01 0 -0.01 l 0.01,-0.01 v -0.01 0 -0.01 -0.01 h 0.01 v -0.01 -0.01 0 -0.01 0 -0.01 -0.01 -0.01 -0.01 -0.01 c 0,-0.21 -0.19,-0.38 -0.41,-0.38 -0.27,0 -0.35,0.22 -0.38,0.33 l -0.93,3.01 c 0,0.01 -0.03,0.1 -0.03,0.11 0,0.08 0.21,0.15 0.27,0.15 0.05,0 0.06,-0.01 0.1,-0.11 z"
       inkscape:connector-curvature="0"
       style="font-style:normal;font-variant:normal;font-weight:normal;font-stretch:normal;letter-spacing:normal;word-spacing:normal;text-anchor:start;fill:#000000;fill-opacity:1;fill-rule:evenodd;stroke:#000000;stroke-width:0;stroke-linecap:butt;stroke-linejoin:miter;stroke-miterlimit:10.43299961;stroke-dasharray:none;stroke-dashoffset:0;stroke-opacity:1" />
    <path
       style="font-style:normal;font-variant:normal;font-weight:normal;font-stretch:normal;letter-spacing:normal;word-spacing:normal;text-anchor:start;fill:#000000;fill-opacity:1;fill-rule:evenodd;stroke:#000000;stroke-width:0;stroke-linecap:butt;stroke-linejoin:miter;stroke-miterlimit:10.43299961;stroke-dasharray:none;stroke-dashoffset:0;stroke-opacity:1"
       inkscape:connector-curvature="0"
       d="m 130.73513,88.334539 v -0.07 -0.06 l -0.01,-0.07 v -0.08 l -0.01,-0.07 v -0.08 l -0.01,-0.08 -0.01,-0.09 -0.02,-0.08 -0.01,-0.08 -0.02,-0.09 -0.02,-0.08 -0.02,-0.09 -0.03,-0.08 -0.03,-0.09 -0.03,-0.08 -0.03,-0.08 -0.04,-0.07 -0.04,-0.08 -0.04,-0.07 -0.05,-0.06 -0.05,-0.07 -0.05,-0.06 -0.06,-0.05 -0.06,-0.05 -0.04,-0.02 -0.03,-0.03 -0.03,-0.02 -0.04,-0.01 -0.04,-0.02 -0.03,-0.02 -0.04,-0.01 -0.04,-0.01 -0.04,-0.01 -0.05,-0.01 -0.04,-0.01 h -0.04 l -0.05,-0.01 h -0.05 l -0.01,0.22 c 0.49,0 0.55,0.64 0.55,1.2 0,0.49 -0.08,1 -0.32,1.98 h -2.08 c 0.17,-0.64 0.37,-1.43 0.77,-2.14 0.27,-0.48 0.63,-1.04 1.08,-1.04 l 0.01,-0.22 c -1.38,0 -2.92,2.8 -2.92,5.08 0,0.93 0.29,2.03 1.2,2.03 v -0.21 c -0.33,0 -0.54,-0.29 -0.54,-1.22 0,-0.41 0.06,-0.99 0.32,-1.96 h 2.07 c -0.11,0.45 -0.32,1.3 -0.7,2.01 -0.35,0.68 -0.72,1.17 -1.15,1.17 v 0.21 c 1.4,0 2.92,-2.85 2.92,-5.07 z"
       id="path1778" />
    <path
       style="font-style:normal;font-variant:normal;font-weight:normal;font-stretch:normal;letter-spacing:normal;word-spacing:normal;text-anchor:start;fill:#000000;fill-opacity:1;fill-rule:evenodd;stroke:#000000;stroke-width:0;stroke-linecap:butt;stroke-linejoin:miter;stroke-miterlimit:10.43299961;stroke-dasharray:none;stroke-dashoffset:0;stroke-opacity:1"
       inkscape:connector-curvature="0"
       d="m 105.271,109.09881 v 0 0 0 -0.01 0 0 0 -0.01 0 -0.01 0 0 l -0.01,-0.01 v 0 -0.01 0 l -0.01,-0.01 v 0 -0.01 h -0.01 v -0.01 0 h -0.01 v 0 -0.01 0 h -0.01 v 0 0 l -0.01,-0.01 v 0 0 h -0.01 v 0 h -0.01 v 0 h -0.01 v -0.01 h -0.01 v 0 h -0.01 v 0 h -0.01 v 0 h -0.01 c -0.15,0 -1.1,0.09 -1.27,0.11 -0.07,0.01 -0.13,0.06 -0.13,0.19 0,0.12 0.08,0.12 0.23,0.12 0.48,0 0.5,0.07 0.5,0.17 l -0.03,0.2 -0.6,2.35 c -0.18,-0.37 -0.46,-0.64 -0.91,-0.64 -1.17,0 -2.41,1.47 -2.41,2.91 0,0.94 0.55,1.59 1.33,1.59 l 0.02,-0.21 c -0.5,0 -0.64,-0.55 -0.64,-0.94 0,-0.5 0.32,-1.72 0.55,-2.17 0.31,-0.59 0.76,-0.96 1.16,-0.96 0.64,0 0.78,0.82 0.78,0.88 0,0.06 -0.01,0.12 -0.03,0.17 l -0.49,1.94 c -0.05,0.18 -0.05,0.2 -0.2,0.37 -0.44,0.55 -0.85,0.71 -1.13,0.71 l -0.02,0.21 c 0.2,0 0.7,-0.03 1.3,-0.74 0.08,0.42 0.42,0.74 0.9,0.74 0.35,0 0.58,-0.22 0.74,-0.54 0.17,-0.36 0.3,-0.97 0.3,-0.99 0,-0.1 -0.09,-0.1 -0.12,-0.1 -0.1,0 -0.11,0.04 -0.14,0.18 -0.17,0.65 -0.35,1.24 -0.76,1.24 -0.27,0 -0.3,-0.26 -0.3,-0.46 0,-0.24 0.03,-0.31 0.06,-0.48 z"
       id="path1780" />
    <path
       style="font-style:normal;font-variant:normal;font-weight:normal;font-stretch:normal;letter-spacing:normal;word-spacing:normal;text-anchor:start;fill:#000000;fill-opacity:1;fill-rule:evenodd;stroke:#000000;stroke-width:0;stroke-linecap:butt;stroke-linejoin:miter;stroke-miterlimit:10.43299961;stroke-dasharray:none;stroke-dashoffset:0;stroke-opacity:1"
       inkscape:connector-curvature="0"
       d="m 82.263195,109.03431 0.1,-0.02 0.09,-0.03 0.1,-0.03 0.1,-0.03 0.09,-0.03 0.1,-0.03 0.1,-0.04 0.09,-0.04 0.1,-0.05 0.09,-0.04 0.09,-0.05 0.09,-0.05 0.09,-0.05 0.08,-0.06 0.09,-0.06 0.08,-0.06 0.08,-0.06 0.07,-0.06 0.07,-0.07 0.07,-0.07 0.06,-0.07 0.06,-0.07 0.06,-0.08 0.05,-0.08 0.04,-0.08 0.04,-0.08 0.04,-0.08 0.02,-0.09 0.03,-0.09 0.01,-0.09 0.01,-0.09 0.01,-0.09 c 0,-0.85 -0.9,-1.49 -2.21,-1.49 h -2.84 c -0.2,0 -0.29,0 -0.29,0.2 0,0.11 0.09,0.11 0.28,0.11 0.02,0 0.21,0 0.38,0.02 0.18,0.02 0.27,0.03 0.27,0.16 0,0.04 -0.01,0.07 -0.04,0.19 l -1.34,5.33 c -0.1,0.39 -0.12,0.47 -0.9,0.47 -0.18,0 -0.27,0 -0.27,0.2 0,0.11 0.12,0.11 0.14,0.11 0.28,0 0.97,-0.04 1.25,-0.04 0.28,0 0.99,0.04 1.27,0.04 0.08,0 0.2,0 0.2,-0.2 0,-0.11 -0.09,-0.11 -0.28,-0.11 -0.37,0 -0.65,0 -0.65,-0.18 0,-0.06 0.02,-0.11 0.03,-0.17 l 0.66,-2.63 h 1.19 l -0.01,-0.22 h -1.12 l 0.65,-2.59 c 0.06,-0.24 0.09,-0.34 0.28,-0.37 0.09,-0.01 0.41,-0.01 0.61,-0.01 0.7,0 1.81,0 1.81,0.98 0,0.34 -0.16,1.02 -0.55,1.41 -0.26,0.26 -0.79,0.58 -1.68,0.58 l 0.01,0.22 c 0.9,0 1.08,0.55 1.08,0.9 0,0.15 -0.08,0.46 -0.14,0.69 -0.07,0.27 -0.16,0.64 -0.16,0.84 0,1.07 1.2,1.07 1.33,1.07 0.85,0 1.2,-1 1.2,-1.14 0,-0.12 -0.11,-0.12 -0.12,-0.12 -0.09,0 -0.11,0.07 -0.13,0.14 -0.25,0.74 -0.68,0.91 -0.91,0.91 -0.33,0 -0.4,-0.22 -0.4,-0.61 0,-0.31 0.06,-0.82 0.1,-1.13 0.02,-0.14 0.04,-0.33 0.04,-0.47 0,-0.77 -0.67,-1.07 -0.94,-1.17 z"
       id="path1782" />
  </g>
</svg>
