<?xml version="1.0" encoding="UTF-8" standalone="no"?>
<!-- Created with Inkscape (http://www.inkscape.org/) -->

<svg
   xmlns:dc="http://purl.org/dc/elements/1.1/"
   xmlns:cc="http://creativecommons.org/ns#"
   xmlns:rdf="http://www.w3.org/1999/02/22-rdf-syntax-ns#"
   xmlns:svg="http://www.w3.org/2000/svg"
   xmlns="http://www.w3.org/2000/svg"
   xmlns:sodipodi="http://sodipodi.sourceforge.net/DTD/sodipodi-0.dtd"
   xmlns:inkscape="http://www.inkscape.org/namespaces/inkscape"
   width="205.24107mm"
   height="71.815475mm"
   viewBox="0 0 205.24107 71.815475"
   version="1.1"
   id="svg8"
   inkscape:export-filename="/home/jacob/Documents/physics/ortvay/p19/figures/plot3.png"
   inkscape:export-xdpi="200"
   inkscape:export-ydpi="200"
   inkscape:version="0.92.3 (2405546, 2018-03-11)"
   sodipodi:docname="plot5.svg">
  <defs
     id="defs2">
    <clipPath
       id="clipPath852"
       clipPathUnits="userSpaceOnUse">
      <path
         inkscape:connector-curvature="0"
         id="path850"
         d="m 135,0 h 2 v 180.961 h -2 z" />
    </clipPath>
    <clipPath
       id="clipPath862"
       clipPathUnits="userSpaceOnUse">
      <path
         inkscape:connector-curvature="0"
         id="path860"
         d="m 243,0 h 2 v 180.961 h -2 z" />
    </clipPath>
    <clipPath
       id="clipPath872"
       clipPathUnits="userSpaceOnUse">
      <path
         inkscape:connector-curvature="0"
         id="path870"
         d="m 351,0 h 2 v 180.961 h -2 z" />
    </clipPath>
    <clipPath
       id="clipPath882"
       clipPathUnits="userSpaceOnUse">
      <path
         inkscape:connector-curvature="0"
         id="path880"
         d="m 459,0 h 2 v 180.961 h -2 z" />
    </clipPath>
    <clipPath
       id="clipPath900"
       clipPathUnits="userSpaceOnUse">
      <path
         inkscape:connector-curvature="0"
         id="path898"
         d="M 41,0 H 568.078 V 170 H 41 Z" />
    </clipPath>
  </defs>
  <sodipodi:namedview
     id="base"
     pagecolor="#ffffff"
     bordercolor="#666666"
     borderopacity="1.0"
     inkscape:pageopacity="0.0"
     inkscape:pageshadow="2"
     inkscape:zoom="1.4"
     inkscape:cx="365.85651"
     inkscape:cy="185.05223"
     inkscape:document-units="mm"
     inkscape:current-layer="layer1"
     showgrid="false"
     fit-margin-top="0"
     fit-margin-left="0"
     fit-margin-right="0"
     fit-margin-bottom="0"
     inkscape:window-width="1920"
     inkscape:window-height="1017"
     inkscape:window-x="0"
     inkscape:window-y="0"
     inkscape:window-maximized="1" />
  <metadata
     id="metadata5">
    <rdf:RDF>
      <cc:Work
         rdf:about="">
        <dc:format>image/svg+xml</dc:format>
        <dc:type
           rdf:resource="http://purl.org/dc/dcmitype/StillImage" />
        <dc:title></dc:title>
      </cc:Work>
    </rdf:RDF>
  </metadata>
  <g
     inkscape:label="Layer 1"
     inkscape:groupmode="layer"
     id="layer1"
     transform="translate(-204.48512,-223.48363)">
    <g
       transform="matrix(0.35277777,0,0,0.35277777,205.13422,225.96403)"
       inkscape:label="plot5"
       id="g842">
      <g
         id="g844" />
      <g
         id="g846">
        <g
           clip-path="url(#clipPath852)"
           id="g848">
          <path
             inkscape:connector-curvature="0"
             id="path854"
             style="fill:none;stroke:#808080;stroke-width:1;stroke-linecap:butt;stroke-linejoin:miter;stroke-miterlimit:3.25;stroke-dasharray:none;stroke-opacity:0.4"
             d="M 135.684,180.582 V 0.5" />
        </g>
      </g>
      <g
         id="g856">
        <g
           clip-path="url(#clipPath862)"
           id="g858">
          <path
             inkscape:connector-curvature="0"
             id="path864"
             style="fill:none;stroke:#808080;stroke-width:1;stroke-linecap:butt;stroke-linejoin:miter;stroke-miterlimit:3.25;stroke-dasharray:none;stroke-opacity:0.4"
             d="M 243.73,180.582 V 0.5" />
        </g>
      </g>
      <g
         id="g866">
        <g
           clip-path="url(#clipPath872)"
           id="g868">
          <path
             inkscape:connector-curvature="0"
             id="path874"
             style="fill:none;stroke:#808080;stroke-width:1;stroke-linecap:butt;stroke-linejoin:miter;stroke-miterlimit:3.25;stroke-dasharray:none;stroke-opacity:0.4"
             d="M 351.781,180.582 V 0.5" />
        </g>
      </g>
      <g
         id="g876">
        <g
           clip-path="url(#clipPath882)"
           id="g878">
          <path
             inkscape:connector-curvature="0"
             id="path884"
             style="fill:none;stroke:#808080;stroke-width:1;stroke-linecap:butt;stroke-linejoin:miter;stroke-miterlimit:3.25;stroke-dasharray:none;stroke-opacity:0.4"
             d="M 459.828,180.582 V 0.5" />
        </g>
      </g>
      <g
         id="g886">
        <path
           inkscape:connector-curvature="0"
           id="path888"
           style="fill:none;stroke:#808080;stroke-width:1;stroke-linecap:butt;stroke-linejoin:miter;stroke-miterlimit:3.25;stroke-dasharray:none;stroke-opacity:0.4"
           d="M 27.633,146.816 H 567.879" />
        <path
           inkscape:connector-curvature="0"
           id="path890"
           style="fill:none;stroke:#808080;stroke-width:1;stroke-linecap:butt;stroke-linejoin:miter;stroke-miterlimit:3.25;stroke-dasharray:none;stroke-opacity:0.4"
           d="M 27.633,90.539 H 567.879" />
        <path
           inkscape:connector-curvature="0"
           id="path892"
           style="fill:none;stroke:#808080;stroke-width:1;stroke-linecap:butt;stroke-linejoin:miter;stroke-miterlimit:3.25;stroke-dasharray:none;stroke-opacity:0.4"
           d="M 27.633,34.266 H 567.879" />
      </g>
      <g
         id="g894">
        <g
           clip-path="url(#clipPath900)"
           id="g896">
          <path
             inkscape:connector-curvature="0"
             id="path902"
             style="fill:none;stroke:#000000;stroke-width:1.60000002;stroke-linecap:square;stroke-linejoin:miter;stroke-miterlimit:3.25;stroke-dasharray:none;stroke-opacity:1"
             d="m 41.91,0.5 0.637,8.797 1.437,18.656 0.18,2.223 0.18,2.195 0.359,4.324 0.719,8.371 1.437,15.649 0.18,1.859 0.18,1.836 0.359,3.61 0.719,6.964 1.437,12.961 0.168,1.434 0.168,1.414 0.332,2.777 0.672,5.364 1.344,9.964 0.168,1.176 0.168,1.16 0.336,2.282 0.668,4.382 1.344,8.086 0.168,0.95 0.168,0.933 0.335,1.832 0.668,3.508 0.168,0.844 0.168,0.832 0.336,1.625 0.672,3.105 0.168,0.746 0.168,0.735 0.336,1.433 0.668,2.727 1.344,4.918 0.164,0.555 0.164,0.543 0.328,1.062 0.66,2 0.164,0.473 0.164,0.468 0.328,0.903 0.657,1.699 0.164,0.402 0.164,0.391 0.332,0.758 0.656,1.414 0.164,0.332 0.164,0.32 0.328,0.625 0.66,1.145 0.165,0.265 0.164,0.258 0.328,0.492 0.164,0.239 0.164,0.226 0.332,0.434 0.164,0.203 0.164,0.199 0.328,0.371 0.164,0.176 0.164,0.172 0.328,0.316 0.164,0.145 0.168,0.144 0.329,0.262 0.328,0.234 0.328,0.207 0.164,0.094 0.164,0.09 0.164,0.082 0.164,0.074 0.168,0.067 0.164,0.066 0.164,0.055 0.164,0.051 0.18,0.046 0.176,0.043 0.179,0.036 0.18,0.027 0.176,0.019 0.179,0.016 0.18,0.004 h 0.176 l 0.18,-0.004 0.179,-0.012 0.176,-0.019 0.18,-0.028 0.176,-0.031 0.179,-0.035 0.18,-0.043 0.176,-0.051 0.359,-0.117 0.176,-0.07 0.18,-0.074 0.179,-0.079 0.176,-0.085 0.359,-0.188 0.176,-0.101 0.18,-0.106 0.355,-0.23 0.18,-0.125 0.18,-0.129 0.355,-0.27 0.18,-0.144 0.176,-0.149 0.359,-0.312 0.711,-0.684 0.18,-0.18 0.179,-0.187 0.356,-0.387 0.715,-0.828 0.175,-0.215 0.18,-0.222 0.356,-0.454 0.714,-0.957 1.426,-2.086 0.168,-0.257 0.168,-0.262 0.332,-0.531 0.664,-1.094 1.332,-2.317 2.664,-5.062 0.168,-0.332 0.164,-0.336 0.336,-0.676 0.664,-1.371 1.332,-2.82 2.664,-5.883 0.719,-1.641 0.723,-1.656 1.445,-3.355 2.887,-6.813 5.773,-13.699 0.176,-0.418 0.176,-0.414 0.355,-0.832 0.707,-1.652 1.418,-3.278 2.832,-6.414 5.668,-12.074 0.168,-0.332 0.164,-0.336 0.332,-0.66 0.661,-1.313 1.32,-2.57 2.644,-4.906 0.165,-0.293 0.164,-0.297 0.332,-0.586 0.66,-1.156 1.324,-2.246 2.641,-4.239 0.359,-0.547 0.359,-0.539 0.715,-1.062 1.434,-2.047 0.359,-0.492 0.356,-0.488 0.718,-0.957 1.434,-1.832 0.18,-0.219 0.179,-0.223 0.356,-0.434 0.719,-0.847 1.433,-1.617 2.863,-2.907 0.336,-0.312 0.336,-0.305 0.668,-0.594 1.336,-1.117 0.336,-0.265 0.336,-0.258 0.668,-0.5 1.336,-0.938 0.336,-0.218 0.336,-0.211 0.668,-0.414 0.336,-0.196 0.332,-0.191 0.672,-0.367 0.164,-0.086 0.504,-0.258 0.668,-0.32 1.34,-0.582 0.164,-0.063 0.164,-0.066 0.324,-0.121 0.656,-0.235 0.328,-0.109 0.328,-0.102 0.657,-0.195 0.656,-0.172 0.328,-0.078 0.328,-0.074 0.328,-0.071 0.656,-0.125 0.329,-0.054 0.656,-0.094 0.328,-0.039 0.324,-0.039 0.328,-0.031 0.164,-0.012 0.164,-0.016 0.164,-0.011 0.165,-0.008 0.164,-0.012 0.328,-0.016 0.656,-0.015 h 0.164 l 0.164,-0.004 0.164,0.004 h 0.164 l 0.492,0.011 0.657,0.032 0.175,0.011 0.18,0.012 0.176,0.016 0.359,0.031 0.176,0.02 0.356,0.039 0.179,0.019 0.176,0.024 0.355,0.05 0.18,0.024 0.176,0.027 0.355,0.059 0.18,0.031 0.18,0.035 0.355,0.067 0.711,0.148 0.176,0.043 0.18,0.039 0.355,0.09 0.711,0.183 0.18,0.051 0.176,0.051 0.355,0.106 0.711,0.222 0.359,0.117 0.356,0.121 0.711,0.258 0.176,0.067 0.179,0.066 0.356,0.137 0.711,0.289 1.421,0.625 0.168,0.078 0.165,0.078 0.332,0.16 0.664,0.324 1.328,0.688 2.656,1.523 0.168,0.102 0.164,0.102 0.332,0.207 0.664,0.421 1.328,0.872 2.657,1.859 0.718,0.531 0.719,0.543 1.441,1.11 2.879,2.328 5.758,5.027 11.305,10.758 10.543,10.332 11.433,10.676 0.336,0.297 0.332,0.292 0.668,0.586 1.332,1.157 2.668,2.261 5.336,4.266 0.184,0.137 0.539,0.41 0.726,0.543 1.446,1.066 2.89,2.039 0.36,0.25 0.363,0.243 0.723,0.484 1.445,0.945 2.891,1.793 0.175,0.11 0.18,0.105 0.356,0.207 0.707,0.414 1.421,0.801 2.836,1.508 0.18,0.09 0.176,0.089 0.355,0.18 0.711,0.348 1.418,0.672 2.84,1.25 0.164,0.066 0.168,0.07 0.328,0.133 0.664,0.266 1.325,0.508 0.164,0.062 0.164,0.059 0.332,0.121 0.664,0.238 1.324,0.449 0.164,0.055 0.164,0.051 0.332,0.109 0.664,0.207 1.324,0.391 0.329,0.093 0.996,0.27 1.32,0.336 0.359,0.086 0.36,0.082 0.718,0.16 0.719,0.156 0.719,0.145 0.176,0.031 0.179,0.035 0.36,0.067 0.719,0.129 1.437,0.23 0.176,0.027 0.18,0.028 0.359,0.051 0.898,0.117 0.18,0.019 0.359,0.043 0.719,0.082 0.176,0.016 0.18,0.019 0.359,0.036 0.719,0.062 0.179,0.012 0.18,0.015 0.36,0.028 0.718,0.047 0.164,0.007 0.168,0.012 1.176,0.055 0.164,0.004 0.168,0.008 1.176,0.027 h 0.164 l 0.168,0.004 h 1.34 l 0.336,-0.008 h 0.168 l 0.84,-0.02 0.164,-0.007 0.168,-0.004 0.335,-0.012 1.008,-0.047 0.332,-0.019 0.168,-0.012 0.168,-0.008 0.336,-0.023 0.668,-0.047 0.168,-0.016 0.168,-0.012 0.336,-0.027 0.672,-0.062 0.328,-0.032 0.984,-0.105 0.657,-0.078 0.656,-0.082 0.164,-0.024 0.164,-0.019 0.332,-0.047 0.656,-0.094 1.313,-0.207 0.656,-0.109 0.656,-0.117 1.317,-0.25 2.629,-0.559 0.175,-0.043 0.18,-0.043 0.356,-0.082 0.714,-0.172 1.426,-0.363 2.848,-0.789 0.18,-0.051 0.179,-0.055 0.356,-0.105 0.711,-0.215 1.425,-0.449 2.852,-0.957 0.168,-0.059 0.164,-0.058 0.332,-0.118 0.668,-0.238 1.328,-0.484 2.66,-1.024 5.325,-2.207 11.531,-5.41 11.324,-5.859 10.562,-5.684 11.454,-6.125 10.691,-5.453 10.484,-4.922 0.176,-0.078 0.18,-0.082 0.355,-0.156 0.707,-0.313 1.422,-0.613 2.844,-1.203 5.687,-2.258 0.168,-0.063 0.165,-0.062 0.996,-0.375 1.324,-0.488 2.652,-0.942 0.168,-0.054 0.164,-0.059 0.996,-0.34 1.328,-0.441 2.653,-0.848 0.179,-0.059 1.258,-0.382 1.438,-0.426 2.875,-0.809 0.179,-0.047 0.18,-0.05 0.36,-0.094 0.718,-0.192 1.438,-0.367 2.879,-0.687 0.336,-0.078 0.332,-0.075 0.671,-0.152 1.344,-0.289 2.688,-0.535 0.164,-0.031 0.168,-0.036 0.336,-0.062 0.672,-0.121 1.343,-0.238 2.684,-0.43 0.168,-0.027 0.492,-0.071 0.656,-0.097 1.317,-0.18 0.168,-0.02 0.164,-0.023 0.328,-0.039 0.656,-0.082 1.317,-0.156 0.168,-0.02 0.164,-0.016 0.984,-0.105 1.316,-0.129 0.168,-0.016 0.493,-0.046 0.656,-0.055 1.316,-0.106 0.18,-0.011 0.18,-0.016 0.355,-0.023 0.715,-0.047 0.18,-0.012 0.175,-0.012 0.36,-0.019 0.715,-0.043 0.175,-0.008 0.18,-0.012 0.355,-0.015 0.36,-0.016 0.355,-0.019 0.18,-0.008 0.176,-0.004 0.359,-0.016 0.715,-0.027 0.176,-0.004 0.179,-0.008 0.356,-0.008 0.18,-0.007 0.179,-0.004 0.356,-0.008 0.359,-0.008 0.176,-0.004 0.359,-0.008 0.176,-0.004 h 0.18 l 0.179,-0.004 0.176,-0.003 h 0.18 l 0.18,-0.004 h 0.355 l 0.18,-0.004 h 1.785 l 0.164,0.004 h 0.336 l 0.164,0.004 H 458 l 0.168,0.003 h 0.164 l 0.336,0.008 h 0.164 l 0.332,0.008 0.336,0.008 0.332,0.008 0.168,0.004 0.164,0.004 0.336,0.007 0.164,0.004 0.168,0.008 0.332,0.008 0.168,0.008 0.168,0.004 0.332,0.011 0.664,0.028 0.336,0.015 0.332,0.016 0.668,0.031 0.164,0.008 0.168,0.008 0.332,0.019 0.668,0.039 0.164,0.008 0.168,0.012 0.332,0.019 0.668,0.043 1.332,0.098 0.18,0.016 0.18,0.011 0.363,0.032 0.722,0.058 1.442,0.129 0.183,0.02 0.18,0.015 0.36,0.035 0.722,0.075 1.445,0.152 0.18,0.023 0.18,0.02 0.363,0.039 0.723,0.086 1.441,0.18 2.891,0.398 0.176,0.024 0.175,0.027 0.356,0.051 0.711,0.109 1.418,0.223 2.836,0.476 0.351,0.063 0.356,0.062 0.707,0.129 1.418,0.266 2.836,0.558 0.168,0.036 0.164,0.035 0.332,0.066 0.66,0.137 1.324,0.285 2.645,0.586 5.289,1.266 11.472,3.109 10.711,3.254 10.5,3.422 11.395,3.855 10.629,3.633 0.187,0.062 0.184,0.067 1.113,0.375 1.484,0.504 2.965,1 0.188,0.062 0.183,0.063 0.372,0.125 0.742,0.246 1.484,0.496 0.367,0.125 0.371,0.121 0.743,0.246 0.187,0.063 0.184,0.062 0.371,0.121 0.187,0.063 0.184,0.058 0.187,0.063 0.184,0.062" />
        </g>
      </g>
      <g
         id="g904">
        <path
           inkscape:connector-curvature="0"
           id="path906"
           style="fill:none;stroke:#666666;stroke-width:0.5;stroke-linecap:square;stroke-linejoin:miter;stroke-miterlimit:3.25;stroke-dasharray:none;stroke-opacity:1"
           d="M 567.879,180.582 H 27.633" />
        <path
           inkscape:connector-curvature="0"
           id="path908"
           style="fill:none;stroke:#666666;stroke-width:0.5;stroke-linecap:square;stroke-linejoin:miter;stroke-miterlimit:3.25;stroke-dasharray:none;stroke-opacity:1"
           d="M 27.633,180.582 V 0.5" />
        <path
           inkscape:connector-curvature="0"
           id="path910"
           style="fill:none;stroke:#666666;stroke-width:0.5;stroke-linecap:square;stroke-linejoin:miter;stroke-miterlimit:3.25;stroke-dasharray:none;stroke-opacity:1"
           d="M 27.633,0.5 H 567.879" />
        <path
           inkscape:connector-curvature="0"
           id="path912"
           style="fill:none;stroke:#666666;stroke-width:0.5;stroke-linecap:square;stroke-linejoin:miter;stroke-miterlimit:3.25;stroke-dasharray:none;stroke-opacity:1"
           d="M 567.879,0.5 V 180.582" />
        <path
           inkscape:connector-curvature="0"
           id="path914"
           style="fill:none;stroke:#666666;stroke-width:0.5;stroke-linecap:butt;stroke-linejoin:miter;stroke-miterlimit:3.25;stroke-dasharray:none;stroke-opacity:1"
           d="m 27.633,180.582 v -4" />
        <text
           id="text918"
           style="font-variant:normal;font-size:10px;font-family:CairoFont-0;-inkscape-font-specification:CairoFont-0-0;writing-mode:lr-tb;fill:#666666;fill-opacity:1;fill-rule:nonzero;stroke:none"
           transform="translate(24.925781,192.58203)">
          <tspan
             id="tspan916"
             y="0"
             x="0">0</tspan>
        </text>
        <path
           inkscape:connector-curvature="0"
           id="path920"
           style="fill:none;stroke:#666666;stroke-width:0.5;stroke-linecap:butt;stroke-linejoin:miter;stroke-miterlimit:3.25;stroke-dasharray:none;stroke-opacity:1"
           d="m 49.242,180.582 v -2.398" />
        <path
           inkscape:connector-curvature="0"
           id="path922"
           style="fill:none;stroke:#666666;stroke-width:0.5;stroke-linecap:butt;stroke-linejoin:miter;stroke-miterlimit:3.25;stroke-dasharray:none;stroke-opacity:1"
           d="m 70.852,180.582 v -2.398" />
        <path
           inkscape:connector-curvature="0"
           id="path924"
           style="fill:none;stroke:#666666;stroke-width:0.5;stroke-linecap:butt;stroke-linejoin:miter;stroke-miterlimit:3.25;stroke-dasharray:none;stroke-opacity:1"
           d="m 92.461,180.582 v -2.398" />
        <path
           inkscape:connector-curvature="0"
           id="path926"
           style="fill:none;stroke:#666666;stroke-width:0.5;stroke-linecap:butt;stroke-linejoin:miter;stroke-miterlimit:3.25;stroke-dasharray:none;stroke-opacity:1"
           d="m 114.07,180.582 v -2.398" />
        <path
           inkscape:connector-curvature="0"
           id="path928"
           style="fill:none;stroke:#666666;stroke-width:0.5;stroke-linecap:butt;stroke-linejoin:miter;stroke-miterlimit:3.25;stroke-dasharray:none;stroke-opacity:1"
           d="m 135.684,180.582 v -4" />
        <text
           id="text932"
           style="font-variant:normal;font-size:10px;font-family:CairoFont-0;-inkscape-font-specification:CairoFont-0-0;writing-mode:lr-tb;fill:#666666;fill-opacity:1;fill-rule:nonzero;stroke:none"
           transform="translate(130.26797,192.58203)">
          <tspan
             id="tspan930"
             sodipodi:role="line"
             y="0"
             x="0 5.5599999">50</tspan>
        </text>
        <path
           inkscape:connector-curvature="0"
           id="path934"
           style="fill:none;stroke:#666666;stroke-width:0.5;stroke-linecap:butt;stroke-linejoin:miter;stroke-miterlimit:3.25;stroke-dasharray:none;stroke-opacity:1"
           d="m 157.293,180.582 v -2.398" />
        <path
           inkscape:connector-curvature="0"
           id="path936"
           style="fill:none;stroke:#666666;stroke-width:0.5;stroke-linecap:butt;stroke-linejoin:miter;stroke-miterlimit:3.25;stroke-dasharray:none;stroke-opacity:1"
           d="m 178.902,180.582 v -2.398" />
        <path
           inkscape:connector-curvature="0"
           id="path938"
           style="fill:none;stroke:#666666;stroke-width:0.5;stroke-linecap:butt;stroke-linejoin:miter;stroke-miterlimit:3.25;stroke-dasharray:none;stroke-opacity:1"
           d="m 200.512,180.582 v -2.398" />
        <path
           inkscape:connector-curvature="0"
           id="path940"
           style="fill:none;stroke:#666666;stroke-width:0.5;stroke-linecap:butt;stroke-linejoin:miter;stroke-miterlimit:3.25;stroke-dasharray:none;stroke-opacity:1"
           d="m 222.121,180.582 v -2.398" />
        <path
           inkscape:connector-curvature="0"
           id="path942"
           style="fill:none;stroke:#666666;stroke-width:0.5;stroke-linecap:butt;stroke-linejoin:miter;stroke-miterlimit:3.25;stroke-dasharray:none;stroke-opacity:1"
           d="m 243.73,180.582 v -4" />
        <text
           id="text946"
           style="font-variant:normal;font-size:10px;font-family:CairoFont-0;-inkscape-font-specification:CairoFont-0-0;writing-mode:lr-tb;fill:#666666;fill-opacity:1;fill-rule:nonzero;stroke:none"
           transform="translate(235.61016,192.58203)">
          <tspan
             id="tspan944"
             sodipodi:role="line"
             y="0"
             x="0 5.5599999 11.09">100</tspan>
        </text>
        <path
           inkscape:connector-curvature="0"
           id="path948"
           style="fill:none;stroke:#666666;stroke-width:0.5;stroke-linecap:butt;stroke-linejoin:miter;stroke-miterlimit:3.25;stroke-dasharray:none;stroke-opacity:1"
           d="m 265.34,180.582 v -2.398" />
        <path
           inkscape:connector-curvature="0"
           id="path950"
           style="fill:none;stroke:#666666;stroke-width:0.5;stroke-linecap:butt;stroke-linejoin:miter;stroke-miterlimit:3.25;stroke-dasharray:none;stroke-opacity:1"
           d="m 286.949,180.582 v -2.398" />
        <path
           inkscape:connector-curvature="0"
           id="path952"
           style="fill:none;stroke:#666666;stroke-width:0.5;stroke-linecap:butt;stroke-linejoin:miter;stroke-miterlimit:3.25;stroke-dasharray:none;stroke-opacity:1"
           d="m 308.562,180.582 v -2.398" />
        <path
           inkscape:connector-curvature="0"
           id="path954"
           style="fill:none;stroke:#666666;stroke-width:0.5;stroke-linecap:butt;stroke-linejoin:miter;stroke-miterlimit:3.25;stroke-dasharray:none;stroke-opacity:1"
           d="m 330.172,180.582 v -2.398" />
        <path
           inkscape:connector-curvature="0"
           id="path956"
           style="fill:none;stroke:#666666;stroke-width:0.5;stroke-linecap:butt;stroke-linejoin:miter;stroke-miterlimit:3.25;stroke-dasharray:none;stroke-opacity:1"
           d="m 351.781,180.582 v -4" />
        <text
           id="text960"
           style="font-variant:normal;font-size:10px;font-family:CairoFont-0;-inkscape-font-specification:CairoFont-0-0;writing-mode:lr-tb;fill:#666666;fill-opacity:1;fill-rule:nonzero;stroke:none"
           transform="translate(343.65937,192.58203)">
          <tspan
             id="tspan958"
             sodipodi:role="line"
             y="0"
             x="0 5.5599999 11.09">150</tspan>
        </text>
        <path
           inkscape:connector-curvature="0"
           id="path962"
           style="fill:none;stroke:#666666;stroke-width:0.5;stroke-linecap:butt;stroke-linejoin:miter;stroke-miterlimit:3.25;stroke-dasharray:none;stroke-opacity:1"
           d="m 373.391,180.582 v -2.398" />
        <path
           inkscape:connector-curvature="0"
           id="path964"
           style="fill:none;stroke:#666666;stroke-width:0.5;stroke-linecap:butt;stroke-linejoin:miter;stroke-miterlimit:3.25;stroke-dasharray:none;stroke-opacity:1"
           d="m 395,180.582 v -2.398" />
        <path
           inkscape:connector-curvature="0"
           id="path966"
           style="fill:none;stroke:#666666;stroke-width:0.5;stroke-linecap:butt;stroke-linejoin:miter;stroke-miterlimit:3.25;stroke-dasharray:none;stroke-opacity:1"
           d="m 416.609,180.582 v -2.398" />
        <path
           inkscape:connector-curvature="0"
           id="path968"
           style="fill:none;stroke:#666666;stroke-width:0.5;stroke-linecap:butt;stroke-linejoin:miter;stroke-miterlimit:3.25;stroke-dasharray:none;stroke-opacity:1"
           d="m 438.219,180.582 v -2.398" />
        <path
           inkscape:connector-curvature="0"
           id="path970"
           style="fill:none;stroke:#666666;stroke-width:0.5;stroke-linecap:butt;stroke-linejoin:miter;stroke-miterlimit:3.25;stroke-dasharray:none;stroke-opacity:1"
           d="m 459.828,180.582 v -4" />
        <text
           id="text974"
           style="font-variant:normal;font-size:10px;font-family:CairoFont-0;-inkscape-font-specification:CairoFont-0-0;writing-mode:lr-tb;fill:#666666;fill-opacity:1;fill-rule:nonzero;stroke:none"
           transform="translate(451.70859,192.58203)">
          <tspan
             id="tspan972"
             sodipodi:role="line"
             y="0"
             x="0 5.5599999 11.09">200</tspan>
        </text>
        <path
           inkscape:connector-curvature="0"
           id="path976"
           style="fill:none;stroke:#666666;stroke-width:0.5;stroke-linecap:butt;stroke-linejoin:miter;stroke-miterlimit:3.25;stroke-dasharray:none;stroke-opacity:1"
           d="m 481.441,180.582 v -2.398" />
        <path
           inkscape:connector-curvature="0"
           id="path978"
           style="fill:none;stroke:#666666;stroke-width:0.5;stroke-linecap:butt;stroke-linejoin:miter;stroke-miterlimit:3.25;stroke-dasharray:none;stroke-opacity:1"
           d="m 503.051,180.582 v -2.398" />
        <path
           inkscape:connector-curvature="0"
           id="path980"
           style="fill:none;stroke:#666666;stroke-width:0.5;stroke-linecap:butt;stroke-linejoin:miter;stroke-miterlimit:3.25;stroke-dasharray:none;stroke-opacity:1"
           d="m 524.66,180.582 v -2.398" />
        <path
           inkscape:connector-curvature="0"
           id="path982"
           style="fill:none;stroke:#666666;stroke-width:0.5;stroke-linecap:butt;stroke-linejoin:miter;stroke-miterlimit:3.25;stroke-dasharray:none;stroke-opacity:1"
           d="m 546.27,180.582 v -2.398" />
        <path
           inkscape:connector-curvature="0"
           id="path984"
           style="fill:none;stroke:#666666;stroke-width:0.5;stroke-linecap:butt;stroke-linejoin:miter;stroke-miterlimit:3.25;stroke-dasharray:none;stroke-opacity:1"
           d="m 567.879,180.582 v -4" />
        <text
           id="text988"
           style="font-variant:normal;font-size:10px;font-family:CairoFont-0;-inkscape-font-specification:CairoFont-0-0;writing-mode:lr-tb;fill:#666666;fill-opacity:1;fill-rule:nonzero;stroke:none"
           transform="translate(559.75781,192.58203)">
          <tspan
             id="tspan986"
             sodipodi:role="line"
             y="0"
             x="0 5.5599999 11.09">250</tspan>
        </text>
        <path
           inkscape:connector-curvature="0"
           id="path990"
           style="fill:none;stroke:#666666;stroke-width:0.5;stroke-linecap:butt;stroke-linejoin:miter;stroke-miterlimit:3.25;stroke-dasharray:none;stroke-opacity:1"
           d="m 27.633,180.582 h 2.398" />
        <path
           inkscape:connector-curvature="0"
           id="path992"
           style="fill:none;stroke:#666666;stroke-width:0.5;stroke-linecap:butt;stroke-linejoin:miter;stroke-miterlimit:3.25;stroke-dasharray:none;stroke-opacity:1"
           d="m 27.633,169.328 h 2.398" />
        <path
           inkscape:connector-curvature="0"
           id="path994"
           style="fill:none;stroke:#666666;stroke-width:0.5;stroke-linecap:butt;stroke-linejoin:miter;stroke-miterlimit:3.25;stroke-dasharray:none;stroke-opacity:1"
           d="m 27.633,158.07 h 2.398" />
        <path
           inkscape:connector-curvature="0"
           id="path996"
           style="fill:none;stroke:#666666;stroke-width:0.5;stroke-linecap:butt;stroke-linejoin:miter;stroke-miterlimit:3.25;stroke-dasharray:none;stroke-opacity:1"
           d="m 27.633,146.816 h 4" />
        <text
           id="text1000"
           style="font-variant:normal;font-size:10px;font-family:CairoFont-1;-inkscape-font-specification:CairoFont-1-0;writing-mode:lr-tb;fill:#666666;fill-opacity:1;fill-rule:nonzero;stroke:none"
           transform="translate(0,150.19165)">
          <tspan
             id="tspan998"
             y="0"
             x="0">-</tspan>
        </text>
        <text
           id="text1004"
           style="font-variant:normal;font-size:10px;font-family:CairoFont-0;-inkscape-font-specification:CairoFont-0-0;writing-mode:lr-tb;fill:#666666;fill-opacity:1;fill-rule:nonzero;stroke:none"
           transform="translate(5.67,150.19165)">
          <tspan
             id="tspan1002"
             sodipodi:role="line"
             y="0"
             x="0 5.5599999 8.3299999 13.85">0.05</tspan>
        </text>
        <path
           inkscape:connector-curvature="0"
           id="path1006"
           style="fill:none;stroke:#666666;stroke-width:0.5;stroke-linecap:butt;stroke-linejoin:miter;stroke-miterlimit:3.25;stroke-dasharray:none;stroke-opacity:1"
           d="m 27.633,135.562 h 2.398" />
        <path
           inkscape:connector-curvature="0"
           id="path1008"
           style="fill:none;stroke:#666666;stroke-width:0.5;stroke-linecap:butt;stroke-linejoin:miter;stroke-miterlimit:3.25;stroke-dasharray:none;stroke-opacity:1"
           d="m 27.633,124.305 h 2.398" />
        <path
           inkscape:connector-curvature="0"
           id="path1010"
           style="fill:none;stroke:#666666;stroke-width:0.5;stroke-linecap:butt;stroke-linejoin:miter;stroke-miterlimit:3.25;stroke-dasharray:none;stroke-opacity:1"
           d="m 27.633,113.051 h 2.398" />
        <path
           inkscape:connector-curvature="0"
           id="path1012"
           style="fill:none;stroke:#666666;stroke-width:0.5;stroke-linecap:butt;stroke-linejoin:miter;stroke-miterlimit:3.25;stroke-dasharray:none;stroke-opacity:1"
           d="m 27.633,101.797 h 2.398" />
        <path
           inkscape:connector-curvature="0"
           id="path1014"
           style="fill:none;stroke:#666666;stroke-width:0.5;stroke-linecap:butt;stroke-linejoin:miter;stroke-miterlimit:3.25;stroke-dasharray:none;stroke-opacity:1"
           d="m 27.633,90.539 h 4" />
        <text
           id="text1018"
           style="font-variant:normal;font-size:10px;font-family:CairoFont-0;-inkscape-font-specification:CairoFont-0-0;writing-mode:lr-tb;fill:#666666;fill-opacity:1;fill-rule:nonzero;stroke:none"
           transform="translate(5.683594,93.916016)">
          <tspan
             id="tspan1016"
             sodipodi:role="line"
             y="0"
             x="0 5.5599999 8.3000002 13.86">0.00</tspan>
        </text>
        <path
           inkscape:connector-curvature="0"
           id="path1020"
           style="fill:none;stroke:#666666;stroke-width:0.5;stroke-linecap:butt;stroke-linejoin:miter;stroke-miterlimit:3.25;stroke-dasharray:none;stroke-opacity:1"
           d="m 27.633,79.285 h 2.398" />
        <path
           inkscape:connector-curvature="0"
           id="path1022"
           style="fill:none;stroke:#666666;stroke-width:0.5;stroke-linecap:butt;stroke-linejoin:miter;stroke-miterlimit:3.25;stroke-dasharray:none;stroke-opacity:1"
           d="m 27.633,68.031 h 2.398" />
        <path
           inkscape:connector-curvature="0"
           id="path1024"
           style="fill:none;stroke:#666666;stroke-width:0.5;stroke-linecap:butt;stroke-linejoin:miter;stroke-miterlimit:3.25;stroke-dasharray:none;stroke-opacity:1"
           d="m 27.633,56.777 h 2.398" />
        <path
           inkscape:connector-curvature="0"
           id="path1026"
           style="fill:none;stroke:#666666;stroke-width:0.5;stroke-linecap:butt;stroke-linejoin:miter;stroke-miterlimit:3.25;stroke-dasharray:none;stroke-opacity:1"
           d="m 27.633,45.52 h 2.398" />
        <path
           inkscape:connector-curvature="0"
           id="path1028"
           style="fill:none;stroke:#666666;stroke-width:0.5;stroke-linecap:butt;stroke-linejoin:miter;stroke-miterlimit:3.25;stroke-dasharray:none;stroke-opacity:1"
           d="m 27.633,34.266 h 4" />
        <text
           id="text1032"
           style="font-variant:normal;font-size:10px;font-family:CairoFont-0;-inkscape-font-specification:CairoFont-0-0;writing-mode:lr-tb;fill:#666666;fill-opacity:1;fill-rule:nonzero;stroke:none"
           transform="translate(5.683594,37.640381)">
          <tspan
             id="tspan1030"
             sodipodi:role="line"
             y="0"
             x="0 5.5599999 8.3000002 13.86">0.05</tspan>
        </text>
        <path
           inkscape:connector-curvature="0"
           id="path1034"
           style="fill:none;stroke:#666666;stroke-width:0.5;stroke-linecap:butt;stroke-linejoin:miter;stroke-miterlimit:3.25;stroke-dasharray:none;stroke-opacity:1"
           d="m 27.633,23.012 h 2.398" />
        <path
           inkscape:connector-curvature="0"
           id="path1036"
           style="fill:none;stroke:#666666;stroke-width:0.5;stroke-linecap:butt;stroke-linejoin:miter;stroke-miterlimit:3.25;stroke-dasharray:none;stroke-opacity:1"
           d="m 27.633,11.754 h 2.398" />
        <path
           inkscape:connector-curvature="0"
           id="path1038"
           style="fill:none;stroke:#666666;stroke-width:0.5;stroke-linecap:butt;stroke-linejoin:miter;stroke-miterlimit:3.25;stroke-dasharray:none;stroke-opacity:1"
           d="m 27.633,0.5 h 2.398" />
        <path
           inkscape:connector-curvature="0"
           id="path1040"
           style="fill:none;stroke:#666666;stroke-width:0.5;stroke-linecap:butt;stroke-linejoin:miter;stroke-miterlimit:3.25;stroke-dasharray:none;stroke-opacity:1"
           d="m 27.633,0.5 v 4" />
        <path
           inkscape:connector-curvature="0"
           id="path1042"
           style="fill:none;stroke:#666666;stroke-width:0.5;stroke-linecap:butt;stroke-linejoin:miter;stroke-miterlimit:3.25;stroke-dasharray:none;stroke-opacity:1"
           d="M 49.242,0.5 V 2.898" />
        <path
           inkscape:connector-curvature="0"
           id="path1044"
           style="fill:none;stroke:#666666;stroke-width:0.5;stroke-linecap:butt;stroke-linejoin:miter;stroke-miterlimit:3.25;stroke-dasharray:none;stroke-opacity:1"
           d="M 70.852,0.5 V 2.898" />
        <path
           inkscape:connector-curvature="0"
           id="path1046"
           style="fill:none;stroke:#666666;stroke-width:0.5;stroke-linecap:butt;stroke-linejoin:miter;stroke-miterlimit:3.25;stroke-dasharray:none;stroke-opacity:1"
           d="M 92.461,0.5 V 2.898" />
        <path
           inkscape:connector-curvature="0"
           id="path1048"
           style="fill:none;stroke:#666666;stroke-width:0.5;stroke-linecap:butt;stroke-linejoin:miter;stroke-miterlimit:3.25;stroke-dasharray:none;stroke-opacity:1"
           d="M 114.07,0.5 V 2.898" />
        <path
           inkscape:connector-curvature="0"
           id="path1050"
           style="fill:none;stroke:#666666;stroke-width:0.5;stroke-linecap:butt;stroke-linejoin:miter;stroke-miterlimit:3.25;stroke-dasharray:none;stroke-opacity:1"
           d="m 135.684,0.5 v 4" />
        <path
           inkscape:connector-curvature="0"
           id="path1052"
           style="fill:none;stroke:#666666;stroke-width:0.5;stroke-linecap:butt;stroke-linejoin:miter;stroke-miterlimit:3.25;stroke-dasharray:none;stroke-opacity:1"
           d="M 157.293,0.5 V 2.898" />
        <path
           inkscape:connector-curvature="0"
           id="path1054"
           style="fill:none;stroke:#666666;stroke-width:0.5;stroke-linecap:butt;stroke-linejoin:miter;stroke-miterlimit:3.25;stroke-dasharray:none;stroke-opacity:1"
           d="M 178.902,0.5 V 2.898" />
        <path
           inkscape:connector-curvature="0"
           id="path1056"
           style="fill:none;stroke:#666666;stroke-width:0.5;stroke-linecap:butt;stroke-linejoin:miter;stroke-miterlimit:3.25;stroke-dasharray:none;stroke-opacity:1"
           d="M 200.512,0.5 V 2.898" />
        <path
           inkscape:connector-curvature="0"
           id="path1058"
           style="fill:none;stroke:#666666;stroke-width:0.5;stroke-linecap:butt;stroke-linejoin:miter;stroke-miterlimit:3.25;stroke-dasharray:none;stroke-opacity:1"
           d="M 222.121,0.5 V 2.898" />
        <path
           inkscape:connector-curvature="0"
           id="path1060"
           style="fill:none;stroke:#666666;stroke-width:0.5;stroke-linecap:butt;stroke-linejoin:miter;stroke-miterlimit:3.25;stroke-dasharray:none;stroke-opacity:1"
           d="m 243.73,0.5 v 4" />
        <path
           inkscape:connector-curvature="0"
           id="path1062"
           style="fill:none;stroke:#666666;stroke-width:0.5;stroke-linecap:butt;stroke-linejoin:miter;stroke-miterlimit:3.25;stroke-dasharray:none;stroke-opacity:1"
           d="M 265.34,0.5 V 2.898" />
        <path
           inkscape:connector-curvature="0"
           id="path1064"
           style="fill:none;stroke:#666666;stroke-width:0.5;stroke-linecap:butt;stroke-linejoin:miter;stroke-miterlimit:3.25;stroke-dasharray:none;stroke-opacity:1"
           d="M 286.949,0.5 V 2.898" />
        <path
           inkscape:connector-curvature="0"
           id="path1066"
           style="fill:none;stroke:#666666;stroke-width:0.5;stroke-linecap:butt;stroke-linejoin:miter;stroke-miterlimit:3.25;stroke-dasharray:none;stroke-opacity:1"
           d="M 308.562,0.5 V 2.898" />
        <path
           inkscape:connector-curvature="0"
           id="path1068"
           style="fill:none;stroke:#666666;stroke-width:0.5;stroke-linecap:butt;stroke-linejoin:miter;stroke-miterlimit:3.25;stroke-dasharray:none;stroke-opacity:1"
           d="M 330.172,0.5 V 2.898" />
        <path
           inkscape:connector-curvature="0"
           id="path1070"
           style="fill:none;stroke:#666666;stroke-width:0.5;stroke-linecap:butt;stroke-linejoin:miter;stroke-miterlimit:3.25;stroke-dasharray:none;stroke-opacity:1"
           d="m 351.781,0.5 v 4" />
        <path
           inkscape:connector-curvature="0"
           id="path1072"
           style="fill:none;stroke:#666666;stroke-width:0.5;stroke-linecap:butt;stroke-linejoin:miter;stroke-miterlimit:3.25;stroke-dasharray:none;stroke-opacity:1"
           d="M 373.391,0.5 V 2.898" />
        <path
           inkscape:connector-curvature="0"
           id="path1074"
           style="fill:none;stroke:#666666;stroke-width:0.5;stroke-linecap:butt;stroke-linejoin:miter;stroke-miterlimit:3.25;stroke-dasharray:none;stroke-opacity:1"
           d="M 395,0.5 V 2.898" />
        <path
           inkscape:connector-curvature="0"
           id="path1076"
           style="fill:none;stroke:#666666;stroke-width:0.5;stroke-linecap:butt;stroke-linejoin:miter;stroke-miterlimit:3.25;stroke-dasharray:none;stroke-opacity:1"
           d="M 416.609,0.5 V 2.898" />
        <path
           inkscape:connector-curvature="0"
           id="path1078"
           style="fill:none;stroke:#666666;stroke-width:0.5;stroke-linecap:butt;stroke-linejoin:miter;stroke-miterlimit:3.25;stroke-dasharray:none;stroke-opacity:1"
           d="M 438.219,0.5 V 2.898" />
        <path
           inkscape:connector-curvature="0"
           id="path1080"
           style="fill:none;stroke:#666666;stroke-width:0.5;stroke-linecap:butt;stroke-linejoin:miter;stroke-miterlimit:3.25;stroke-dasharray:none;stroke-opacity:1"
           d="m 459.828,0.5 v 4" />
        <path
           inkscape:connector-curvature="0"
           id="path1082"
           style="fill:none;stroke:#666666;stroke-width:0.5;stroke-linecap:butt;stroke-linejoin:miter;stroke-miterlimit:3.25;stroke-dasharray:none;stroke-opacity:1"
           d="M 481.441,0.5 V 2.898" />
        <path
           inkscape:connector-curvature="0"
           id="path1084"
           style="fill:none;stroke:#666666;stroke-width:0.5;stroke-linecap:butt;stroke-linejoin:miter;stroke-miterlimit:3.25;stroke-dasharray:none;stroke-opacity:1"
           d="M 503.051,0.5 V 2.898" />
        <path
           inkscape:connector-curvature="0"
           id="path1086"
           style="fill:none;stroke:#666666;stroke-width:0.5;stroke-linecap:butt;stroke-linejoin:miter;stroke-miterlimit:3.25;stroke-dasharray:none;stroke-opacity:1"
           d="M 524.66,0.5 V 2.898" />
        <path
           inkscape:connector-curvature="0"
           id="path1088"
           style="fill:none;stroke:#666666;stroke-width:0.5;stroke-linecap:butt;stroke-linejoin:miter;stroke-miterlimit:3.25;stroke-dasharray:none;stroke-opacity:1"
           d="M 546.27,0.5 V 2.898" />
        <path
           inkscape:connector-curvature="0"
           id="path1090"
           style="fill:none;stroke:#666666;stroke-width:0.5;stroke-linecap:butt;stroke-linejoin:miter;stroke-miterlimit:3.25;stroke-dasharray:none;stroke-opacity:1"
           d="m 567.879,0.5 v 4" />
        <path
           inkscape:connector-curvature="0"
           id="path1092"
           style="fill:none;stroke:#666666;stroke-width:0.5;stroke-linecap:butt;stroke-linejoin:miter;stroke-miterlimit:3.25;stroke-dasharray:none;stroke-opacity:1"
           d="M 567.879,180.582 H 565.48" />
        <path
           inkscape:connector-curvature="0"
           id="path1094"
           style="fill:none;stroke:#666666;stroke-width:0.5;stroke-linecap:butt;stroke-linejoin:miter;stroke-miterlimit:3.25;stroke-dasharray:none;stroke-opacity:1"
           d="M 567.879,169.328 H 565.48" />
        <path
           inkscape:connector-curvature="0"
           id="path1096"
           style="fill:none;stroke:#666666;stroke-width:0.5;stroke-linecap:butt;stroke-linejoin:miter;stroke-miterlimit:3.25;stroke-dasharray:none;stroke-opacity:1"
           d="M 567.879,158.07 H 565.48" />
        <path
           inkscape:connector-curvature="0"
           id="path1098"
           style="fill:none;stroke:#666666;stroke-width:0.5;stroke-linecap:butt;stroke-linejoin:miter;stroke-miterlimit:3.25;stroke-dasharray:none;stroke-opacity:1"
           d="m 567.879,146.816 h -4" />
        <path
           inkscape:connector-curvature="0"
           id="path1100"
           style="fill:none;stroke:#666666;stroke-width:0.5;stroke-linecap:butt;stroke-linejoin:miter;stroke-miterlimit:3.25;stroke-dasharray:none;stroke-opacity:1"
           d="M 567.879,135.562 H 565.48" />
        <path
           inkscape:connector-curvature="0"
           id="path1102"
           style="fill:none;stroke:#666666;stroke-width:0.5;stroke-linecap:butt;stroke-linejoin:miter;stroke-miterlimit:3.25;stroke-dasharray:none;stroke-opacity:1"
           d="M 567.879,124.305 H 565.48" />
        <path
           inkscape:connector-curvature="0"
           id="path1104"
           style="fill:none;stroke:#666666;stroke-width:0.5;stroke-linecap:butt;stroke-linejoin:miter;stroke-miterlimit:3.25;stroke-dasharray:none;stroke-opacity:1"
           d="M 567.879,113.051 H 565.48" />
        <path
           inkscape:connector-curvature="0"
           id="path1106"
           style="fill:none;stroke:#666666;stroke-width:0.5;stroke-linecap:butt;stroke-linejoin:miter;stroke-miterlimit:3.25;stroke-dasharray:none;stroke-opacity:1"
           d="M 567.879,101.797 H 565.48" />
        <path
           inkscape:connector-curvature="0"
           id="path1108"
           style="fill:none;stroke:#666666;stroke-width:0.5;stroke-linecap:butt;stroke-linejoin:miter;stroke-miterlimit:3.25;stroke-dasharray:none;stroke-opacity:1"
           d="m 567.879,90.539 h -4" />
        <path
           inkscape:connector-curvature="0"
           id="path1110"
           style="fill:none;stroke:#666666;stroke-width:0.5;stroke-linecap:butt;stroke-linejoin:miter;stroke-miterlimit:3.25;stroke-dasharray:none;stroke-opacity:1"
           d="M 567.879,79.285 H 565.48" />
        <path
           inkscape:connector-curvature="0"
           id="path1112"
           style="fill:none;stroke:#666666;stroke-width:0.5;stroke-linecap:butt;stroke-linejoin:miter;stroke-miterlimit:3.25;stroke-dasharray:none;stroke-opacity:1"
           d="M 567.879,68.031 H 565.48" />
        <path
           inkscape:connector-curvature="0"
           id="path1114"
           style="fill:none;stroke:#666666;stroke-width:0.5;stroke-linecap:butt;stroke-linejoin:miter;stroke-miterlimit:3.25;stroke-dasharray:none;stroke-opacity:1"
           d="M 567.879,56.777 H 565.48" />
        <path
           inkscape:connector-curvature="0"
           id="path1116"
           style="fill:none;stroke:#666666;stroke-width:0.5;stroke-linecap:butt;stroke-linejoin:miter;stroke-miterlimit:3.25;stroke-dasharray:none;stroke-opacity:1"
           d="M 567.879,45.52 H 565.48" />
        <path
           inkscape:connector-curvature="0"
           id="path1118"
           style="fill:none;stroke:#666666;stroke-width:0.5;stroke-linecap:butt;stroke-linejoin:miter;stroke-miterlimit:3.25;stroke-dasharray:none;stroke-opacity:1"
           d="m 567.879,34.266 h -4" />
        <path
           inkscape:connector-curvature="0"
           id="path1120"
           style="fill:none;stroke:#666666;stroke-width:0.5;stroke-linecap:butt;stroke-linejoin:miter;stroke-miterlimit:3.25;stroke-dasharray:none;stroke-opacity:1"
           d="M 567.879,23.012 H 565.48" />
        <path
           inkscape:connector-curvature="0"
           id="path1122"
           style="fill:none;stroke:#666666;stroke-width:0.5;stroke-linecap:butt;stroke-linejoin:miter;stroke-miterlimit:3.25;stroke-dasharray:none;stroke-opacity:1"
           d="M 567.879,11.754 H 565.48" />
        <path
           inkscape:connector-curvature="0"
           id="path1124"
           style="fill:none;stroke:#666666;stroke-width:0.5;stroke-linecap:butt;stroke-linejoin:miter;stroke-miterlimit:3.25;stroke-dasharray:none;stroke-opacity:1"
           d="M 567.879,0.5 H 565.48" />
        <path
           inkscape:connector-curvature="0"
           id="path1126"
           style="fill:none;stroke:#666666;stroke-width:0.2;stroke-linecap:butt;stroke-linejoin:miter;stroke-miterlimit:3.25;stroke-dasharray:none;stroke-opacity:1"
           d="M 27.633,90.539 H 567.879" />
        <path
           inkscape:connector-curvature="0"
           id="path1128"
           style="fill:#ff0000;fill-opacity:1;fill-rule:evenodd;stroke:none"
           d="m 52.297,90.539 c 0,-0.594 -0.238,-1.168 -0.66,-1.59 -0.422,-0.422 -0.992,-0.66 -1.59,-0.66 -0.598,0 -1.172,0.238 -1.594,0.66 -0.422,0.422 -0.656,0.996 -0.656,1.59 0,0.598 0.234,1.172 0.656,1.594 0.422,0.422 0.996,0.656 1.594,0.656 0.598,0 1.168,-0.234 1.59,-0.656 0.422,-0.422 0.66,-0.996 0.66,-1.594 z" />
        <path
           inkscape:connector-curvature="0"
           id="path1130"
           style="fill:#ff0000;fill-opacity:1;fill-rule:evenodd;stroke:none"
           d="m 116.277,90.539 c 0,-0.594 -0.238,-1.168 -0.66,-1.59 -0.422,-0.422 -0.992,-0.66 -1.59,-0.66 -0.597,0 -1.168,0.238 -1.589,0.66 -0.422,0.422 -0.661,0.996 -0.661,1.59 0,0.598 0.239,1.172 0.661,1.594 0.421,0.422 0.992,0.656 1.589,0.656 0.598,0 1.168,-0.234 1.59,-0.656 0.422,-0.422 0.66,-0.996 0.66,-1.594 z" />
        <path
           inkscape:connector-curvature="0"
           id="path1132"
           style="fill:#ff0000;fill-opacity:1;fill-rule:evenodd;stroke:none"
           d="m 222.918,90.539 c 0,-0.594 -0.238,-1.168 -0.66,-1.59 -0.422,-0.422 -0.996,-0.66 -1.59,-0.66 -0.598,0 -1.172,0.238 -1.594,0.66 -0.422,0.422 -0.656,0.996 -0.656,1.59 0,0.598 0.234,1.172 0.656,1.594 0.422,0.422 0.996,0.656 1.594,0.656 0.594,0 1.168,-0.234 1.59,-0.656 0.422,-0.422 0.66,-0.996 0.66,-1.594 z" />
        <path
           inkscape:connector-curvature="0"
           id="path1134"
           style="fill:#ff0000;fill-opacity:1;fill-rule:evenodd;stroke:none"
           d="m 372.211,90.539 c 0,-0.594 -0.234,-1.168 -0.656,-1.59 -0.422,-0.422 -0.996,-0.66 -1.594,-0.66 -0.594,0 -1.168,0.238 -1.59,0.66 -0.422,0.422 -0.66,0.996 -0.66,1.59 0,0.598 0.238,1.172 0.66,1.594 0.422,0.422 0.996,0.656 1.59,0.656 0.598,0 1.172,-0.234 1.594,-0.656 0.422,-0.422 0.656,-0.996 0.656,-1.594 z" />
        <path
           inkscape:connector-curvature="0"
           id="path1136"
           style="fill:#ff0000;fill-opacity:1;fill-rule:evenodd;stroke:none"
           d="m 564.164,90.539 c 0,-0.594 -0.234,-1.168 -0.656,-1.59 -0.422,-0.422 -0.996,-0.66 -1.594,-0.66 -0.598,0 -1.168,0.238 -1.59,0.66 -0.422,0.422 -0.66,0.996 -0.66,1.59 0,0.598 0.238,1.172 0.66,1.594 0.422,0.422 0.992,0.656 1.59,0.656 0.598,0 1.172,-0.234 1.594,-0.656 0.422,-0.422 0.656,-0.996 0.656,-1.594 z" />
      </g>
    </g>
    <rect
       style="fill:none;fill-opacity:1;stroke:none;stroke-width:0.5;stroke-miterlimit:4;stroke-dasharray:none;stroke-dashoffset:0;stroke-opacity:1"
       id="rect1286"
       width="225.2738"
       height="72.571426"
       x="193.7128"
       y="222.72768" />
    <rect
       style="fill:none;fill-opacity:1;stroke:none;stroke-width:0.5;stroke-miterlimit:4;stroke-dasharray:none;stroke-dashoffset:0;stroke-opacity:1"
       id="rect1288"
       width="205.24107"
       height="71.815475"
       x="204.48512"
       y="223.48363" />
  </g>
</svg>
