<?xml version="1.0" encoding="UTF-8" standalone="no"?>
<!-- Created with Inkscape (http://www.inkscape.org/) -->

<svg
   xmlns:dc="http://purl.org/dc/elements/1.1/"
   xmlns:cc="http://creativecommons.org/ns#"
   xmlns:rdf="http://www.w3.org/1999/02/22-rdf-syntax-ns#"
   xmlns:svg="http://www.w3.org/2000/svg"
   xmlns="http://www.w3.org/2000/svg"
   xmlns:sodipodi="http://sodipodi.sourceforge.net/DTD/sodipodi-0.dtd"
   xmlns:inkscape="http://www.inkscape.org/namespaces/inkscape"
   version="1.1"
   id="svg2"
   xml:space="preserve"
   width="602.80511"
   height="379.83051"
   viewBox="0 0 602.80511 379.83051"
   sodipodi:docname="plot7.svg"
   inkscape:version="0.92.3 (2405546, 2018-03-11)"><metadata
     id="metadata8"><rdf:RDF><cc:Work
         rdf:about=""><dc:format>image/svg+xml</dc:format><dc:type
           rdf:resource="http://purl.org/dc/dcmitype/StillImage" /><dc:title></dc:title></cc:Work></rdf:RDF></metadata><defs
     id="defs6"><clipPath
       clipPathUnits="userSpaceOnUse"
       id="clipPath20"><path
         d="m 97,5.281 h 2 v 229.438 h -2 z"
         id="path18"
         inkscape:connector-curvature="0" /></clipPath><clipPath
       clipPathUnits="userSpaceOnUse"
       id="clipPath30"><path
         d="m 179,5.281 h 2 v 229.438 h -2 z"
         id="path28"
         inkscape:connector-curvature="0" /></clipPath><clipPath
       clipPathUnits="userSpaceOnUse"
       id="clipPath40"><path
         d="m 261,5.281 h 2 v 229.438 h -2 z"
         id="path38"
         inkscape:connector-curvature="0" /></clipPath><clipPath
       clipPathUnits="userSpaceOnUse"
       id="clipPath60"><path
         d="M 15.84,20 H 19 v 5 h -3.16 z"
         id="path58"
         inkscape:connector-curvature="0" /></clipPath><clipPath
       clipPathUnits="userSpaceOnUse"
       id="clipPath82"><path
         d="m 112,231 h 5 v 3.719 h -5 z"
         id="path80"
         inkscape:connector-curvature="0" /></clipPath><clipPath
       clipPathUnits="userSpaceOnUse"
       id="clipPath106"><path
         d="m 226,230 h 6 v 4.719 h -6 z"
         id="path104"
         inkscape:connector-curvature="0" /></clipPath><clipPath
       clipPathUnits="userSpaceOnUse"
       id="clipPath116"><path
         d="m 242,231 h 6 v 3.719 h -6 z"
         id="path114"
         inkscape:connector-curvature="0" /></clipPath></defs><sodipodi:namedview
     pagecolor="#ffffff"
     bordercolor="#666666"
     borderopacity="1"
     objecttolerance="10"
     gridtolerance="10"
     guidetolerance="10"
     inkscape:pageopacity="0"
     inkscape:pageshadow="2"
     inkscape:window-width="1920"
     inkscape:window-height="1017"
     id="namedview4"
     showgrid="false"
     inkscape:zoom="1.4216867"
     inkscape:cx="512.5311"
     inkscape:cy="190.51659"
     inkscape:window-x="0"
     inkscape:window-y="0"
     inkscape:window-maximized="1"
     inkscape:current-layer="g10"
     fit-margin-top="0"
     fit-margin-left="0"
     fit-margin-right="0"
     fit-margin-bottom="0" /><g
     id="g10"
     inkscape:groupmode="layer"
     inkscape:label="plot7"
     transform="matrix(1.3333333,0,0,1.3333333,61.898304,7.0339068)"><g
       id="g12" /><g
       id="g14"><g
         id="g16"
         clip-path="url(#clipPath20)"><path
           d="M 98.195,234.27 V 5.625"
           style="fill:none;stroke:#808080;stroke-width:1;stroke-linecap:butt;stroke-linejoin:miter;stroke-miterlimit:3.25;stroke-dasharray:none;stroke-opacity:0.4"
           id="path22"
           inkscape:connector-curvature="0" /></g></g><g
       id="g24"><g
         id="g26"
         clip-path="url(#clipPath30)"><path
           d="M 179.852,234.27 V 5.625"
           style="fill:none;stroke:#808080;stroke-width:1;stroke-linecap:butt;stroke-linejoin:miter;stroke-miterlimit:3.25;stroke-dasharray:none;stroke-opacity:0.4"
           id="path32"
           inkscape:connector-curvature="0" /></g></g><g
       id="g34"><g
         id="g36"
         clip-path="url(#clipPath40)"><path
           d="M 261.512,234.27 V 5.625"
           style="fill:none;stroke:#808080;stroke-width:1;stroke-linecap:butt;stroke-linejoin:miter;stroke-miterlimit:3.25;stroke-dasharray:none;stroke-opacity:0.4"
           id="path42"
           inkscape:connector-curvature="0" /></g></g><g
       id="g44"><path
         d="M 16.535,188.539 H 359.5"
         style="fill:none;stroke:#808080;stroke-width:1;stroke-linecap:butt;stroke-linejoin:miter;stroke-miterlimit:3.25;stroke-dasharray:none;stroke-opacity:0.4"
         id="path46"
         inkscape:connector-curvature="0" /><path
         d="M 16.535,142.812 H 359.5"
         style="fill:none;stroke:#808080;stroke-width:1;stroke-linecap:butt;stroke-linejoin:miter;stroke-miterlimit:3.25;stroke-dasharray:none;stroke-opacity:0.4"
         id="path48"
         inkscape:connector-curvature="0" /><path
         d="M 16.535,97.082 H 359.5"
         style="fill:none;stroke:#808080;stroke-width:1;stroke-linecap:butt;stroke-linejoin:miter;stroke-miterlimit:3.25;stroke-dasharray:none;stroke-opacity:0.4"
         id="path50"
         inkscape:connector-curvature="0" /><path
         d="M 16.535,51.355 H 359.5"
         style="fill:none;stroke:#808080;stroke-width:1;stroke-linecap:butt;stroke-linejoin:miter;stroke-miterlimit:3.25;stroke-dasharray:none;stroke-opacity:0.4"
         id="path52"
         inkscape:connector-curvature="0" /></g><g
       id="g54"><g
         id="g56"
         clip-path="url(#clipPath60)"><path
           d="m 18.734,22.773 c 0,-0.585 -0.23,-1.144 -0.644,-1.558 -0.41,-0.414 -0.973,-0.645 -1.555,-0.645 -0.582,0 -1.144,0.231 -1.555,0.645 -0.414,0.414 -0.644,0.973 -0.644,1.558 0,0.582 0.23,1.141 0.644,1.555 0.411,0.414 0.973,0.645 1.555,0.645 0.582,0 1.145,-0.231 1.555,-0.645 0.414,-0.414 0.644,-0.973 0.644,-1.555 z"
           style="fill:#000000;fill-opacity:1;fill-rule:evenodd;stroke:none"
           id="path62"
           inkscape:connector-curvature="0" /></g></g><g
       id="g64"><path
         d="m 35.066,53.305 c 0,-0.586 -0.23,-1.145 -0.644,-1.559 -0.41,-0.41 -0.973,-0.644 -1.555,-0.644 -0.586,0 -1.144,0.234 -1.555,0.644 -0.414,0.414 -0.644,0.973 -0.644,1.559 0,0.582 0.23,1.14 0.644,1.554 0.411,0.414 0.969,0.645 1.555,0.645 0.582,0 1.145,-0.231 1.555,-0.645 0.414,-0.414 0.644,-0.972 0.644,-1.554 z"
         style="fill:#000000;fill-opacity:1;fill-rule:evenodd;stroke:none"
         id="path66"
         inkscape:connector-curvature="0" /><path
         d="m 51.398,104.449 c 0,-0.582 -0.23,-1.14 -0.644,-1.554 -0.41,-0.415 -0.973,-0.645 -1.555,-0.645 -0.586,0 -1.144,0.23 -1.558,0.645 -0.411,0.414 -0.645,0.972 -0.645,1.554 0,0.586 0.234,1.145 0.645,1.559 0.414,0.41 0.972,0.644 1.558,0.644 0.582,0 1.145,-0.234 1.555,-0.644 0.414,-0.414 0.644,-0.973 0.644,-1.559 z"
         style="fill:#000000;fill-opacity:1;fill-rule:evenodd;stroke:none"
         id="path68"
         inkscape:connector-curvature="0" /><path
         d="m 67.73,160.355 c 0,-0.585 -0.23,-1.144 -0.644,-1.558 -0.414,-0.41 -0.973,-0.645 -1.555,-0.645 -0.586,0 -1.144,0.235 -1.558,0.645 -0.411,0.414 -0.645,0.973 -0.645,1.558 0,0.583 0.234,1.141 0.645,1.555 0.414,0.414 0.972,0.645 1.558,0.645 0.582,0 1.141,-0.231 1.555,-0.645 0.414,-0.414 0.644,-0.972 0.644,-1.555 z"
         style="fill:#000000;fill-opacity:1;fill-rule:evenodd;stroke:none"
         id="path70"
         inkscape:connector-curvature="0" /><path
         d="m 84.062,205.414 c 0,-0.586 -0.23,-1.144 -0.644,-1.559 -0.414,-0.41 -0.973,-0.644 -1.555,-0.644 -0.586,0 -1.144,0.234 -1.558,0.644 -0.41,0.415 -0.645,0.973 -0.645,1.559 0,0.582 0.235,1.141 0.645,1.555 0.414,0.414 0.972,0.644 1.558,0.644 0.582,0 1.141,-0.23 1.555,-0.644 0.414,-0.414 0.644,-0.973 0.644,-1.555 z"
         style="fill:#000000;fill-opacity:1;fill-rule:evenodd;stroke:none"
         id="path72"
         inkscape:connector-curvature="0" /><path
         d="m 100.395,230 c 0,-0.586 -0.231,-1.145 -0.645,-1.559 -0.414,-0.41 -0.973,-0.644 -1.555,-0.644 -0.586,0 -1.144,0.234 -1.558,0.644 -0.41,0.414 -0.645,0.973 -0.645,1.559 0,0.582 0.235,1.145 0.645,1.555 0.414,0.414 0.972,0.644 1.558,0.644 0.582,0 1.141,-0.23 1.555,-0.644 0.414,-0.41 0.645,-0.973 0.645,-1.555 z"
         style="fill:#000000;fill-opacity:1;fill-rule:evenodd;stroke:none"
         id="path74"
         inkscape:connector-curvature="0" /></g><g
       id="g76"><g
         id="g78"
         clip-path="url(#clipPath82)"><path
           d="m 116.727,233.32 c 0,-0.582 -0.235,-1.14 -0.645,-1.554 -0.414,-0.414 -0.973,-0.645 -1.559,-0.645 -0.582,0 -1.14,0.231 -1.554,0.645 -0.414,0.414 -0.645,0.972 -0.645,1.554 0,0.586 0.231,1.145 0.645,1.559 0.414,0.414 0.972,0.644 1.554,0.644 0.586,0 1.145,-0.23 1.559,-0.644 0.41,-0.414 0.645,-0.973 0.645,-1.559 z"
           style="fill:#000000;fill-opacity:1;fill-rule:evenodd;stroke:none"
           id="path84"
           inkscape:connector-curvature="0" /></g></g><g
       id="g86"><path
         d="m 133.059,222.422 c 0,-0.582 -0.235,-1.145 -0.645,-1.555 -0.414,-0.414 -0.973,-0.644 -1.559,-0.644 -0.582,0 -1.14,0.23 -1.554,0.644 -0.414,0.41 -0.645,0.973 -0.645,1.555 0,0.586 0.231,1.144 0.645,1.555 0.414,0.414 0.972,0.644 1.554,0.644 0.586,0 1.145,-0.23 1.559,-0.644 0.41,-0.411 0.645,-0.969 0.645,-1.555 z"
         style="fill:#000000;fill-opacity:1;fill-rule:evenodd;stroke:none"
         id="path88"
         inkscape:connector-curvature="0" /><path
         d="m 149.391,208.07 c 0,-0.582 -0.235,-1.144 -0.645,-1.554 -0.414,-0.414 -0.973,-0.645 -1.558,-0.645 -0.583,0 -1.141,0.231 -1.555,0.645 -0.414,0.41 -0.645,0.972 -0.645,1.554 0,0.582 0.231,1.145 0.645,1.555 0.414,0.414 0.972,0.645 1.555,0.645 0.585,0 1.144,-0.231 1.558,-0.645 0.41,-0.41 0.645,-0.973 0.645,-1.555 z"
         style="fill:#000000;fill-opacity:1;fill-rule:evenodd;stroke:none"
         id="path90"
         inkscape:connector-curvature="0" /><path
         d="m 165.723,199.652 c 0,-0.586 -0.235,-1.144 -0.645,-1.558 -0.414,-0.41 -0.973,-0.645 -1.558,-0.645 -0.582,0 -1.145,0.235 -1.555,0.645 -0.414,0.414 -0.645,0.972 -0.645,1.558 0,0.582 0.231,1.141 0.645,1.555 0.41,0.414 0.973,0.645 1.555,0.645 0.585,0 1.144,-0.231 1.558,-0.645 0.41,-0.414 0.645,-0.973 0.645,-1.555 z"
         style="fill:#000000;fill-opacity:1;fill-rule:evenodd;stroke:none"
         id="path92"
         inkscape:connector-curvature="0" /><path
         d="m 182.051,201.391 c 0,-0.586 -0.231,-1.145 -0.645,-1.559 -0.41,-0.41 -0.972,-0.644 -1.554,-0.644 -0.582,0 -1.145,0.234 -1.555,0.644 -0.414,0.414 -0.645,0.973 -0.645,1.559 0,0.582 0.231,1.14 0.645,1.554 0.41,0.414 0.973,0.645 1.555,0.645 0.582,0 1.144,-0.231 1.554,-0.645 0.414,-0.414 0.645,-0.972 0.645,-1.554 z"
         style="fill:#000000;fill-opacity:1;fill-rule:evenodd;stroke:none"
         id="path94"
         inkscape:connector-curvature="0" /><path
         d="m 198.383,211.449 c 0,-0.586 -0.231,-1.144 -0.645,-1.558 -0.41,-0.411 -0.972,-0.645 -1.554,-0.645 -0.582,0 -1.145,0.234 -1.555,0.645 -0.414,0.414 -0.645,0.972 -0.645,1.558 0,0.582 0.231,1.141 0.645,1.555 0.41,0.414 0.973,0.644 1.555,0.644 0.582,0 1.144,-0.23 1.554,-0.644 0.414,-0.414 0.645,-0.973 0.645,-1.555 z"
         style="fill:#000000;fill-opacity:1;fill-rule:evenodd;stroke:none"
         id="path96"
         inkscape:connector-curvature="0" /><path
         d="m 214.715,223.941 c 0,-0.582 -0.231,-1.14 -0.645,-1.554 -0.41,-0.414 -0.972,-0.645 -1.554,-0.645 -0.586,0 -1.145,0.231 -1.559,0.645 -0.41,0.414 -0.645,0.972 -0.645,1.554 0,0.586 0.235,1.145 0.645,1.559 0.414,0.41 0.973,0.645 1.559,0.645 0.582,0 1.144,-0.235 1.554,-0.645 0.414,-0.414 0.645,-0.973 0.645,-1.559 z"
         style="fill:#000000;fill-opacity:1;fill-rule:evenodd;stroke:none"
         id="path98"
         inkscape:connector-curvature="0" /></g><g
       id="g100"><g
         id="g102"
         clip-path="url(#clipPath106)"><path
           d="m 231.047,232.562 c 0,-0.585 -0.231,-1.144 -0.645,-1.558 -0.414,-0.41 -0.972,-0.645 -1.554,-0.645 -0.586,0 -1.145,0.235 -1.559,0.645 -0.41,0.414 -0.644,0.973 -0.644,1.558 0,0.583 0.234,1.145 0.644,1.555 0.414,0.414 0.973,0.645 1.559,0.645 0.582,0 1.14,-0.231 1.554,-0.645 0.414,-0.41 0.645,-0.972 0.645,-1.555 z"
           style="fill:#000000;fill-opacity:1;fill-rule:evenodd;stroke:none"
           id="path108"
           inkscape:connector-curvature="0" /></g></g><g
       id="g110"><g
         id="g112"
         clip-path="url(#clipPath116)"><path
           d="m 247.379,233.84 c 0,-0.582 -0.231,-1.141 -0.645,-1.555 -0.414,-0.414 -0.972,-0.644 -1.554,-0.644 -0.586,0 -1.145,0.23 -1.559,0.644 -0.41,0.414 -0.644,0.973 -0.644,1.555 0,0.586 0.234,1.144 0.644,1.558 0.414,0.411 0.973,0.645 1.559,0.645 0.582,0 1.14,-0.234 1.554,-0.645 0.414,-0.414 0.645,-0.972 0.645,-1.558 z"
           style="fill:#000000;fill-opacity:1;fill-rule:evenodd;stroke:none"
           id="path118"
           inkscape:connector-curvature="0" /></g></g><g
       id="g120"><path
         d="m 263.711,228.566 c 0,-0.582 -0.231,-1.14 -0.645,-1.554 -0.414,-0.414 -0.972,-0.645 -1.554,-0.645 -0.586,0 -1.145,0.231 -1.559,0.645 -0.41,0.414 -0.644,0.972 -0.644,1.554 0,0.586 0.234,1.145 0.644,1.559 0.414,0.41 0.973,0.645 1.559,0.645 0.582,0 1.14,-0.235 1.554,-0.645 0.414,-0.414 0.645,-0.973 0.645,-1.559 z"
         style="fill:#000000;fill-opacity:1;fill-rule:evenodd;stroke:none"
         id="path122"
         inkscape:connector-curvature="0" /><path
         d="m 280.043,220.824 c 0,-0.582 -0.234,-1.144 -0.645,-1.554 -0.414,-0.415 -0.972,-0.645 -1.558,-0.645 -0.582,0 -1.141,0.23 -1.555,0.645 -0.414,0.41 -0.644,0.972 -0.644,1.554 0,0.582 0.23,1.145 0.644,1.555 0.414,0.414 0.973,0.644 1.555,0.644 0.586,0 1.144,-0.23 1.558,-0.644 0.411,-0.41 0.645,-0.973 0.645,-1.555 z"
         style="fill:#000000;fill-opacity:1;fill-rule:evenodd;stroke:none"
         id="path124"
         inkscape:connector-curvature="0" /><path
         d="m 296.375,215.461 c 0,-0.582 -0.234,-1.141 -0.645,-1.555 -0.414,-0.414 -0.972,-0.644 -1.558,-0.644 -0.582,0 -1.141,0.23 -1.555,0.644 -0.414,0.414 -0.644,0.973 -0.644,1.555 0,0.586 0.23,1.144 0.644,1.559 0.414,0.41 0.973,0.644 1.555,0.644 0.586,0 1.144,-0.234 1.558,-0.644 0.411,-0.415 0.645,-0.973 0.645,-1.559 z"
         style="fill:#000000;fill-opacity:1;fill-rule:evenodd;stroke:none"
         id="path126"
         inkscape:connector-curvature="0" /><path
         d="m 312.707,215.457 c 0,-0.582 -0.234,-1.141 -0.645,-1.555 -0.414,-0.414 -0.972,-0.644 -1.558,-0.644 -0.582,0 -1.141,0.23 -1.555,0.644 -0.414,0.414 -0.644,0.973 -0.644,1.555 0,0.586 0.23,1.145 0.644,1.559 0.414,0.41 0.973,0.644 1.555,0.644 0.586,0 1.144,-0.234 1.558,-0.644 0.411,-0.414 0.645,-0.973 0.645,-1.559 z"
         style="fill:#000000;fill-opacity:1;fill-rule:evenodd;stroke:none"
         id="path128"
         inkscape:connector-curvature="0" /><path
         d="m 329.039,220.547 c 0,-0.582 -0.234,-1.141 -0.644,-1.555 -0.415,-0.414 -0.973,-0.644 -1.559,-0.644 -0.582,0 -1.145,0.23 -1.555,0.644 -0.414,0.414 -0.644,0.973 -0.644,1.555 0,0.586 0.23,1.144 0.644,1.558 0.41,0.411 0.973,0.645 1.555,0.645 0.586,0 1.144,-0.234 1.559,-0.645 0.41,-0.414 0.644,-0.972 0.644,-1.558 z"
         style="fill:#000000;fill-opacity:1;fill-rule:evenodd;stroke:none"
         id="path130"
         inkscape:connector-curvature="0" /><path
         d="m 345.367,227.711 c 0,-0.586 -0.23,-1.145 -0.644,-1.559 -0.411,-0.41 -0.969,-0.644 -1.555,-0.644 -0.582,0 -1.145,0.234 -1.555,0.644 -0.414,0.414 -0.644,0.973 -0.644,1.559 0,0.582 0.23,1.141 0.644,1.555 0.41,0.414 0.973,0.644 1.555,0.644 0.586,0 1.144,-0.23 1.555,-0.644 0.414,-0.414 0.644,-0.973 0.644,-1.555 z"
         style="fill:#000000;fill-opacity:1;fill-rule:evenodd;stroke:none"
         id="path132"
         inkscape:connector-curvature="0" /><path
         d="M 359.5,234.27 H 16.535"
         style="fill:none;stroke:#666666;stroke-width:0.5;stroke-linecap:square;stroke-linejoin:miter;stroke-miterlimit:3.25;stroke-dasharray:none;stroke-opacity:1"
         id="path134"
         inkscape:connector-curvature="0" /><path
         d="M 16.535,234.27 V 5.625"
         style="fill:none;stroke:#666666;stroke-width:0.5;stroke-linecap:square;stroke-linejoin:miter;stroke-miterlimit:3.25;stroke-dasharray:none;stroke-opacity:1"
         id="path136"
         inkscape:connector-curvature="0" /><path
         d="M 16.535,5.625 H 359.5"
         style="fill:none;stroke:#666666;stroke-width:0.5;stroke-linecap:square;stroke-linejoin:miter;stroke-miterlimit:3.25;stroke-dasharray:none;stroke-opacity:1"
         id="path138"
         inkscape:connector-curvature="0" /><path
         d="M 359.5,5.625 V 234.27"
         style="fill:none;stroke:#666666;stroke-width:0.5;stroke-linecap:square;stroke-linejoin:miter;stroke-miterlimit:3.25;stroke-dasharray:none;stroke-opacity:1"
         id="path140"
         inkscape:connector-curvature="0" /><path
         d="m 16.535,234.27 v -4"
         style="fill:none;stroke:#666666;stroke-width:0.5;stroke-linecap:butt;stroke-linejoin:miter;stroke-miterlimit:3.25;stroke-dasharray:none;stroke-opacity:1"
         id="path142"
         inkscape:connector-curvature="0" /><text
         transform="translate(13.828125,246.26823)"
         style="font-variant:normal;font-size:10px;font-family:CairoFont-0;-inkscape-font-specification:CairoFont-0-0;writing-mode:lr-tb;fill:#666666;fill-opacity:1;fill-rule:nonzero;stroke:none"
         id="text146"><tspan
           x="0"
           y="0"
           id="tspan144">0</tspan></text>
<path
         d="m 32.867,234.27 v -2.403"
         style="fill:none;stroke:#666666;stroke-width:0.5;stroke-linecap:butt;stroke-linejoin:miter;stroke-miterlimit:3.25;stroke-dasharray:none;stroke-opacity:1"
         id="path148"
         inkscape:connector-curvature="0" /><path
         d="m 49.199,234.27 v -2.403"
         style="fill:none;stroke:#666666;stroke-width:0.5;stroke-linecap:butt;stroke-linejoin:miter;stroke-miterlimit:3.25;stroke-dasharray:none;stroke-opacity:1"
         id="path150"
         inkscape:connector-curvature="0" /><path
         d="m 65.531,234.27 v -2.403"
         style="fill:none;stroke:#666666;stroke-width:0.5;stroke-linecap:butt;stroke-linejoin:miter;stroke-miterlimit:3.25;stroke-dasharray:none;stroke-opacity:1"
         id="path152"
         inkscape:connector-curvature="0" /><path
         d="m 81.863,234.27 v -2.403"
         style="fill:none;stroke:#666666;stroke-width:0.5;stroke-linecap:butt;stroke-linejoin:miter;stroke-miterlimit:3.25;stroke-dasharray:none;stroke-opacity:1"
         id="path154"
         inkscape:connector-curvature="0" /><path
         d="m 98.195,234.27 v -4"
         style="fill:none;stroke:#666666;stroke-width:0.5;stroke-linecap:butt;stroke-linejoin:miter;stroke-miterlimit:3.25;stroke-dasharray:none;stroke-opacity:1"
         id="path156"
         inkscape:connector-curvature="0" /><text
         transform="translate(95.486421,246.26823)"
         style="font-variant:normal;font-size:10px;font-family:CairoFont-0;-inkscape-font-specification:CairoFont-0-0;writing-mode:lr-tb;fill:#666666;fill-opacity:1;fill-rule:nonzero;stroke:none"
         id="text160"><tspan
           x="0"
           y="0"
           id="tspan158">5</tspan></text>
<path
         d="m 114.523,234.27 v -2.403"
         style="fill:none;stroke:#666666;stroke-width:0.5;stroke-linecap:butt;stroke-linejoin:miter;stroke-miterlimit:3.25;stroke-dasharray:none;stroke-opacity:1"
         id="path162"
         inkscape:connector-curvature="0" /><path
         d="m 130.855,234.27 v -2.403"
         style="fill:none;stroke:#666666;stroke-width:0.5;stroke-linecap:butt;stroke-linejoin:miter;stroke-miterlimit:3.25;stroke-dasharray:none;stroke-opacity:1"
         id="path164"
         inkscape:connector-curvature="0" /><path
         d="m 147.188,234.27 v -2.403"
         style="fill:none;stroke:#666666;stroke-width:0.5;stroke-linecap:butt;stroke-linejoin:miter;stroke-miterlimit:3.25;stroke-dasharray:none;stroke-opacity:1"
         id="path166"
         inkscape:connector-curvature="0" /><path
         d="m 163.52,234.27 v -2.403"
         style="fill:none;stroke:#666666;stroke-width:0.5;stroke-linecap:butt;stroke-linejoin:miter;stroke-miterlimit:3.25;stroke-dasharray:none;stroke-opacity:1"
         id="path168"
         inkscape:connector-curvature="0" /><path
         d="m 179.852,234.27 v -4"
         style="fill:none;stroke:#666666;stroke-width:0.5;stroke-linecap:butt;stroke-linejoin:miter;stroke-miterlimit:3.25;stroke-dasharray:none;stroke-opacity:1"
         id="path170"
         inkscape:connector-curvature="0" /><text
         transform="translate(174.43769,246.26823)"
         style="font-variant:normal;font-size:10px;font-family:CairoFont-0;-inkscape-font-specification:CairoFont-0-0;writing-mode:lr-tb;fill:#666666;fill-opacity:1;fill-rule:nonzero;stroke:none"
         id="text174"><tspan
           x="0 5.5599999"
           y="0"
           sodipodi:role="line"
           id="tspan172">10</tspan></text>
<path
         d="m 196.184,234.27 v -2.403"
         style="fill:none;stroke:#666666;stroke-width:0.5;stroke-linecap:butt;stroke-linejoin:miter;stroke-miterlimit:3.25;stroke-dasharray:none;stroke-opacity:1"
         id="path176"
         inkscape:connector-curvature="0" /><path
         d="m 212.516,234.27 v -2.403"
         style="fill:none;stroke:#666666;stroke-width:0.5;stroke-linecap:butt;stroke-linejoin:miter;stroke-miterlimit:3.25;stroke-dasharray:none;stroke-opacity:1"
         id="path178"
         inkscape:connector-curvature="0" /><path
         d="m 228.848,234.27 v -2.403"
         style="fill:none;stroke:#666666;stroke-width:0.5;stroke-linecap:butt;stroke-linejoin:miter;stroke-miterlimit:3.25;stroke-dasharray:none;stroke-opacity:1"
         id="path180"
         inkscape:connector-curvature="0" /><path
         d="m 245.18,234.27 v -2.403"
         style="fill:none;stroke:#666666;stroke-width:0.5;stroke-linecap:butt;stroke-linejoin:miter;stroke-miterlimit:3.25;stroke-dasharray:none;stroke-opacity:1"
         id="path182"
         inkscape:connector-curvature="0" /><path
         d="m 261.512,234.27 v -4"
         style="fill:none;stroke:#666666;stroke-width:0.5;stroke-linecap:butt;stroke-linejoin:miter;stroke-miterlimit:3.25;stroke-dasharray:none;stroke-opacity:1"
         id="path184"
         inkscape:connector-curvature="0" /><text
         transform="translate(256.09598,246.26823)"
         style="font-variant:normal;font-size:10px;font-family:CairoFont-0;-inkscape-font-specification:CairoFont-0-0;writing-mode:lr-tb;fill:#666666;fill-opacity:1;fill-rule:nonzero;stroke:none"
         id="text188"><tspan
           x="0 5.5599999"
           y="0"
           sodipodi:role="line"
           id="tspan186">15</tspan></text>
<path
         d="m 277.84,234.27 v -2.403"
         style="fill:none;stroke:#666666;stroke-width:0.5;stroke-linecap:butt;stroke-linejoin:miter;stroke-miterlimit:3.25;stroke-dasharray:none;stroke-opacity:1"
         id="path190"
         inkscape:connector-curvature="0" /><path
         d="m 294.172,234.27 v -2.403"
         style="fill:none;stroke:#666666;stroke-width:0.5;stroke-linecap:butt;stroke-linejoin:miter;stroke-miterlimit:3.25;stroke-dasharray:none;stroke-opacity:1"
         id="path192"
         inkscape:connector-curvature="0" /><path
         d="m 310.504,234.27 v -2.403"
         style="fill:none;stroke:#666666;stroke-width:0.5;stroke-linecap:butt;stroke-linejoin:miter;stroke-miterlimit:3.25;stroke-dasharray:none;stroke-opacity:1"
         id="path194"
         inkscape:connector-curvature="0" /><path
         d="m 326.836,234.27 v -2.403"
         style="fill:none;stroke:#666666;stroke-width:0.5;stroke-linecap:butt;stroke-linejoin:miter;stroke-miterlimit:3.25;stroke-dasharray:none;stroke-opacity:1"
         id="path196"
         inkscape:connector-curvature="0" /><path
         d="m 343.168,234.27 v -4"
         style="fill:none;stroke:#666666;stroke-width:0.5;stroke-linecap:butt;stroke-linejoin:miter;stroke-miterlimit:3.25;stroke-dasharray:none;stroke-opacity:1"
         id="path198"
         inkscape:connector-curvature="0" /><text
         transform="translate(337.75428,246.26823)"
         style="font-variant:normal;font-size:10px;font-family:CairoFont-0;-inkscape-font-specification:CairoFont-0-0;writing-mode:lr-tb;fill:#666666;fill-opacity:1;fill-rule:nonzero;stroke:none"
         id="text202"><tspan
           x="0 5.5599999"
           y="0"
           sodipodi:role="line"
           id="tspan200">20</tspan></text>
<path
         d="m 359.5,234.27 v -2.403"
         style="fill:none;stroke:#666666;stroke-width:0.5;stroke-linecap:butt;stroke-linejoin:miter;stroke-miterlimit:3.25;stroke-dasharray:none;stroke-opacity:1"
         id="path204"
         inkscape:connector-curvature="0" /><path
         d="m 16.535,234.27 h 4"
         style="fill:none;stroke:#666666;stroke-width:0.5;stroke-linecap:butt;stroke-linejoin:miter;stroke-miterlimit:3.25;stroke-dasharray:none;stroke-opacity:1"
         id="path206"
         inkscape:connector-curvature="0" /><text
         transform="translate(0,237.64323)"
         style="font-variant:normal;font-size:10px;font-family:CairoFont-0;-inkscape-font-specification:CairoFont-0-0;writing-mode:lr-tb;fill:#666666;fill-opacity:1;fill-rule:nonzero;stroke:none"
         id="text210"><tspan
           x="0 5.5599999 8.3000002"
           y="0"
           sodipodi:role="line"
           id="tspan208">0.0</tspan></text>
<path
         d="m 16.535,222.836 h 2.399"
         style="fill:none;stroke:#666666;stroke-width:0.5;stroke-linecap:butt;stroke-linejoin:miter;stroke-miterlimit:3.25;stroke-dasharray:none;stroke-opacity:1"
         id="path212"
         inkscape:connector-curvature="0" /><path
         d="m 16.535,211.402 h 2.399"
         style="fill:none;stroke:#666666;stroke-width:0.5;stroke-linecap:butt;stroke-linejoin:miter;stroke-miterlimit:3.25;stroke-dasharray:none;stroke-opacity:1"
         id="path214"
         inkscape:connector-curvature="0" /><path
         d="m 16.535,199.973 h 2.399"
         style="fill:none;stroke:#666666;stroke-width:0.5;stroke-linecap:butt;stroke-linejoin:miter;stroke-miterlimit:3.25;stroke-dasharray:none;stroke-opacity:1"
         id="path216"
         inkscape:connector-curvature="0" /><path
         d="m 16.535,188.539 h 4"
         style="fill:none;stroke:#666666;stroke-width:0.5;stroke-linecap:butt;stroke-linejoin:miter;stroke-miterlimit:3.25;stroke-dasharray:none;stroke-opacity:1"
         id="path218"
         inkscape:connector-curvature="0" /><text
         transform="translate(0,191.91458)"
         style="font-variant:normal;font-size:10px;font-family:CairoFont-0;-inkscape-font-specification:CairoFont-0-0;writing-mode:lr-tb;fill:#666666;fill-opacity:1;fill-rule:nonzero;stroke:none"
         id="text222"><tspan
           x="0 5.5599999 8.3000002"
           y="0"
           sodipodi:role="line"
           id="tspan220">0.2</tspan></text>
<path
         d="m 16.535,177.109 h 2.399"
         style="fill:none;stroke:#666666;stroke-width:0.5;stroke-linecap:butt;stroke-linejoin:miter;stroke-miterlimit:3.25;stroke-dasharray:none;stroke-opacity:1"
         id="path224"
         inkscape:connector-curvature="0" /><path
         d="m 16.535,165.676 h 2.399"
         style="fill:none;stroke:#666666;stroke-width:0.5;stroke-linecap:butt;stroke-linejoin:miter;stroke-miterlimit:3.25;stroke-dasharray:none;stroke-opacity:1"
         id="path226"
         inkscape:connector-curvature="0" /><path
         d="m 16.535,154.242 h 2.399"
         style="fill:none;stroke:#666666;stroke-width:0.5;stroke-linecap:butt;stroke-linejoin:miter;stroke-miterlimit:3.25;stroke-dasharray:none;stroke-opacity:1"
         id="path228"
         inkscape:connector-curvature="0" /><path
         d="m 16.535,142.812 h 4"
         style="fill:none;stroke:#666666;stroke-width:0.5;stroke-linecap:butt;stroke-linejoin:miter;stroke-miterlimit:3.25;stroke-dasharray:none;stroke-opacity:1"
         id="path230"
         inkscape:connector-curvature="0" /><text
         transform="translate(0,146.18594)"
         style="font-variant:normal;font-size:10px;font-family:CairoFont-0;-inkscape-font-specification:CairoFont-0-0;writing-mode:lr-tb;fill:#666666;fill-opacity:1;fill-rule:nonzero;stroke:none"
         id="text234"><tspan
           x="0 5.5599999 8.3000002"
           y="0"
           sodipodi:role="line"
           id="tspan232">0.4</tspan></text>
<path
         d="m 16.535,131.379 h 2.399"
         style="fill:none;stroke:#666666;stroke-width:0.5;stroke-linecap:butt;stroke-linejoin:miter;stroke-miterlimit:3.25;stroke-dasharray:none;stroke-opacity:1"
         id="path236"
         inkscape:connector-curvature="0" /><path
         d="m 16.535,119.945 h 2.399"
         style="fill:none;stroke:#666666;stroke-width:0.5;stroke-linecap:butt;stroke-linejoin:miter;stroke-miterlimit:3.25;stroke-dasharray:none;stroke-opacity:1"
         id="path238"
         inkscape:connector-curvature="0" /><path
         d="m 16.535,108.516 h 2.399"
         style="fill:none;stroke:#666666;stroke-width:0.5;stroke-linecap:butt;stroke-linejoin:miter;stroke-miterlimit:3.25;stroke-dasharray:none;stroke-opacity:1"
         id="path240"
         inkscape:connector-curvature="0" /><path
         d="m 16.535,97.082 h 4"
         style="fill:none;stroke:#666666;stroke-width:0.5;stroke-linecap:butt;stroke-linejoin:miter;stroke-miterlimit:3.25;stroke-dasharray:none;stroke-opacity:1"
         id="path242"
         inkscape:connector-curvature="0" /><text
         transform="translate(0,100.45729)"
         style="font-variant:normal;font-size:10px;font-family:CairoFont-0;-inkscape-font-specification:CairoFont-0-0;writing-mode:lr-tb;fill:#666666;fill-opacity:1;fill-rule:nonzero;stroke:none"
         id="text246"><tspan
           x="0 5.5599999 8.3000002"
           y="0"
           sodipodi:role="line"
           id="tspan244">0.6</tspan></text>
<path
         d="m 16.535,85.648 h 2.399"
         style="fill:none;stroke:#666666;stroke-width:0.5;stroke-linecap:butt;stroke-linejoin:miter;stroke-miterlimit:3.25;stroke-dasharray:none;stroke-opacity:1"
         id="path248"
         inkscape:connector-curvature="0" /><path
         d="m 16.535,74.219 h 2.399"
         style="fill:none;stroke:#666666;stroke-width:0.5;stroke-linecap:butt;stroke-linejoin:miter;stroke-miterlimit:3.25;stroke-dasharray:none;stroke-opacity:1"
         id="path250"
         inkscape:connector-curvature="0" /><path
         d="m 16.535,62.785 h 2.399"
         style="fill:none;stroke:#666666;stroke-width:0.5;stroke-linecap:butt;stroke-linejoin:miter;stroke-miterlimit:3.25;stroke-dasharray:none;stroke-opacity:1"
         id="path252"
         inkscape:connector-curvature="0" /><path
         d="m 16.535,51.355 h 4"
         style="fill:none;stroke:#666666;stroke-width:0.5;stroke-linecap:butt;stroke-linejoin:miter;stroke-miterlimit:3.25;stroke-dasharray:none;stroke-opacity:1"
         id="path254"
         inkscape:connector-curvature="0" /><text
         transform="translate(0,54.728646)"
         style="font-variant:normal;font-size:10px;font-family:CairoFont-0;-inkscape-font-specification:CairoFont-0-0;writing-mode:lr-tb;fill:#666666;fill-opacity:1;fill-rule:nonzero;stroke:none"
         id="text258"><tspan
           x="0 5.5599999 8.3000002"
           y="0"
           sodipodi:role="line"
           id="tspan256">0.8</tspan></text>
<path
         d="m 16.535,39.922 h 2.399"
         style="fill:none;stroke:#666666;stroke-width:0.5;stroke-linecap:butt;stroke-linejoin:miter;stroke-miterlimit:3.25;stroke-dasharray:none;stroke-opacity:1"
         id="path260"
         inkscape:connector-curvature="0" /><path
         d="m 16.535,28.488 h 2.399"
         style="fill:none;stroke:#666666;stroke-width:0.5;stroke-linecap:butt;stroke-linejoin:miter;stroke-miterlimit:3.25;stroke-dasharray:none;stroke-opacity:1"
         id="path262"
         inkscape:connector-curvature="0" /><path
         d="m 16.535,17.059 h 2.399"
         style="fill:none;stroke:#666666;stroke-width:0.5;stroke-linecap:butt;stroke-linejoin:miter;stroke-miterlimit:3.25;stroke-dasharray:none;stroke-opacity:1"
         id="path264"
         inkscape:connector-curvature="0" /><path
         d="m 16.535,5.625 h 4"
         style="fill:none;stroke:#666666;stroke-width:0.5;stroke-linecap:butt;stroke-linejoin:miter;stroke-miterlimit:3.25;stroke-dasharray:none;stroke-opacity:1"
         id="path266"
         inkscape:connector-curvature="0" /><text
         transform="translate(0,9)"
         style="font-variant:normal;font-size:10px;font-family:CairoFont-0;-inkscape-font-specification:CairoFont-0-0;writing-mode:lr-tb;fill:#666666;fill-opacity:1;fill-rule:nonzero;stroke:none"
         id="text270"><tspan
           x="0 5.5599999 8.3000002"
           y="0"
           sodipodi:role="line"
           id="tspan268">1.0</tspan></text>
<path
         d="m 16.535,5.625 v 4"
         style="fill:none;stroke:#666666;stroke-width:0.5;stroke-linecap:butt;stroke-linejoin:miter;stroke-miterlimit:3.25;stroke-dasharray:none;stroke-opacity:1"
         id="path272"
         inkscape:connector-curvature="0" /><path
         d="M 32.867,5.625 V 8.023"
         style="fill:none;stroke:#666666;stroke-width:0.5;stroke-linecap:butt;stroke-linejoin:miter;stroke-miterlimit:3.25;stroke-dasharray:none;stroke-opacity:1"
         id="path274"
         inkscape:connector-curvature="0" /><path
         d="M 49.199,5.625 V 8.023"
         style="fill:none;stroke:#666666;stroke-width:0.5;stroke-linecap:butt;stroke-linejoin:miter;stroke-miterlimit:3.25;stroke-dasharray:none;stroke-opacity:1"
         id="path276"
         inkscape:connector-curvature="0" /><path
         d="M 65.531,5.625 V 8.023"
         style="fill:none;stroke:#666666;stroke-width:0.5;stroke-linecap:butt;stroke-linejoin:miter;stroke-miterlimit:3.25;stroke-dasharray:none;stroke-opacity:1"
         id="path278"
         inkscape:connector-curvature="0" /><path
         d="M 81.863,5.625 V 8.023"
         style="fill:none;stroke:#666666;stroke-width:0.5;stroke-linecap:butt;stroke-linejoin:miter;stroke-miterlimit:3.25;stroke-dasharray:none;stroke-opacity:1"
         id="path280"
         inkscape:connector-curvature="0" /><path
         d="m 98.195,5.625 v 4"
         style="fill:none;stroke:#666666;stroke-width:0.5;stroke-linecap:butt;stroke-linejoin:miter;stroke-miterlimit:3.25;stroke-dasharray:none;stroke-opacity:1"
         id="path282"
         inkscape:connector-curvature="0" /><path
         d="M 114.523,5.625 V 8.023"
         style="fill:none;stroke:#666666;stroke-width:0.5;stroke-linecap:butt;stroke-linejoin:miter;stroke-miterlimit:3.25;stroke-dasharray:none;stroke-opacity:1"
         id="path284"
         inkscape:connector-curvature="0" /><path
         d="M 130.855,5.625 V 8.023"
         style="fill:none;stroke:#666666;stroke-width:0.5;stroke-linecap:butt;stroke-linejoin:miter;stroke-miterlimit:3.25;stroke-dasharray:none;stroke-opacity:1"
         id="path286"
         inkscape:connector-curvature="0" /><path
         d="M 147.188,5.625 V 8.023"
         style="fill:none;stroke:#666666;stroke-width:0.5;stroke-linecap:butt;stroke-linejoin:miter;stroke-miterlimit:3.25;stroke-dasharray:none;stroke-opacity:1"
         id="path288"
         inkscape:connector-curvature="0" /><path
         d="M 163.52,5.625 V 8.023"
         style="fill:none;stroke:#666666;stroke-width:0.5;stroke-linecap:butt;stroke-linejoin:miter;stroke-miterlimit:3.25;stroke-dasharray:none;stroke-opacity:1"
         id="path290"
         inkscape:connector-curvature="0" /><path
         d="m 179.852,5.625 v 4"
         style="fill:none;stroke:#666666;stroke-width:0.5;stroke-linecap:butt;stroke-linejoin:miter;stroke-miterlimit:3.25;stroke-dasharray:none;stroke-opacity:1"
         id="path292"
         inkscape:connector-curvature="0" /><path
         d="M 196.184,5.625 V 8.023"
         style="fill:none;stroke:#666666;stroke-width:0.5;stroke-linecap:butt;stroke-linejoin:miter;stroke-miterlimit:3.25;stroke-dasharray:none;stroke-opacity:1"
         id="path294"
         inkscape:connector-curvature="0" /><path
         d="M 212.516,5.625 V 8.023"
         style="fill:none;stroke:#666666;stroke-width:0.5;stroke-linecap:butt;stroke-linejoin:miter;stroke-miterlimit:3.25;stroke-dasharray:none;stroke-opacity:1"
         id="path296"
         inkscape:connector-curvature="0" /><path
         d="M 228.848,5.625 V 8.023"
         style="fill:none;stroke:#666666;stroke-width:0.5;stroke-linecap:butt;stroke-linejoin:miter;stroke-miterlimit:3.25;stroke-dasharray:none;stroke-opacity:1"
         id="path298"
         inkscape:connector-curvature="0" /><path
         d="M 245.18,5.625 V 8.023"
         style="fill:none;stroke:#666666;stroke-width:0.5;stroke-linecap:butt;stroke-linejoin:miter;stroke-miterlimit:3.25;stroke-dasharray:none;stroke-opacity:1"
         id="path300"
         inkscape:connector-curvature="0" /><path
         d="m 261.512,5.625 v 4"
         style="fill:none;stroke:#666666;stroke-width:0.5;stroke-linecap:butt;stroke-linejoin:miter;stroke-miterlimit:3.25;stroke-dasharray:none;stroke-opacity:1"
         id="path302"
         inkscape:connector-curvature="0" /><path
         d="M 277.84,5.625 V 8.023"
         style="fill:none;stroke:#666666;stroke-width:0.5;stroke-linecap:butt;stroke-linejoin:miter;stroke-miterlimit:3.25;stroke-dasharray:none;stroke-opacity:1"
         id="path304"
         inkscape:connector-curvature="0" /><path
         d="M 294.172,5.625 V 8.023"
         style="fill:none;stroke:#666666;stroke-width:0.5;stroke-linecap:butt;stroke-linejoin:miter;stroke-miterlimit:3.25;stroke-dasharray:none;stroke-opacity:1"
         id="path306"
         inkscape:connector-curvature="0" /><path
         d="M 310.504,5.625 V 8.023"
         style="fill:none;stroke:#666666;stroke-width:0.5;stroke-linecap:butt;stroke-linejoin:miter;stroke-miterlimit:3.25;stroke-dasharray:none;stroke-opacity:1"
         id="path308"
         inkscape:connector-curvature="0" /><path
         d="M 326.836,5.625 V 8.023"
         style="fill:none;stroke:#666666;stroke-width:0.5;stroke-linecap:butt;stroke-linejoin:miter;stroke-miterlimit:3.25;stroke-dasharray:none;stroke-opacity:1"
         id="path310"
         inkscape:connector-curvature="0" /><path
         d="m 343.168,5.625 v 4"
         style="fill:none;stroke:#666666;stroke-width:0.5;stroke-linecap:butt;stroke-linejoin:miter;stroke-miterlimit:3.25;stroke-dasharray:none;stroke-opacity:1"
         id="path312"
         inkscape:connector-curvature="0" /><path
         d="M 359.5,5.625 V 8.023"
         style="fill:none;stroke:#666666;stroke-width:0.5;stroke-linecap:butt;stroke-linejoin:miter;stroke-miterlimit:3.25;stroke-dasharray:none;stroke-opacity:1"
         id="path314"
         inkscape:connector-curvature="0" /><path
         d="m 359.5,234.27 h -4"
         style="fill:none;stroke:#666666;stroke-width:0.5;stroke-linecap:butt;stroke-linejoin:miter;stroke-miterlimit:3.25;stroke-dasharray:none;stroke-opacity:1"
         id="path316"
         inkscape:connector-curvature="0" /><path
         d="m 359.5,222.836 h -2.398"
         style="fill:none;stroke:#666666;stroke-width:0.5;stroke-linecap:butt;stroke-linejoin:miter;stroke-miterlimit:3.25;stroke-dasharray:none;stroke-opacity:1"
         id="path318"
         inkscape:connector-curvature="0" /><path
         d="m 359.5,211.402 h -2.398"
         style="fill:none;stroke:#666666;stroke-width:0.5;stroke-linecap:butt;stroke-linejoin:miter;stroke-miterlimit:3.25;stroke-dasharray:none;stroke-opacity:1"
         id="path320"
         inkscape:connector-curvature="0" /><path
         d="m 359.5,199.973 h -2.398"
         style="fill:none;stroke:#666666;stroke-width:0.5;stroke-linecap:butt;stroke-linejoin:miter;stroke-miterlimit:3.25;stroke-dasharray:none;stroke-opacity:1"
         id="path322"
         inkscape:connector-curvature="0" /><path
         d="m 359.5,188.539 h -4"
         style="fill:none;stroke:#666666;stroke-width:0.5;stroke-linecap:butt;stroke-linejoin:miter;stroke-miterlimit:3.25;stroke-dasharray:none;stroke-opacity:1"
         id="path324"
         inkscape:connector-curvature="0" /><path
         d="m 359.5,177.109 h -2.398"
         style="fill:none;stroke:#666666;stroke-width:0.5;stroke-linecap:butt;stroke-linejoin:miter;stroke-miterlimit:3.25;stroke-dasharray:none;stroke-opacity:1"
         id="path326"
         inkscape:connector-curvature="0" /><path
         d="m 359.5,165.676 h -2.398"
         style="fill:none;stroke:#666666;stroke-width:0.5;stroke-linecap:butt;stroke-linejoin:miter;stroke-miterlimit:3.25;stroke-dasharray:none;stroke-opacity:1"
         id="path328"
         inkscape:connector-curvature="0" /><path
         d="m 359.5,154.242 h -2.398"
         style="fill:none;stroke:#666666;stroke-width:0.5;stroke-linecap:butt;stroke-linejoin:miter;stroke-miterlimit:3.25;stroke-dasharray:none;stroke-opacity:1"
         id="path330"
         inkscape:connector-curvature="0" /><path
         d="m 359.5,142.812 h -4"
         style="fill:none;stroke:#666666;stroke-width:0.5;stroke-linecap:butt;stroke-linejoin:miter;stroke-miterlimit:3.25;stroke-dasharray:none;stroke-opacity:1"
         id="path332"
         inkscape:connector-curvature="0" /><path
         d="m 359.5,131.379 h -2.398"
         style="fill:none;stroke:#666666;stroke-width:0.5;stroke-linecap:butt;stroke-linejoin:miter;stroke-miterlimit:3.25;stroke-dasharray:none;stroke-opacity:1"
         id="path334"
         inkscape:connector-curvature="0" /><path
         d="m 359.5,119.945 h -2.398"
         style="fill:none;stroke:#666666;stroke-width:0.5;stroke-linecap:butt;stroke-linejoin:miter;stroke-miterlimit:3.25;stroke-dasharray:none;stroke-opacity:1"
         id="path336"
         inkscape:connector-curvature="0" /><path
         d="m 359.5,108.516 h -2.398"
         style="fill:none;stroke:#666666;stroke-width:0.5;stroke-linecap:butt;stroke-linejoin:miter;stroke-miterlimit:3.25;stroke-dasharray:none;stroke-opacity:1"
         id="path338"
         inkscape:connector-curvature="0" /><path
         d="m 359.5,97.082 h -4"
         style="fill:none;stroke:#666666;stroke-width:0.5;stroke-linecap:butt;stroke-linejoin:miter;stroke-miterlimit:3.25;stroke-dasharray:none;stroke-opacity:1"
         id="path340"
         inkscape:connector-curvature="0" /><path
         d="m 359.5,85.648 h -2.398"
         style="fill:none;stroke:#666666;stroke-width:0.5;stroke-linecap:butt;stroke-linejoin:miter;stroke-miterlimit:3.25;stroke-dasharray:none;stroke-opacity:1"
         id="path342"
         inkscape:connector-curvature="0" /><path
         d="m 359.5,74.219 h -2.398"
         style="fill:none;stroke:#666666;stroke-width:0.5;stroke-linecap:butt;stroke-linejoin:miter;stroke-miterlimit:3.25;stroke-dasharray:none;stroke-opacity:1"
         id="path344"
         inkscape:connector-curvature="0" /><path
         d="m 359.5,62.785 h -2.398"
         style="fill:none;stroke:#666666;stroke-width:0.5;stroke-linecap:butt;stroke-linejoin:miter;stroke-miterlimit:3.25;stroke-dasharray:none;stroke-opacity:1"
         id="path346"
         inkscape:connector-curvature="0" /><path
         d="m 359.5,51.355 h -4"
         style="fill:none;stroke:#666666;stroke-width:0.5;stroke-linecap:butt;stroke-linejoin:miter;stroke-miterlimit:3.25;stroke-dasharray:none;stroke-opacity:1"
         id="path348"
         inkscape:connector-curvature="0" /><path
         d="m 359.5,39.922 h -2.398"
         style="fill:none;stroke:#666666;stroke-width:0.5;stroke-linecap:butt;stroke-linejoin:miter;stroke-miterlimit:3.25;stroke-dasharray:none;stroke-opacity:1"
         id="path350"
         inkscape:connector-curvature="0" /><path
         d="m 359.5,28.488 h -2.398"
         style="fill:none;stroke:#666666;stroke-width:0.5;stroke-linecap:butt;stroke-linejoin:miter;stroke-miterlimit:3.25;stroke-dasharray:none;stroke-opacity:1"
         id="path352"
         inkscape:connector-curvature="0" /><path
         d="m 359.5,17.059 h -2.398"
         style="fill:none;stroke:#666666;stroke-width:0.5;stroke-linecap:butt;stroke-linejoin:miter;stroke-miterlimit:3.25;stroke-dasharray:none;stroke-opacity:1"
         id="path354"
         inkscape:connector-curvature="0" /><path
         d="m 359.5,5.625 h -4"
         style="fill:none;stroke:#666666;stroke-width:0.5;stroke-linecap:butt;stroke-linejoin:miter;stroke-miterlimit:3.25;stroke-dasharray:none;stroke-opacity:1"
         id="path356"
         inkscape:connector-curvature="0" /></g><text
       xml:space="preserve"
       style="font-style:italic;font-variant:normal;font-weight:bold;font-stretch:normal;font-size:8px;line-height:1.25;font-family:sans-serif;-inkscape-font-specification:'sans-serif Bold Italic';letter-spacing:0px;word-spacing:0px;fill:#000000;fill-opacity:1;stroke:none;stroke-width:0.75"
       x="167.75848"
       y="264.29874"
       id="text1165"><tspan
         sodipodi:role="line"
         id="tspan1163"
         x="167.75848"
         y="264.29874"
         style="stroke-width:0.75">$n$</tspan></text>
<text
       xml:space="preserve"
       style="font-style:italic;font-variant:normal;font-weight:bold;font-stretch:normal;font-size:8px;line-height:1.25;font-family:sans-serif;-inkscape-font-specification:'sans-serif Bold Italic';letter-spacing:0px;word-spacing:0px;fill:#000000;fill-opacity:1;stroke:none;stroke-width:0.75"
       x="-42.203388"
       y="128.19279"
       id="text1169"><tspan
         sodipodi:role="line"
         id="tspan1167"
         x="-42.203388"
         y="128.19279"
         style="stroke-width:0.75">$D(n,n)$</tspan></text>
<rect
       style="fill:none;fill-opacity:1;stroke:none;stroke-width:1.13385832;stroke-miterlimit:4;stroke-dasharray:none;stroke-dashoffset:0;stroke-opacity:1"
       id="rect1171"
       width="452.10385"
       height="284.87289"
       x="-46.423729"
       y="-5.2754302" /></g></svg>